SplineFontDB: 3.2
FontName: RoutedGothic-Half-Italic
FullName: Routed Gothic Half Italic
FamilyName: Routed Gothic
Weight: Regular

StartChar: exclam
Encoding: 33 33 0
Width: 288
Flags: HW
LayerCount: 2
Back
SplineSet
107.838867188 72 m 0
 101.166015625 59.068359375 85.65625 48 72.34765625 48 c 0
 64.34765625 48 57.939453125 56 59.5302734375 64 c 0
 60.06640625 66.6923828125 61.0546875 69.3837890625 62.404296875 72 c 1024
62.404296875 72 m 0
 69.078125 84.931640625 84.587890625 96 97.8955078125 96 c 0
 105.895507812 96 112.3046875 88 110.712890625 80 c 0
 110.177734375 77.3076171875 109.189453125 74.6162109375 107.838867188 72 c 1024
207.65234375 688 m 1
 128.086914062 288 l 1025
EndSplineSet
Fore
SplineSet
37.5405759601 68.7969089956 m 0
 36.2039071653 65.558814374 36.3930487662 65.0457138787 35.6943658899 60.1549337442 c 0
 32.8736338473 44.6409075103 37.2071153836 37.7340101134 41.9705627485 32.9705627485 c 0
 47.1328300788 27.8082954182 52.6926156504 24 63 24 c 0
 75.67862176 24 87.0514418548 28.0581257983 97.6253604842 34.5651526472 c 0
 111.089758275 42.4853866417 120.414920207 51.4576536555 128.857231501 66.4968238945 c 0
 129.83313266 69.3508750245 129.771482359 69.2085961771 130.533747416 70.733126292 c 0
 133.070931964 75.8074953887 134.864596363 80.7578020278 135.241212152 83.3941125497 c 0
 135.30285268 83.8255962448 135.444387118 84.6342755174 135.571510556 85.2063309876 c 0
 137.984878804 96.0664881045 135.814625559 100.842344233 131.182055277 107.460301779 c 0
 126.344121091 114.717203057 120.189134298 120 107 120 c 0
 94.32137824 120 82.9485581452 115.941874202 72.3746395158 109.434847353 c 0
 58.9461998597 101.535765202 47.2113457026 87.1713715063 37.5405759601 68.7969089956 c 0
-6.94598098421 87.7736694916 m 0
 7.00102983441 113.296349893 27.7860164351 138.894950265 47.6253604842 150.565152647 c 0
 63.0514418548 160.058125798 83.67862176 168 107 168 c 0
 137.810865702 168 159.655878909 151.282796943 170.817944723 134.539698221 c 0
 178.167314825 124.040598075 184.152877195 108.515425265 184.152877195 90.9481231298 c 0
 184.152877195 85.990970066 183.676271226 80.8712105559 182.619213554 75.6558905185 c 0
 180.692246867 64.2856817315 177.918802696 58.599821989 174.247488994 50.8267647031 c 0
 172.730290577 46.3395995436 173.14330218 47.5420888141 172.238037337 45.822085612 c 0
 160.205985879 22.9611878409 142.46356581 5.25186282031 122.374639516 -6.56515264716 c 0
 106.948558145 -16.0581257983 86.32137824 -24 63 -24 c 0
 37.3073843496 -24 18.8671699212 -11.8082954182 8.02943725152 -0.970562748477 c 0
 -4.64260054258 11.7014750456 -12.9593170969 30.1734844205 -12.9593170969 52.5050096319 c 0
 -12.9593170969 57.5479415342 -12.5352043397 62.7876902803 -11.6413601849 68.2019099679 c 0
 -10.0922602383 78.0994719457 -11.2858203341 79.0939907918 -6.94598098421 87.7736694916 c 0
136.448631477 692.619625712 m 2
 143.63274578 729.977020087 178.468512814 760 217 760 c 0
 253.536442343 760 280.796464328 731.122790688 280.796464328 696.317384839 c 0
 280.796464328 692.079138414 280.392256047 687.752989415 279.551368523 683.380374288 c 2
 199.551368523 283.380374288 l 2
 192.36725422 246.022979913 157.531487186 216 119 216 c 0
 82.4635576574 216 55.2035356725 244.877209312 55.2035356725 279.682615161 c 0
 55.2035356725 283.920861586 55.6077439528 288.247010585 56.4486314772 292.619625712 c 2
 136.448631477 692.619625712 l 2
183.551368523 683.380374288 m 2
 103.551368523 283.380374288 l 2
 101.297808163 271.661860414 107.985476691 264 119 264 c 0
 132.468512814 264 149.63274578 277.977020087 152.448631477 292.619625712 c 2
 232.448631477 692.619625712 l 2
 234.702191837 704.338139586 228.014523309 712 217 712 c 0
 203.531487186 712 186.36725422 698.022979913 183.551368523 683.380374288 c 2
EndSplineSet
EndChar

StartChar: quotedbl
Encoding: 34 34 1
Width: 384
Flags: HW
LayerCount: 2
Back
SplineSet
335.65234375 688 m 1
 294.278320312 480 l 1025
175.65234375 688 m 1
 134.278320312 480 l 1025
EndSplineSet
Fore
SplineSet
104.452820397 692.641408095 m 2
 111.629199814 729.958581063 146.46977674 760 185 760 c 0
 221.532233307 760 248.79436503 731.142180383 248.79436503 696.315566988 c 0
 248.79436503 692.071410294 248.389490794 687.738610098 247.547179603 683.358591905 c 2
 205.547179603 475.358591905 l 2
 198.370800186 438.041418937 163.53022326 408 125 408 c 0
 88.467766693 408 61.2056349701 436.857819617 61.2056349701 471.684433012 c 0
 61.2056349701 475.928589706 61.610509206 480.261389902 62.452820397 484.641408095 c 2
 104.452820397 692.641408095 l 2
151.547179603 683.358591905 m 2
 109.547179603 475.358591905 l 2
 107.301310579 463.680072978 113.984245933 456 125 456 c 0
 138.46977674 456 155.629199814 469.958581063 158.452820397 484.641408095 c 2
 200.452820397 692.641408095 l 2
 202.698689421 704.319927022 196.015754067 712 185 712 c 0
 171.53022326 712 154.370800186 698.041418937 151.547179603 683.358591905 c 2
264.452820397 692.641408095 m 2
 271.629199814 729.958581063 306.46977674 760 345 760 c 0
 381.532233307 760 408.79436503 731.142180383 408.79436503 696.315566988 c 0
 408.79436503 692.071410294 408.389490794 687.738610098 407.547179603 683.358591905 c 2
 365.547179603 475.358591905 l 2
 358.370800186 438.041418937 323.53022326 408 285 408 c 0
 248.467766693 408 221.20563497 436.857819617 221.20563497 471.684433012 c 0
 221.20563497 475.928589706 221.610509206 480.261389902 222.452820397 484.641408095 c 2
 264.452820397 692.641408095 l 2
311.547179603 683.358591905 m 2
 269.547179603 475.358591905 l 2
 267.301310579 463.680072978 273.984245933 456 285 456 c 0
 298.46977674 456 315.629199814 469.958581063 318.452820397 484.641408095 c 2
 360.452820397 692.641408095 l 2
 362.698689421 704.319927022 356.015754067 712 345 712 c 0
 331.53022326 712 314.370800186 698.041418937 311.547179603 683.358591905 c 2
EndSplineSet
EndChar

StartChar: numbersign
Encoding: 35 35 2
Width: 672
Flags: HW
LayerCount: 2
Back
SplineSet
272.34765625 48 m 1
 575.65234375 688 l 1025
96.34765625 48 m 1
 399.65234375 688 l 1025
127.913085938 448 m 1
 575.913085938 448 l 1025
96.0869140625 288 m 1
 544.086914062 288 l 1025
EndSplineSet
Fore
SplineSet
328.255895571 376 m 1
 320.755895571 360 l 1
 343.744104429 360 l 1
 351.244104429 376 l 1
 328.255895571 376 l 1
291.268985537 410.18641303 m 2
 294.519301488 417.120420393 303.249195165 424 313 424 c 2
 389 424 l 2
 391.774318428 424 394.759546936 423.475323878 397.450061271 422.463224713 c 0
 407.042270395 418.854893503 412.943487063 409.482944259 412.943487063 399.780949316 c 0
 412.943487063 396.422935377 412.23654396 393.025383231 410.731014463 389.81358697 c 2
 380.731014463 325.81358697 l 2
 377.480698512 318.879579607 368.750804835 312 359 312 c 2
 283 312 l 2
 280.225681572 312 277.240453064 312.524676122 274.549938729 313.536775287 c 0
 264.957729605 317.145106497 259.056512937 326.517055741 259.056512937 336.219050684 c 0
 259.056512937 339.577064623 259.76345604 342.974616769 261.268985537 346.18641303 c 2
 291.268985537 410.18641303 l 2
200.716579997 53.8208550009 m 0
 202.334369718 60.2920138883 204.952931367 66.571494193 207.424731421 71.5150943029 c 2
 276.034882171 216 l 1
 252.195003204 216 l 1
 161.582673194 24.4997149278 l 2
 147.824229825 -3.01717181063 119.86734172 -24 87 -24 c 0
 50.4466717158 -24 23.1951112626 4.95499040283 23.1951112626 39.6752530501 c 0
 23.1951112626 43.8898240435 23.5966543182 48.1893444854 24.4318452725 52.5323374476 c 0
 24.5110150117 52.9440200916 24.6412447971 53.5195142033 24.7165799965 53.8208550009 c 0
 26.3343697184 60.2920138883 28.9529313665 66.571494193 31.4247314214 71.5150943029 c 2
 100.034882171 216 l 1
 87 216 l 2
 50.4466717158 216 23.1951112626 244.954990403 23.1951112626 279.67525305 c 0
 23.1951112626 283.889824043 23.5966543182 288.189344485 24.4318452725 292.532337448 c 0
 31.7499766112 330.586620409 67.820676109 360 106 360 c 2
 167.744104429 360 l 1
 175.244104429 376 l 1
 118 376 l 2
 81.0298122836 376 55.1823049702 405.385042438 55.1823049702 439.512535615 c 0
 55.1823049702 443.794046432 55.5891265492 448.150200086 56.4318452725 452.532337448 c 0
 63.6469554851 490.050910553 98.4634478993 520 137 520 c 2
 243.804996796 520 l 1
 334.417326806 711.500285072 l 2
 348.175770175 739.017171811 376.13265828 760 409 760 c 0
 445.553328284 760 472.804888737 731.045009597 472.804888737 696.32474695 c 0
 472.804888737 692.110175957 472.403345682 687.810655515 471.568154728 683.467662552 c 0
 471.488984988 683.055979908 471.358755203 682.480485797 471.283420003 682.179144999 c 0
 469.665630282 675.707986112 467.047068633 669.428505807 464.575268579 664.484905697 c 2
 395.965117829 520 l 1
 419.804996796 520 l 1
 510.417326806 711.500285072 l 2
 524.175770175 739.017171811 552.13265828 760 585 760 c 0
 621.553328284 760 648.804888737 731.045009597 648.804888737 696.32474695 c 0
 648.804888737 692.110175957 648.403345682 687.810655515 647.568154728 683.467662552 c 0
 647.488984988 683.055979908 647.358755203 682.480485797 647.283420003 682.179144999 c 0
 645.665630282 675.707986112 643.047068633 669.428505807 640.575268579 664.484905697 c 2
 571.965117829 520 l 1
 585 520 l 2
 621.553328284 520 648.804888737 491.045009597 648.804888737 456.32474695 c 0
 648.804888737 452.110175957 648.403345682 447.810655515 647.568154728 443.467662552 c 0
 640.250023389 405.413379591 604.179323891 376 566 376 c 2
 504.255895571 376 l 1
 496.755895571 360 l 1
 554 360 l 2
 590.970187716 360 616.81769503 330.614957562 616.81769503 296.487464385 c 0
 616.81769503 292.205953568 616.410873451 287.849799914 615.568154728 283.467662552 c 0
 608.353044515 245.949089447 573.536552101 216 535 216 c 2
 428.195003204 216 l 1
 337.582673194 24.4997149278 l 2
 323.824229825 -3.01717181062 295.86734172 -24 263 -24 c 0
 226.446671716 -24 199.195111263 4.95499040283 199.195111263 39.6752530501 c 0
 199.195111263 43.8898240435 199.596654318 48.1893444854 200.431845272 52.5323374476 c 0
 200.511015012 52.9440200916 200.641244797 53.5195142033 200.716579997 53.8208550009 c 0
247.444091275 42.7724341808 m 0
 245.748256228 31.6272137445 251.897498539 24 263 24 c 0
 274.048965968 24 287.55904171 32.2874532095 294.412095432 45.4892290758 c 2
 391.305984181 250.264973339 l 2
 395.212890963 258.521838188 403.798625793 264 413 264 c 2
 535 264 l 2
 548.463447899 264 565.646955485 278.050910553 568.431845272 292.532337448 c 0
 570.871900152 305.220622821 564.391667378 312 554 312 c 2
 459 312 l 2
 456.225681572 312 453.240453064 312.524676122 450.549938729 313.536775287 c 0
 440.957729605 317.145106497 435.056512937 326.517055741 435.056512937 336.219050684 c 0
 435.056512937 339.577064623 435.76345604 342.974616769 437.268985537 346.18641303 c 2
 467.268985537 410.18641303 l 2
 470.519301488 417.120420393 479.249195165 424 489 424 c 2
 566 424 l 2
 579.820676109 424 597.749976611 438.586620409 600.431845272 452.532337448 c 0
 602.716227025 464.41112256 596.009591309 472 585 472 c 2
 534 472 l 2
 532.857779997 472 528.07253257 472.573103724 525.437777656 473.579287511 c 0
 515.903075063 477.220485069 510.057607855 486.559649807 510.057607855 496.219092976 c 0
 510.057607855 499.616045855 510.780534265 503.052608526 512.320166548 506.29489298 c 2
 597.424731421 685.515094303 l 2
 598.818389247 688.302409954 599.808774973 690.748596687 600.555908725 693.227565819 c 0
 602.251743772 704.372786255 596.102501461 712 585 712 c 0
 573.951034032 712 560.44095829 703.71254679 553.587904568 690.510770924 c 2
 456.694015819 485.735026661 l 2
 452.787109037 477.478161812 444.201374207 472 435 472 c 2
 358 472 l 2
 356.857779997 472 352.07253257 472.573103724 349.437777656 473.579287511 c 0
 339.903075063 477.220485069 334.057607855 486.559649807 334.057607855 496.219092976 c 0
 334.057607855 499.616045855 334.780534265 503.052608526 336.320166548 506.29489298 c 2
 421.424731421 685.515094303 l 2
 422.818389247 688.302409954 423.808774973 690.748596687 424.555908725 693.227565819 c 0
 426.251743772 704.372786255 420.102501461 712 409 712 c 0
 397.951034032 712 384.44095829 703.71254679 377.587904568 690.510770924 c 2
 280.694015819 485.735026661 l 2
 276.787109037 477.478161812 268.201374207 472 259 472 c 2
 137 472 l 2
 123.536552101 472 106.353044515 457.949089447 103.568154728 443.467662552 c 0
 101.128099848 430.779377179 107.608332622 424 118 424 c 2
 213 424 l 2
 215.774318428 424 218.759546936 423.475323878 221.450061271 422.463224713 c 0
 231.042270395 418.854893503 236.943487063 409.482944259 236.943487063 399.780949316 c 0
 236.943487063 396.422935377 236.23654396 393.025383231 234.731014463 389.81358697 c 2
 204.731014463 325.81358697 l 2
 201.480698512 318.879579607 192.750804835 312 183 312 c 2
 106 312 l 2
 92.179323891 312 74.2500233888 297.413379591 71.5681547275 283.467662552 c 0
 69.2837729752 271.58887744 75.9904086906 264 87 264 c 2
 138 264 l 2
 139.142220003 264 143.92746743 263.426896276 146.562222344 262.420712489 c 0
 156.096924937 258.779514931 161.942392145 249.440350193 161.942392145 239.780907024 c 0
 161.942392145 236.383954145 161.219465735 232.947391474 159.679833452 229.70510702 c 2
 74.5752685786 50.4849056971 l 2
 73.1816107531 47.6975900462 72.191225027 45.2514033126 71.4440912748 42.7724341808 c 0
 69.7482562284 31.6272137445 75.8974985394 24 87 24 c 0
 98.0489659679 24 111.55904171 32.2874532095 118.412095432 45.4892290758 c 2
 215.305984181 250.264973339 l 2
 219.212890963 258.521838188 227.798625793 264 237 264 c 2
 314 264 l 2
 315.142220003 264 319.92746743 263.426896276 322.562222344 262.420712489 c 0
 332.096924937 258.779514931 337.942392145 249.440350193 337.942392145 239.780907024 c 0
 337.942392145 236.383954145 337.219465735 232.947391474 335.679833452 229.70510702 c 2
 250.575268579 50.4849056971 l 2
 249.181610753 47.6975900462 248.191225027 45.2514033126 247.444091275 42.7724341808 c 0
EndSplineSet
EndChar

StartChar: dollar
Encoding: 36 36 3
Width: 504
Flags: HW
LayerCount: 2
Back
SplineSet
417.416992188 536 m 0
 417.416992188 536 384.556640625 592 296.556640625 592 c 0
 221.556640625 592 155.20703125 545 144.665039062 492 c 0
 136.39453125 450.420898438 148.614257812 390.134765625 254.38671875 380 c 0
 370.365234375 368.887695312 381.690429688 316.170898438 371.313476562 264 c 0
 358.583007812 200 298.943359375 144 207.443359375 144 c 0
 123.443359375 144 81.765625 216 81.765625 216 c 1024
319.65234375 688 m 1
 192.34765625 48 l 1025
EndSplineSet
Fore
SplineSet
281.733126292 180.533747416 m 0
 277.801647154 178.568007847 272.779514187 177.609347674 268.11563061 178.173955149 c 0
 254.420035126 179.831937271 244.746310457 193.221502079 247.47369834 206.744800335 c 2
 271.47369834 325.744800335 l 2
 273.335927075 334.978351146 283.395793171 344.939893236 295.471964775 344.939893236 c 0
 297.98007268 344.939893236 300.57515474 344.510198082 303.201833514 343.555042164 c 0
 318.875297853 337.855600586 328.741218321 328.199907176 332.970562748 323.970562748 c 0
 345.002303245 311.938822252 348.913025833 297.437918848 348.913025833 282.235076114 c 0
 348.913025833 274.824196709 347.983745179 267.246519832 346.612877842 259.706749483 c 0
 341.462685117 231.380689492 325.331376574 207.462442245 301.552413974 191.19262573 c 0
 301.274165157 191.00224496 300.737807027 190.654115121 300.34789813 190.420169783 c 0
 294.163040724 186.709255339 287.750561975 183.542465257 281.733126292 180.533747416 c 0
232.573037402 558.471900262 m 0
 234.683709285 559.263402218 240.001152501 560.274535803 243.751286662 559.841778912 c 0
 257.45592634 558.260294892 267.204263673 544.924954104 264.552428504 531.386637716 c 2
 245.552428504 434.386637716 l 2
 245.523049199 434.236648634 244.921979463 431.775724461 244.477636422 430.588349694 c 0
 240.880660923 420.9765013 231.497542164 415.05613852 221.780984264 415.05613852 c 0
 218.436280257 415.05613852 215.052066245 415.757656514 211.850748832 417.25160464 c 0
 193.993620843 425.584931035 182.010663193 436.107792922 175.162164589 448.092665479 c 0
 175.006616801 448.364874108 174.722968055 448.888432431 174.533747416 449.266873708 c 0
 169.430026247 459.474316045 167.708492207 470.081279644 167.708492207 479.638694697 c 0
 167.708492207 485.758753724 168.414396694 491.448451798 169.390167599 496.327306322 c 0
 171.445973992 508.66214468 178.64288084 519.323792318 186.938159327 528.804110589 c 0
 187.18638654 529.087798832 187.670366699 529.611492196 188.029437252 529.970562748 c 0
 198.111153281 540.052278778 212.853622245 551.077119578 232.573037402 558.471900262 c 0
488.591122064 531.587092702 m 0
 481.333602415 493.847990526 446.543482053 464 408 464 c 0
 385.367891623 464 366.679839277 474.632277935 354.366857391 492.120822769 c 0
 354.246580489 492.276579921 353.434830118 493.33752235 353.261147761 493.560990805 c 2
 341.956521659 438.020871259 l 1
 368.775820192 429.041809886 391.082268453 415.858857044 408.970562748 397.970562748 c 0
 438.203609327 368.73751617 446.700584142 332.737731483 446.700584142 300.397877391 c 0
 446.700584142 285.603175693 444.922302092 271.574439414 442.537538941 259.30994321 c 0
 431.244533905 203.974218536 397.749286894 150.655114392 344.312804709 115.030792936 c 0
 322.224459959 100.305229769 297.359278697 88.5959065448 271.416788338 81.271126913 c 1
 263.53494678 43.2949812266 l 2
 256.381155404 6.09526606813 221.526532241 -24 183 -24 c 0
 146.480047374 -24 119.211758722 4.8012423596 119.211758722 39.6896976114 c 0
 119.211758722 43.9511188739 119.618579699 48.3033564661 120.46505322 52.7050187734 c 2
 127.044243687 84.4047546612 l 1
 103.283553598 93.1608963928 86.1092825268 103.703346926 71.5102823329 114.86728825 c 0
 37.7933028188 140.155022886 21.1284913548 166.728238695 16.7444009499 175.727642475 c 0
 10.8395859923 186.639223992 8.81573015478 195.931969849 8.81573015478 205.016131464 c 0
 8.81573015478 210.130614358 9.45725477839 215.178979931 10.408877936 220.412907298 c 0
 17.6663975853 258.152009474 52.4565179468 288 91 288 c 0
 114.485305093 288 135.365153623 274.986432228 145.826706141 258.5468497 c 0
 147.449010479 255.982608306 151.261495481 250.282125084 158.589324212 242.851227982 c 1
 174.216895102 322.146680276 l 1
 133.425801488 336.56481103 104.850495256 359.877649361 86.9680550289 391.434896821 c 0
 74.3316526784 415.128151228 69.9991309863 438.911809084 69.9991309863 461.011091937 c 0
 69.9991309863 473.527459575 71.3888948234 485.503522137 73.4469171812 496.616842869 c 0
 80.6803835801 531.57859713 98.996292516 561.802378047 122.704661066 586.639716528 c 0
 154.532104624 619.461767697 195.978910238 644.230304625 240.700062338 656.001885373 c 1
 248.473718306 692.75007722 l 2
 255.611509507 729.866591466 290.476082282 760 329 760 c 0
 365.519952626 760 392.788241278 731.19875764 392.788241278 696.310302389 c 0
 392.788241278 692.048881126 392.381420301 687.696643534 391.53494678 683.294981227 c 2
 385.045523981 652.027762285 l 1
 450.897830357 628.994393783 477.224479103 586.375172577 481.741654712 578.104828697 c 0
 487.987872742 567.318522837 490.136560244 557.078159214 490.136560244 547.186807324 c 0
 490.136560244 541.897128927 489.522062221 536.707263565 488.591122064 531.587092702 c 0
441.408877936 540.412907298 m 0
 442.723652401 547.644166857 441.179735128 552.429314361 440.648040704 553.28002544 c 0
 440.436285501 553.618833765 440.015895511 554.337327897 439.734706915 554.874016869 c 0
 437.641437921 558.448437126 411.671630665 598.265296855 351.793669012 611.571510556 c 0
 340.656681284 614.046396717 330.705919102 626.411008936 333.500787901 639.877194964 c 2
 344.46505322 692.705018773 l 2
 346.688461382 704.266741219 340.019348226 712 329 712 c 0
 315.523917718 712 298.388490493 698.133408534 295.526281694 683.24992278 c 2
 284.480392875 631.032993815 l 2
 282.685185893 622.546560812 275.226548809 614.288176007 265.513734499 612.428275395 c 0
 223.719642089 604.425151316 185.93037093 582.890160218 157.295338934 553.360283472 c 0
 138.981270381 534.174116417 125.791259254 511.776688818 120.555154284 487.398060793 c 0
 119.014425503 478.861840967 118.041617738 470.090511899 118.041617738 461.213818811 c 0
 118.041617738 445.761750448 120.989416698 429.990408374 129.020712474 414.584173089 c 0
 142.188612535 391.744288817 166.502023964 372.165307849 207.581757117 362.3418934 c 0
 219.305781901 359.538322256 228.070115889 347.161486604 225.547064631 334.359337627 c 2
 198.547064631 197.359337627 l 2
 198.512227727 197.182572598 197.911559547 194.741769865 197.463224713 193.549938729 c 0
 193.854893503 183.957729605 184.482944259 178.056512937 174.780949316 178.056512937 c 0
 171.422935377 178.056512937 168.025383231 178.76345604 164.81358697 180.268985537 c 0
 127.222701253 197.889713217 108.418140754 227.853714362 105.656943669 232.264094741 c 0
 102.992958789 236.243606682 97.4180369136 240 91 240 c 0
 77.5434820532 240 60.3336024147 225.847990526 57.591122064 211.587092702 c 0
 56.3020989546 204.497465601 57.5429362745 201.014411395 58.3519592961 199.71997456 c 0
 58.8142452085 198.9803171 59.5446761127 197.658681312 60.1178598342 196.31749387 c 0
 61.9408768538 192.965899006 75.342238348 171.993321239 100.489717667 153.13271175 c 0
 115.503142561 141.651857419 135.412133296 130.417375643 160.631372794 124.329973006 c 0
 172.672759878 121.423431296 181.138154391 108.837708807 178.499212099 96.122805036 c 2
 167.53494678 43.2949812266 l 2
 165.311538618 31.7332587815 171.980651774 24 183 24 c 0
 196.473467759 24 213.618844596 37.9047339319 216.46505322 52.7050187734 c 2
 227.500787901 105.877194964 l 2
 229.206501635 114.095633866 236.484912515 122.505170139 246.137465503 124.502250068 c 0
 271.803331593 129.812429259 295.980609184 140.49814966 317.687195291 154.969207064 c 0
 360.250713106 183.344885608 386.755466095 226.025781464 395.462461059 268.69005679 c 0
 397.444955325 278.885741588 398.675320482 289.473871863 398.675320482 299.987751643 c 0
 398.675320482 323.427912052 392.559859933 346.49901457 375.029437252 364.029437252 c 0
 359.755233476 379.303641028 339.463731489 390.353123137 308.503055991 397.63798796 c 0
 296.366501697 400.493647794 287.895306801 413.077242479 290.482209305 425.786806956 c 2
 313.482209305 538.786806956 l 2
 315.114774302 546.807669767 325.011093448 557.932771764 337.578915771 557.932771764 c 0
 340.254009873 557.932771764 343.050139751 557.428735174 345.913376232 556.283440581 c 0
 350.79638404 554.330237458 356.436750579 552.473210423 364.257541456 547.03485638 c 0
 378.698414465 537.946681074 388.955934312 525.916811699 392.365357433 521.450479285 c 0
 392.798450435 520.933035705 393.707466233 519.734226698 394.247875706 518.885011813 c 0
 396.901661792 514.714776534 400.779219958 512 408 512 c 0
 421.456517947 512 438.666397585 526.152009474 441.408877936 540.412907298 c 0
EndSplineSet
EndChar

StartChar: percent
Encoding: 37 37 5
Width: 864
Flags: HW
LayerCount: 2
Back
SplineSet
712.217773438 168 m 0
 699.03515625 101.725585938 631.040039062 48 560.34765625 48 c 0
 489.655273438 48 443.03515625 101.725585938 456.217773438 168 c 0
 469.400390625 234.274414062 537.39453125 288 608.086914062 288 c 0
 678.779296875 288 725.400390625 234.274414062 712.217773438 168 c 0
407.782226562 568 m 0
 394.599609375 501.725585938 326.60546875 448 255.913085938 448 c 0
 185.220703125 448 138.599609375 501.725585938 151.782226562 568 c 0
 164.96484375 634.274414062 232.959960938 688 303.65234375 688 c 0
 374.344726562 688 420.96484375 634.274414062 407.782226562 568 c 0
192.34765625 48 m 1
 671.65234375 688 l 1025
EndSplineSet
Fore
SplineSet
183 -24 m 0
 146.446671716 -24 119.195111263 4.95499040283 119.195111263 39.6752530501 c 0
 119.195111263 43.8898240435 119.596654318 48.1893444854 120.431845272 52.5323374476 c 0
 120.511015012 52.9440200916 120.641244797 53.5195142033 120.716579997 53.8208550009 c 0
 123.656221515 65.5794210737 128.797342429 75.6074406824 135.625599778 85.1670009715 c 2
 391.450725443 426.979277434 l 1
 349.553474615 395.019461814 297.812789765 376 246 376 c 0
 232.719348297 376 219.832921724 377.263724958 207.482102557 379.719361347 c 0
 130.523390809 395.020582295 76.7804259058 457.155864357 76.7804259058 536.279633355 c 0
 76.7804259058 548.077307842 77.97524047 560.252670676 80.4660637834 572.706787243 c 0
 101.922017486 679.986555756 206.724397638 760 313 760 c 0
 326.280682103 760 339.178313644 758.736303203 351.548864325 756.282863428 c 0
 428.644958913 740.992466921 483.188348127 678.818491124 483.188348127 599.416677922 c 0
 483.188348127 587.717888886 482.004317055 575.645116951 479.533936217 563.293212757 c 0
 477.501417009 553.130616718 474.713660127 543.214634554 471.241856315 533.589556677 c 2
 614.715481008 725.287092803 l 2
 629.732185592 745.764417235 654.267828304 760 681 760 c 0
 717.553328284 760 744.804888737 731.045009597 744.804888737 696.32474695 c 0
 744.804888737 692.110175957 744.403345682 687.810655515 743.568154728 683.467662552 c 0
 743.488984988 683.055979908 743.358755203 682.480485797 743.283420003 682.179144999 c 0
 740.343778485 670.420578926 735.202657571 660.392559318 728.374400222 650.832999028 c 2
 472.549274557 309.020722566 l 1
 514.446525385 340.980538186 566.187210235 360 618 360 c 0
 631.280651703 360 644.167078276 358.736275042 656.517897443 356.280638653 c 0
 733.476609191 340.979417705 787.219574094 278.844135643 787.219574094 199.720366645 c 0
 787.219574094 187.922692158 786.02475953 175.747329324 783.533936217 163.293212757 c 0
 762.077982514 56.0134442443 657.275602362 -24 551 -24 c 0
 537.719317897 -24 524.821686356 -22.7363032026 512.451135675 -20.2828634281 c 0
 435.355041087 -4.99246692114 380.811651873 57.1815088765 380.811651873 136.583322078 c 0
 380.811651873 148.282111114 381.995682945 160.354883049 384.466063783 172.706787243 c 0
 386.498582991 182.869383282 389.286339873 192.785365446 392.758143685 202.410443323 c 2
 249.284518992 10.7129071973 l 2
 234.267814408 -9.76441723546 209.732171696 -24 183 -24 c 0
183 24 m 0
 192.267828304 24 203.732185592 29.7644172355 210.715481008 39.2870928027 c 2
 689.646331424 679.194700874 l 2
 692.574937871 683.40945524 695.107420545 688.189271776 696.545098152 693.156517503 c 0
 698.260791848 704.432251241 692.099317421 712 681 712 c 0
 671.732171696 712 660.267814408 706.235582765 653.284518992 696.712907197 c 2
 174.353668576 56.8052991256 l 2
 171.425062129 52.5905447603 168.892579455 47.810728224 167.454901848 42.8434824975 c 0
 165.739208152 31.5677487592 171.900682579 24 183 24 c 0
432.466063783 572.706787243 m 0
 434.365029618 582.201616415 435.277894011 591.388944332 435.277894011 600.210052342 c 0
 435.277894011 656.696563693 397.845337035 698.166006113 342.210948574 709.199922468 c 0
 332.999534397 711.026813647 323.237233206 712 313 712 c 0
 229.275602362 712 144.077982514 646.013444244 127.533936217 563.293212757 c 0
 125.605929036 553.653176856 124.679027659 544.335195232 124.679027659 535.398918294 c 0
 124.679027659 478.980457399 161.62463054 437.776462749 216.842425549 426.797852757 c 0
 226.01987247 424.973158192 235.762736393 424 246 424 c 0
 329.824095124 424 415.950981174 490.131374198 432.466063783 572.706787243 c 0
336.418314103 572.461400035 m 0
 336.904314969 575.030261753 337.128435273 577.436765134 337.128435273 579.910026222 c 0
 337.128435273 598.384963843 324.204119607 616 294 616 c 0
 258.240014506 616 228.195388997 587.92531635 223.581685897 563.538599965 c 0
 223.071094414 560.83975927 222.837950789 558.357842467 222.837950789 555.733615754 c 0
 222.837950789 537.049526413 235.290579362 520 265 520 c 0
 300.97972203 520 331.86868927 548.41338306 336.418314103 572.461400035 c 0
383.581685897 563.538599965 m 0
 374.13131073 513.58661694 323.02027797 472 265 472 c 0
 211.184826886 472 174.838251853 510.225702091 174.838251853 555.785129603 c 0
 174.838251853 561.498822334 175.362654831 566.881486737 176.418314103 572.461400035 c 0
 185.804611003 622.07468365 235.759985494 664 294 664 c 0
 347.619218407 664 385.128350784 625.947440967 385.128350784 579.888437404 c 0
 385.128350784 574.341291377 384.615677967 569.003986622 383.581685897 563.538599965 c 0
736.466063783 172.706787243 m 0
 738.394070964 182.346823144 739.320972341 191.664804768 739.320972341 200.601081706 c 0
 739.320972341 257.019542601 702.37536946 298.223537251 647.157574451 309.202147243 c 0
 637.98012753 311.026841808 628.237263607 312 618 312 c 0
 534.175904876 312 448.049018826 245.868625802 431.533936217 163.293212757 c 0
 429.634970382 153.798383585 428.722105989 144.611055668 428.722105989 135.789947658 c 0
 428.722105989 79.3034363071 466.154662965 37.8339938868 521.789051426 26.8000775317 c 0
 531.000465603 24.9731863525 540.762766794 24 551 24 c 0
 634.724397638 24 719.922017486 89.9865557557 736.466063783 172.706787243 c 0
640.418314103 172.461400035 m 0
 640.928905586 175.16024073 641.162049211 177.642157533 641.162049211 180.266384246 c 0
 641.162049211 198.950473587 628.709420638 216 599 216 c 0
 563.02027797 216 532.13131073 187.58661694 527.581685897 163.538599965 c 0
 527.095685031 160.969738247 526.871564727 158.563234866 526.871564727 156.089973778 c 0
 526.871564727 137.615036157 539.795880393 120 570 120 c 0
 605.759985494 120 635.804611003 148.07468365 640.418314103 172.461400035 c 0
687.581685897 163.538599965 m 0
 678.195388997 113.92531635 628.240014506 72 570 72 c 0
 516.380781593 72 478.871649216 110.052559033 478.871649216 156.111562596 c 0
 478.871649216 161.658708623 479.384322033 166.996013378 480.418314103 172.461400035 c 0
 489.86868927 222.41338306 540.97972203 264 599 264 c 0
 652.815173114 264 689.161748147 225.774297909 689.161748147 180.214870397 c 0
 689.161748147 174.501177666 688.637345169 169.118513263 687.581685897 163.538599965 c 0
EndSplineSet
EndChar

StartChar: ampersand
Encoding: 38 38 6
Width: 784
Flags: HW
LayerCount: 2
Back
SplineSet
612.34765625 48 m 0
 660.086914062 288 525.150390625 414 309.150390625 414 c 0
 205.150390625 414 151.095703125 464 168.599609375 552 c 0
 181.330078125 616 253.243164062 696 405.243164062 696 c 0
 549.243164062 696 602.921875 624 588.599609375 552 c 0
 574.278320312 480 502.388671875 414.848632812 395.708007812 406.75 c 1024
668.795898438 372 m 0
 668.795898438 372 578.452148438 320 512.991210938 192 c 0
 447.530273438 64 343.928710938 40 250.756835938 40 c 0
 114.756835938 40 60.2607421875 128 79.3564453125 224 c 0
 103.2265625 344 229.73046875 409.096679688 309.150390625 414 c 1024
EndSplineSet
Fore
SplineSet
320 486 m 2
 349.725084632 486 379.032071805 483.906579679 406.702522637 479.239796228 c 1
 439.76163274 483.490600548 462.445243317 493.600097713 479.459232245 504.816815037 c 0
 503.234379942 521.787151853 513.9007262 538.880099325 517.466063783 556.706787243 c 0
 519.198836703 565.370651844 517.829416674 574.970023719 511.343951094 585.779133019 c 0
 507.534048603 592.310394431 499.269334503 600.410744834 482.109953332 608.132466361 c 0
 463.398367821 616.637732503 436.04959422 624 396 624 c 0
 339.800606267 624 303.175681057 610.947328343 280.337552115 597.413622303 c 0
 253.07317801 580.889759209 243.181897817 560.533020758 240.562289328 547.434978312 c 0
 238.074922221 534.169020408 238.470058018 523.385305346 239.470246976 518.031087579 c 0
 241.493662867 509.838515259 242.930604886 507.635495738 250.258831161 502.305876629 c 0
 260.875635321 494.343273509 282.4539296 486 318 486 c 2
 319 486 l 1
 320 486 l 2
320 438 m 2
 319 438 l 1
 318 438 l 2
 275.5460704 438 243.124364679 447.656726491 221.741168839 463.694123371 c 0
 207.043694274 474.383195782 196.817109743 489.392545267 192.53526628 507.947200273 c 0
 191.202247237 514.612295486 190.539379843 521.35489326 190.539379843 528.480178864 c 0
 190.539379843 537.101361369 191.509791001 546.282783439 193.437710672 556.565021688 c 0
 198.818102183 583.466979242 216.92682199 615.110240791 255.662447885 638.586377697 c 0
 286.824318943 657.052671657 332.199393733 672 396 672 c 0
 441.973325369 672 476.552945142 663.384397969 501.931270663 651.848795459 c 0
 524.689310423 641.607677567 542.473654445 627.676400343 552.656048906 610.220866981 c 0
 561.330212252 595.763928072 566.097762375 579.485477593 566.097762375 563.212780586 c 0
 566.097762375 557.884255398 565.58656309 552.556347123 564.533936217 547.293212757 c 0
 558.08193389 515.033201124 537.806607856 487.183777642 506.564477422 465.198574744 c 0
 481.82095493 448.702893083 449.511382102 435.56409225 408.579564232 431.139030858 c 0
 406.774736039 430.943914297 403.973363692 430.982249078 401.781024676 431.373738188 c 0
 375.426008987 436.07999099 348.940939078 438 320 438 c 2
487.829390089 284.263991822 m 1
 446.998861129 320.345705025 384.329200677 341.61086216 302.194004261 341.999593012 c 0
 284.565305258 340.10003772 259.729634216 332.973458348 236.271273478 320.809863891 c 0
 215.609167154 309.539624078 195.916695067 296.656498214 182.673751442 281.758186636 c 0
 166.004228189 264.211320054 155.722428153 245.235672439 150.533936217 219.293212757 c 0
 149.002301948 211.635041414 148.260430469 204.318629925 148.260430469 197.36506348 c 0
 148.260430469 173.988985539 156.644536281 154.713525201 171.593261449 140.339751001 c 0
 187.487179465 125.202686224 213.757991576 112 260 112 c 0
 296.459505055 112 330.201117614 115.955328089 358.110313715 127.293439006 c 0
 397.973909074 142.892237189 424.215990237 169.974760807 448.764584683 217.183596281 c 0
 461.539644996 241.136834368 474.879231593 264.698619954 487.829390089 284.263991822 c 1
535.970562748 303.970562748 m 0
 540.459326688 299.481798809 542.880013371 293.206184313 542.880013371 286.865533039 c 0
 542.880013371 281.922888685 541.409091625 276.940724963 538.300227395 272.734614534 c 0
 522.590928155 251.480856738 506.887812891 224.16464917 491.235415317 194.816403719 c 0
 463.784009763 142.025239193 428.026090926 103.107762811 375.889686285 82.7065609945 c 0
 339.798882386 68.0446719107 299.540494945 64 260 64 c 0
 204.242008424 64 164.512820535 80.7973137763 138.406738551 105.660248999 c 0
 113.046471694 130.045120977 100.360237999 162.747709846 100.360237999 198.003345216 c 0
 100.360237999 208.07429027 101.395418466 218.353560657 103.466063783 228.706787243 c 0
 110.286828885 262.810612752 124.810093449 290.255070029 147.309278182 314.225102814 c 0
 166.324584332 335.281812769 190.279988158 350.399915183 213.728726522 363.190136109 c 0
 243.779271696 378.771900273 273.867494601 387.524549706 298.724581777 389.891891342 c 0
 299.264183098 389.943281944 300.274256004 390 301 390 c 0
 391.658626893 390 467.371812651 366.398702171 519.403848789 320.418278866 c 0
 527.335914533 313.599485507 532.222449545 307.718675952 535.970562748 303.970562748 c 0
660.518660713 547.214711353 m 0
 650.227087037 494.821245367 619.108868238 445.944310186 577.285851429 409.528740282 c 1
 583.156267168 405.260824903 587.173930842 402.019723268 591.038261429 398.649452054 c 1
 617.955003569 420.709710585 634.638663545 430.064185938 637.816833961 432.055064519 c 0
 638.353811194 432.406814429 638.977235689 432.775700203 639.344569652 432.979774627 c 0
 649.965355924 438.880211445 662.863371694 444 678 444 c 0
 714.588341544 444 741.822368983 414.883765379 741.822368983 380.340365573 c 0
 741.822368983 376.174704165 741.426319322 371.930118443 740.602864248 367.648152057 c 0
 736.168906809 342.522393237 719.011906964 323.866324415 700.577563308 312.162127393 c 0
 695.466199886 308.529084633 693.282634252 307.926259749 685.568408095 301.926306071 c 0
 680.650539296 298.237904472 675.065186422 293.737608294 668.727286925 288.129251185 c 1
 685.62387041 246.161163661 694.216929411 199.074867173 694.216929411 147.593241907 c 0
 694.216929411 114.611805688 690.690116493 79.8264132388 683.560361278 43.4271366133 c 0
 676.359641755 5.98339509531 641.534200577 -24 603 -24 c 0
 566.478628893 -24 539.211051502 4.80777762579 539.211051502 39.6890925159 c 0
 539.211051502 43.9485180972 539.617647339 48.2985081953 540.463639442 52.6976671315 c 0
 545.522157075 77.147169022 548.223064225 99.6081007467 549.030347403 119.572535599 c 1
 535.732760462 100.01238936 522.327986391 83.3868608945 506.970562748 68.0294372515 c 0
 472.454614589 33.5134890924 433.76679935 9.85792866566 395.837840014 -5.31365506874 c 0
 340.932488621 -26.845165419 287.793270548 -32 241 -32 c 0
 166.215164826 -32 105.72336234 -9.36944630887 63.4588025296 30.6105427015 c 0
 22.269481904 70.0090232998 2.66656965703 123.457168141 2.66656965703 179.768910449 c 0
 2.66656965703 195.897387353 4.27465605871 212.26077385 7.44422579138 228.596248626 c 0
 22.9226727739 307.923289411 72.7377242531 369.463374361 125.62058995 410.454400847 c 1
 104.687232347 437.278140338 92.938674989 471.467048388 92.938674989 511.7338833 c 0
 92.938674989 525.948914919 94.4028237803 540.921400325 97.4439132559 556.594707623 c 0
 108.893071132 614.985412791 149.218299601 675.250684602 216.468307369 716.468431298 c 0
 269.565449682 748.976885775 336.155122762 768 415 768 c 0
 518.324058365 768 598.226656036 735.448645967 638.238971055 671.899675055 c 0
 655.284167868 645.479619994 664.242218097 614.596780925 664.242218097 582.763638963 c 0
 664.242218097 570.984791079 663.015739122 559.075833798 660.518660713 547.214711353 c 0
613.481339287 556.785288647 m 0
 615.33329564 565.582081322 616.240873849 574.321734039 616.240873849 582.905643815 c 0
 616.240873849 605.680820079 609.851809455 627.359615155 597.761028945 646.100324945 c 0
 569.773343964 690.551354033 509.675941635 720 415 720 c 0
 343.844877238 720 286.434550318 703.023114225 241.531692631 675.531568702 c 0
 184.776265784 640.745984506 153.111350083 591.037135405 144.551529992 547.382052943 c 0
 141.984966253 534.154378286 140.793349147 521.997225239 140.793349147 510.824491566 c 0
 140.793349147 471.176102643 155.799486785 443.924592324 177.618992963 425.222158457 c 2
 177.618992963 425.222158457 179.964581564 422.990370168 180.921212646 421.764406931 c 0
 184.288835789 417.448655279 185.900531727 412.278569432 185.900531727 407.136396508 c 0
 185.900531727 399.319668686 182.176273918 391.567441197 175.23439233 386.978739808 c 0
 119.831910089 350.356760022 68.9256928905 293.049584618 54.5557742086 219.403751374 c 0
 51.9198265892 205.818482874 50.6143542236 192.462310219 50.6143542236 179.494829307 c 0
 50.6143542236 134.589390522 66.2693998265 94.3450898275 96.5411974704 65.3894572985 c 0
 128.27663766 35.3694463089 175.784835174 16 241 16 c 0
 284.206729452 16 331.067511379 20.845165419 378.162159986 39.3136550687 c 0
 410.23320065 52.1420713343 443.545385411 72.4865109076 473.029437252 101.970562748 c 0
 495.658373732 124.599499229 516.753274644 155.056223377 534.651679619 188.968990698 c 0
 538.304555249 196.274741959 542.537022432 202.739676324 544.533747416 206.733126292 c 0
 547.064771982 211.795175424 552.359060152 216.778174939 558.501238038 218.798433478 c 0
 560.917451302 219.593163876 563.379097057 219.968761204 565.807773879 219.968761204 c 0
 576.551603994 219.968761204 586.650249947 212.618524876 589.316488131 201.686948325 c 0
 594.582173341 180.097638961 597.254242532 156.755400456 597.254242532 131.703824792 c 0
 597.254242532 104.267792516 594.049300224 74.7815412574 587.536360558 43.3023328685 c 0
 585.310356538 31.727111968 591.98106716 24 603 24 c 0
 616.463447899 24 633.646955485 38.0509105531 636.431845272 52.5323374476 c 0
 643.055104651 86.3458195405 646.219850441 118.061814014 646.219850441 147.629618539 c 0
 646.219850441 199.799024447 636.367667756 245.280891696 618.276897716 283.796724685 c 0
 614.693776824 291.425304649 615.523569058 303.464694555 623.029437252 310.970562748 c 0
 635.876650438 323.817775935 648.052627513 333.789470634 656.431591905 340.073693929 c 0
 663.445231452 345.52874691 668.722849057 348.766910449 672.442681457 351.081067905 c 0
 672.786071875 351.341878218 673.943171011 352.154471702 674.65210187 352.579830217 c 0
 685.44723883 359.056912393 691.889289687 367.807386908 693.397135752 376.351847943 c 0
 695.745248154 388.562032432 688.999393212 396 678 396 c 0
 673.214225422 396 670.421531473 395.249724646 663.273250244 391.360694348 c 0
 658.409221373 388.342698482 636.36467528 375.714645715 606.144147056 348.241438238 c 0
 601.825486272 344.31538298 595.909776863 342.197849815 589.913718864 342.197849815 c 0
 583.843389063 342.197849815 577.690707824 344.368166679 573.029437252 349.029437252 c 0
 567.64561607 354.413258433 564.324799415 358.405164128 562.007318859 360.259148573 c 0
 561.710098839 360.496924589 561.160540139 360.961863681 560.782608916 361.308300635 c 0
 551.275635729 370.023026056 537.451124459 378.535733744 523.021817808 387.811716591 c 0
 522.415773481 388.201316516 518.808761826 391.072112942 517.266005988 392.998751107 c 0
 513.775652205 397.357605981 512.10112719 402.628364376 512.10112719 407.872704501 c 0
 512.10112719 415.584568537 515.722128377 423.239305578 522.514807146 427.853200591 c 0
 571.093405806 460.849984586 603.844249506 507.723740671 613.481339287 556.785288647 c 0
EndSplineSet
EndChar

StartChar: quotesingle
Encoding: 39 39 7
Width: 224
Flags: HW
LayerCount: 2
Back
SplineSet
175.65234375 688 m 1
 134.278320312 480 l 1025
EndSplineSet
Fore
SplineSet
104.452820397 692.641408095 m 2
 111.629199814 729.958581063 146.46977674 760 185 760 c 0
 221.532233307 760 248.79436503 731.142180383 248.79436503 696.315566988 c 0
 248.79436503 692.071410294 248.389490794 687.738610098 247.547179603 683.358591905 c 2
 205.547179603 475.358591905 l 2
 198.370800186 438.041418937 163.53022326 408 125 408 c 0
 88.467766693 408 61.2056349701 436.857819617 61.2056349701 471.684433012 c 0
 61.2056349701 475.928589706 61.610509206 480.261389902 62.452820397 484.641408095 c 2
 104.452820397 692.641408095 l 2
151.547179603 683.358591905 m 2
 109.547179603 475.358591905 l 2
 107.301310579 463.680072978 113.984245933 456 125 456 c 0
 138.46977674 456 155.629199814 469.958581063 158.452820397 484.641408095 c 2
 200.452820397 692.641408095 l 2
 202.698689421 704.319927022 196.015754067 712 185 712 c 0
 171.53022326 712 154.370800186 698.041418937 151.547179603 683.358591905 c 2
EndSplineSet
EndChar

StartChar: parenleft
Encoding: 40 40 8
Width: 344
Flags: HW
LayerCount: 2
Back
SplineSet
311.565429688 768 m 0
 311.565429688 768 158.147460938 600 112 368 c 0
 65.8525390625 136 152.434570312 -32 152.434570312 -32 c 1024
EndSplineSet
Fore
SplineSet
321 840 m 0
 357.536442343 840 384.796464328 811.122790688 384.796464328 776.317384839 c 0
 384.796464328 772.079138414 384.392256047 767.752989415 383.551368523 763.380374288 c 0
 380.301563273 747.131348041 372.287865164 734.739917401 362.823689014 723.923716086 c 0
 362.157337457 723.206951849 323.193401626 681.248523561 276.747647102 600.93607303 c 0
 239.607444627 537.406779323 201.852679849 455.8508271 183.54332138 363.34038431 c 0
 174.817640771 319.252734915 171.340526909 277.843976843 171.340526909 239.795289142 c 0
 171.340526909 197.930833592 175.550026216 160.134180955 181.609378572 127.312689026 c 0
 195.812932678 48.7196896403 217.762052066 8.06787708422 218.323590273 7.01845091375 c 0
 223.036501549 -2.40737163807 225.055647787 -12.1716725516 225.055647787 -21.8481884986 c 0
 225.055647787 -26.8143295062 224.523823907 -31.75734879 223.551368523 -36.6196257122 c 0
 216.36725422 -73.9770200873 181.531487186 -104 143 -104 c 0
 118.957786925 -104 96.9636355179 -91.5929024958 86.533747416 -70.733126292 c 0
 84.8563352199 -67.3783018998 55.9657387453 -9.39207609054 38.3895176567 84.6924015011 c 0
 31.2158972821 124.97503899 25.8094830067 171.774816362 25.8094830067 224.134624357 c 0
 25.8094830067 269.652745486 29.8953279846 319.372805653 40.4579417958 372.665993518 c 0
 63.1707936399 487.262655095 109.372374384 584.534812694 152.229040863 659.023780623 c 0
 206.462149169 752.141004317 257.228668032 809.072767197 260.338938785 812.265185524 c 0
 277.086522667 829.970543359 297.183881669 840 321 840 c 0
321 792 m 0
 312.840101068 792 302.876997065 787.62712566 295.463551606 779.539730614 c 0
 291.475596093 775.197336771 243.846988911 720.955817669 193.770959137 634.976219377 c 0
 152.627625616 563.465187306 108.82920636 470.737344905 87.5420582042 363.334006482 c 0
 77.6408563036 313.377942347 73.8086132583 266.770531393 73.8086132583 224.090170128 c 0
 73.8086132583 175.00967401 78.8763583204 131.122294935 85.6104823433 93.3075984989 c 0
 102.034261255 5.39207609054 129.14366478 -48.6216981002 129.466252584 -49.266873708 c 0
 131.036364482 -52.4070975042 135.042213075 -56 143 -56 c 0
 156.468512814 -56 173.63274578 -42.0229799127 176.448631477 -27.3803742878 c 0
 177.5649439 -21.7988121727 176.782207946 -17.4022115559 175.633782203 -14.9390363426 c 0
 172.71430603 -9.40232783254 149.214016757 36.6645234856 134.382582679 118.73179205 c 0
 127.878273266 153.963468042 123.359977377 194.696656773 123.359977377 239.786629486 c 0
 123.359977377 280.765516574 127.091920724 325.342944216 136.45667862 372.65961569 c 0
 156.147320151 472.1491729 196.392555373 558.593220677 235.252352898 625.06392697 c 0
 282.418398224 706.621880345 323.209158298 751.757339969 327.155371678 756.051915701 c 0
 331.691177026 761.365086928 335.68572686 768.805102628 336.448631477 772.619625712 c 0
 338.702191837 784.338139586 332.014523309 792 321 792 c 0
EndSplineSet
EndChar

StartChar: parenright
Encoding: 41 41 9
Width: 344
Flags: HW
LayerCount: 2
Back
SplineSet
159.565429688 768 m 0
 159.565429688 768 246.147460938 600 200 368 c 0
 153.852539062 136 0.4345703125 -32 0.4345703125 -32 c 1024
EndSplineSet
Fore
SplineSet
88.4486314772 772.619625712 m 0
 95.6327457801 809.977020087 130.468512814 840 169 840 c 0
 193.042213075 840 215.036364482 827.592902496 225.466252584 806.733126292 c 0
 227.14366478 803.3783019 256.034261255 745.392076091 273.610482343 651.307598499 c 0
 280.784102718 611.02496101 286.190516993 564.225183638 286.190516993 511.865375643 c 0
 286.190516993 466.347254514 282.104672015 416.627194347 271.542058204 363.334006482 c 0
 248.82920636 248.737344905 202.627625616 151.465187306 159.770959137 76.9762193774 c 0
 105.537850831 -16.1410043169 54.7713319679 -73.0727671966 51.6610612154 -76.2651855245 c 0
 34.9134773329 -93.9705433593 14.8161183315 -104 -9 -104 c 0
 -45.5364423426 -104 -72.7964643275 -75.1227906879 -72.7964643275 -40.3173848387 c 0
 -72.7964643275 -36.0791384143 -72.3922560472 -31.7529894148 -71.5513685228 -27.3803742878 c 0
 -68.3015632734 -11.1313480405 -60.2878651644 1.26008259868 -50.8236890138 12.0762839137 c 0
 -50.1573374571 12.7930481512 -11.1934016256 54.7514764392 35.2523528982 135.06392697 c 0
 72.392555373 198.593220677 110.147320151 280.1491729 128.45667862 372.65961569 c 0
 137.182359229 416.747265085 140.659473091 458.156023157 140.659473091 496.204710858 c 0
 140.659473091 538.069166408 136.449973784 575.865819045 130.390621428 608.687310974 c 0
 116.187067322 687.28031036 94.2379479345 727.932122916 93.6764097269 728.981549086 c 0
 88.9575236936 738.419321153 86.9253794874 748.093279565 86.9253794874 757.755642705 c 0
 86.9253794874 762.724603188 87.4628057658 767.690497155 88.4486314772 772.619625712 c 0
135.551368523 763.380374288 m 0
 134.463326473 757.940164038 135.23156919 753.372661976 136.366217797 750.939036343 c 0
 139.28569397 745.402327833 162.785983243 699.335476514 177.617417321 617.26820795 c 0
 184.121726734 582.036531958 188.640022623 541.303343227 188.640022623 496.213370514 c 0
 188.640022623 455.234483426 184.908079276 410.657055784 175.54332138 363.34038431 c 0
 155.852679849 263.8508271 115.607444627 177.406779323 76.7476471018 110.93607303 c 0
 29.5816017763 29.3781196547 -11.2091582981 -15.7573399691 -15.1553716783 -20.0519157012 c 0
 -19.6911770259 -25.3650869279 -23.6857268604 -32.8051026284 -24.4486314772 -36.6196257122 c 0
 -26.7021918375 -48.3381395857 -20.0145233094 -56 -9 -56 c 0
 -0.840101067926 -56 9.1230029349 -51.6271256596 16.5364483935 -43.5397306138 c 0
 20.5244039072 -39.1973367715 68.153011089 15.044182331 118.229040863 101.023780623 c 0
 159.372374384 172.534812694 203.17079364 265.262655095 224.457941796 372.665993518 c 0
 234.359143696 422.622057653 238.191386742 469.229468607 238.191386742 511.909829872 c 0
 238.191386742 560.99032599 233.12364168 604.877705065 226.389517657 642.692401501 c 0
 209.965738745 730.607923909 182.85633522 784.6216981 182.533747416 785.266873708 c 0
 180.963635518 788.407097504 176.957786925 792 169 792 c 0
 155.531487186 792 138.36725422 778.022979913 135.551368523 763.380374288 c 0
EndSplineSet
EndChar

StartChar: asterisk
Encoding: 42 42 10
Width: 512
Flags: HW
LayerCount: 2
Back
SplineSet
390.997070312 684.708007812 m 1
 197.384765625 435.291992188 l 1025
246.997070312 684.708007812 m 1
 341.384765625 435.291992188 l 1025
150.19140625 560 m 1
 438.19140625 560 l 1025
EndSplineSet
Fore
SplineSet
401 757 m 0
 437.90245455 757 463.786019885 727.918880324 463.786019885 693.467053386 c 0
 463.786019885 689.091691256 463.368547655 684.629705777 462.503155062 680.129664291 c 0
 459.46663424 666.465320592 454.440080547 656.724951484 447.263299557 646.677458098 c 2
 435.909039519 632 l 1
 448 632 l 2
 484.970187716 632 510.81769503 602.614957562 510.81769503 568.487464385 c 0
 510.81769503 564.205953568 510.410873451 559.849799914 509.568154728 555.467662552 c 0
 502.353044515 517.949089447 467.536552101 488 429 488 c 2
 402.708544673 488 l 1
 409.927773388 468.869043906 l 2
 413.42155549 459.911925828 414.645476828 452.758580653 414.645476828 446.311229093 c 0
 414.645476828 440.618886963 413.69142319 435.476870867 412.503155062 430.129664291 c 0
 405.408067439 393.235208653 370.516939701 363 332 363 c 0
 305.007604584 363 281.028951103 378.761806924 272.47008931 402.726619944 c 2
 267.707056701 415.348656358 l 1
 252.927569535 396.243465631 l 2
 238.084726906 377.352575011 214.99300378 363 188 363 c 0
 151.511887904 363 124.227626532 391.654524459 124.227626532 426.703074551 c 0
 124.227626532 431.009398202 124.639520491 435.412248583 125.496844938 439.870335709 c 0
 128.455613881 453.18479595 134.702588622 464.876969148 142.424931323 474.21220621 c 2
 153.090960481 488 l 1
 141 488 l 2
 104.446671716 488 77.1951112626 516.954990403 77.1951112626 551.67525305 c 0
 77.1951112626 555.889824043 77.5966543182 560.189344485 78.4318452725 564.532337448 c 0
 85.7499766112 602.586620409 121.820676109 632 160 632 c 2
 186.291455327 632 l 1
 178.818945906 651.802149965 l 2
 175.466969778 660.163195267 173.883714807 667.967483099 173.883714807 675.816650335 c 0
 173.883714807 680.444507047 174.434095896 685.087965022 175.496844938 689.870335709 c 0
 182.695008702 727.300787281 218.840228689 757 257 757 c 0
 284.477104769 757 307.268643714 740.404927587 315.52991069 717.273380056 c 2
 320.292943299 704.651343642 l 1
 335.072430465 723.756534369 l 2
 350.301857878 743.139441986 374.267721084 757 401 757 c 0
401 709 m 0
 391.732278916 709 379.698142122 702.860558014 372.927569535 694.243465631 c 2
 331.982960358 641.315068402 l 2
 330.629354817 639.56528563 326.619533633 635.882595339 323.208964831 634.279570974 c 0
 319.990817989 632.766988147 316.585165198 632.056740326 313.219066816 632.056740326 c 0
 303.525912884 632.056740326 294.160757184 637.94635008 290.545558745 647.526625942 c 2
 270.47008931 700.726619944 l 2
 268.731356286 705.595072413 265.522895231 709 257 709 c 0
 243.159771311 709 225.304991298 694.699212719 222.503155062 680.129664291 c 0
 221.351674737 674.948002828 221.6770423 673.679752814 223.2677638 669.968069313 c 2
 243.454441255 616.473374058 l 2
 243.758030523 615.668862497 244.998331894 610.656628705 244.998331894 608.044917584 c 0
 244.998331894 595.067208887 234.177423954 584 221 584 c 2
 160 584 l 2
 146.179323891 584 128.250023389 569.413379591 125.568154728 555.467662552 c 0
 123.283772975 543.58887744 129.990408691 536 141 536 c 2
 202 536 l 2
 206.115742155 536 211.24049563 534.637545849 215.150317435 532.076582163 c 0
 222.142007693 527.496970676 225.901109906 519.712350288 225.901109906 511.860651747 c 0
 225.901109906 506.752494098 224.310053835 501.615945335 220.982960358 497.315068402 c 2
 179.982960358 444.315068402 l 2
 179.809613106 444.090985369 179.471169595 443.671520032 179.222158457 443.381007037 c 0
 175.753978518 439.334797108 173.832023291 435.648195844 172.508958284 430.150632628 c 0
 170.559366872 418.829815628 176.803482736 411 188 411 c 0
 197.00699622 411 207.915273094 416.647424989 215.072430465 425.756534369 c 2
 256.017039642 478.684931598 l 2
 257.370645183 480.43471437 261.380466367 484.117404661 264.791035169 485.720429026 c 0
 268.009182011 487.233011853 271.414834802 487.943259674 274.780933184 487.943259674 c 0
 284.474087116 487.943259674 293.839242816 482.05364992 297.454441255 472.473374058 c 2
 317.52991069 419.273380056 l 2
 318.971048897 415.238193076 322.992395416 411 332 411 c 0
 345.483060299 411 362.591932561 424.764791347 365.496844938 439.870335709 c 0
 367.084621885 447.015331969 366.501524282 448.236925161 365.7322362 450.031930687 c 2
 345.545558745 503.526625942 l 2
 345.241969477 504.331137503 344.001668106 509.343371295 344.001668106 511.955082416 c 0
 344.001668106 524.932791113 354.822576046 536 368 536 c 2
 429 536 l 2
 442.463447899 536 459.646955485 550.050910553 462.431845272 564.532337448 c 0
 464.871900152 577.220622821 458.391667378 584 448 584 c 2
 387 584 l 2
 382.884257845 584 377.75950437 585.362454151 373.849682565 587.923417837 c 0
 366.857992307 592.503029324 363.098890094 600.287649712 363.098890094 608.139348253 c 0
 363.098890094 613.247505902 364.689946165 618.384054665 368.017039642 622.684931598 c 2
 408.719838647 675.300744946 l 2
 411.582752986 679.417421291 414.177968193 684.404976897 415.491678645 689.851232186 c 0
 417.588527785 701.980001688 411.58410907 709 401 709 c 0
EndSplineSet
EndChar

StartChar: plus
Encoding: 43 43 11
Width: 640
Flags: HW
LayerCount: 2
Back
SplineSet
536 368 m 1
 104 368 l 1025
362.96484375 584 m 1
 277.03515625 152 l 1025
EndSplineSet
Fore
SplineSet
546 440 m 2
 582.970187716 440 608.81769503 410.614957562 608.81769503 376.487464385 c 0
 608.81769503 372.205953568 608.410873451 367.849799914 607.568154728 363.467662552 c 0
 600.250023389 325.413379591 564.179323891 296 526 296 c 2
 377.744342412 296 l 1
 348.559156078 147.420869577 l 2
 341.257633227 109.452950749 305.176617003 80 267 80 c 0
 230.039219539 80 204.186707528 109.342843738 204.186707528 143.515470996 c 0
 204.186707528 147.809964174 204.594998562 152.180734556 205.440843922 156.579130423 c 2
 232.82708616 296 l 1
 94 296 l 2
 57.0298122836 296 31.1823049702 325.385042438 31.1823049702 359.512535615 c 0
 31.1823049702 363.794046432 31.5891265492 368.150200086 32.4318452725 372.532337448 c 0
 39.7499766112 410.586620409 75.820676109 440 114 440 c 2
 262.255657588 440 l 1
 291.440843922 588.579130423 l 2
 298.742366773 626.547049252 334.823382997 656 373 656 c 0
 409.960780461 656 435.813292472 626.657156262 435.813292472 592.484529004 c 0
 435.813292472 588.190035826 435.405001438 583.819265444 434.559156078 579.420869577 c 2
 407.17291384 440 l 1
 546 440 l 2
546 392 m 2
 378 392 l 2
 367.416818383 392 351.088250115 403.511380137 354.450028307 420.625887297 c 2
 387.450028307 588.625887297 l 2
 389.856975451 601.142012443 383.396802617 608 373 608 c 0
 359.179323891 608 341.250023389 593.413379591 338.568154728 579.467662552 c 2
 305.549971693 411.374112703 l 2
 303.674902606 401.828306445 294.061850934 392 282 392 c 2
 114 392 l 2
 100.179323891 392 82.2500233888 377.413379591 79.5681547275 363.467662552 c 0
 77.1280998481 350.779377179 83.6083326218 344 94 344 c 2
 262 344 l 2
 272.583181617 344 288.911749885 332.488619863 285.549971693 315.374112703 c 2
 252.549971693 147.374112703 l 2
 250.143024549 134.857987557 256.603197383 128 267 128 c 0
 280.820676109 128 298.749976611 142.586620409 301.431845272 156.532337448 c 2
 334.450028307 324.625887297 l 2
 336.325097394 334.171693555 345.938149066 344 358 344 c 2
 526 344 l 2
 539.820676109 344 557.749976611 358.586620409 560.431845272 372.532337448 c 0
 562.871900152 385.220622821 556.391667378 392 546 392 c 2
EndSplineSet
EndChar

StartChar: comma
Encoding: 44 44 12
Width: 296
Flags: HW
LayerCount: 2
Back
SplineSet
97.8955078125 96 m 0
 105.895507812 96 112.3046875 88.0009765625 110.712890625 79.9990234375 c 0
 107.530273438 64 88.34765625 48 72.34765625 48 c 0
 64.3486328125 48 57.939453125 56 59.5302734375 64 c 0
 62.712890625 80 81.8955078125 96 97.8955078125 96 c 0
 105.895507812 96 120.3046875 88 115.530273438 64 c 0
 107.57421875 24 57.6611328125 -56 57.6611328125 -56 c 1024
EndSplineSet
Fore
SplineSet
140.554977614 69.1343513684 m 0
 141.511422913 74.0830634206 141.952854926 78.6014612356 141.952854926 82.7208908683 c 0
 141.952854926 101.890155251 132.394117255 112.420190769 120.690979607 117.469548935 c 0
 116.477599575 118.786230195 110.824546082 120 107 120 c 0
 92.9486766287 120 78.6886562386 113.809960861 66.1224368934 104.594733341 c 0
 51.2873111046 93.8804758273 39.2430599193 79.309033474 35.5210628921 59.2102495267 c 0
 32.71016253 46.5611978977 35.068341145 41.896274761 38.5960290249 36.856720647 c 0
 42.4621314072 31.4441773118 46.7006289745 27.5685394845 49.9133762325 26.2834405812 c 0
 57.2927313569 23.3316985315 64.8179953293 13.7594619069 64.8179953293 3.16078826686 c 0
 64.8179953293 -0.4505289044 63.9443202141 -4.18101431759 61.8935081293 -7.80937416003 c 0
 48.5259128515 -31.4597350361 37.9000401227 -48.8247342284 37.2349064446 -49.9142556387 c 0
 34.786625359 -53.586677267 34.4267919701 -54.7180836943 33.7587878479 -59.3941125497 c 0
 33.7204202521 -59.6626857201 33.6373701367 -60.1724173201 33.5681547275 -60.5323374476 c 0
 31.1280998481 -73.2206228207 37.6083326218 -80 48 -80 c 0
 58.3530773032 -80 70.6453377881 -73.0969360046 77.8503162283 -61.9619693242 c 0
 77.9662760913 -61.7827586269 78.3307667511 -61.2314502947 78.8339761574 -60.5537856853 c 0
 81.3284139882 -56.7314707809 95.9959210321 -32.4921123728 109.602546681 -6.12927517865 c 0
 116.688666889 8.04296523715 124.338054434 22.4671137694 129.780223144 36.0725355453 c 0
 134.535679201 47.4856300827 137.539357508 56.3363221474 140.554977614 69.1343513684 c 0
187.451439221 58.8895907778 m 0
 183.999583598 43.9315497431 179.575776172 30.7818628121 174.219776856 17.9274644547 c 0
 167.661945566 1.53288623059 159.311333111 -14.0429652371 152.397453319 -27.8707248213 c 0
 136.007766934 -59.6257421921 121.410862892 -83.5998402806 117.592371993 -88.889583208 c 0
 102.38542195 -111.647570514 77.2419600554 -128 48 -128 c 0
 10.1907323241 -128 -14.7044842908 -97.7487893535 -14.7044842908 -63.9182296654 c 0
 -14.7044842908 -59.9982032351 -14.370231121 -56.0301190281 -13.6830850993 -52.0554717574 c 0
 -11.903930115 -40.9165898717 -8.83771965293 -32.9153017096 -3.00924439352 -23.7146645644 c 2
 -3.00924439352 -23.7146645644 2.74810808765 -14.2031752276 9.37477196532 -2.86855980145 c 1
 4.12523473739 2.56735152925 2.32085106921 5.0596472213 -0.596029024883 9.14327935303 c 0
 -8.49532943104 20.427994219 -13.3661197576 34.395139839 -13.3661197576 50.8105839489 c 0
 -13.3661197576 56.6710536827 -12.7453093114 62.8435732434 -11.4198592682 69.3174889267 c 0
 -4.50562779321 104.209206409 16.7444602168 128.142470127 37.8775631066 143.405266659 c 0
 55.3113437614 156.190039139 79.0513233713 168 107 168 c 0
 118.941896199 168 129.100451935 165.264737303 136.589466384 162.768399153 c 0
 137.014492004 162.626723947 137.60499395 162.406793494 137.913376232 162.283440581 c 0
 168.258792472 150.145274086 189.792980263 119.972414955 189.792980263 81.3660705882 c 0
 189.792980263 74.14781087 189.040186271 66.6347326486 187.451439221 58.8895907778 c 0
EndSplineSet
EndChar

StartChar: hyphen
Encoding: 45 45 13
Width: 416
Flags: HW
LayerCount: 2
Back
SplineSet
59.3134765625 264 m 1
 315.313476562 264 l 1025
EndSplineSet
Fore
SplineSet
50 192 m 2
 13.4466717158 192 -13.8048887374 220.954990403 -13.8048887374 255.67525305 c 0
 -13.8048887374 259.889824043 -13.4033456818 264.189344485 -12.5681547275 268.532337448 c 0
 -5.25002338881 306.586620409 30.820676109 336 69 336 c 2
 325 336 l 2
 361.970187716 336 387.81769503 306.614957562 387.81769503 272.487464385 c 0
 387.81769503 268.205953568 387.410873451 263.849799914 386.568154728 259.467662552 c 0
 379.353044515 221.949089447 344.536552101 192 306 192 c 2
 50 192 l 2
50 240 m 2
 306 240 l 2
 319.463447899 240 336.646955485 254.050910553 339.431845272 268.532337448 c 0
 341.871900152 281.220622821 335.391667378 288 325 288 c 2
 69 288 l 2
 55.179323891 288 37.2500233888 273.413379591 34.5681547275 259.467662552 c 0
 32.2837729752 247.58887744 38.9904086906 240 50 240 c 2
EndSplineSet
EndChar

StartChar: period
Encoding: 46 46 14
Width: 288
Flags: HW
LayerCount: 2
Back
SplineSet
107.838867188 72 m 0
 101.166015625 59.068359375 85.65625 48 72.34765625 48 c 0
 64.34765625 48 57.939453125 56 59.5302734375 64 c 0
 60.06640625 66.6923828125 61.0546875 69.3837890625 62.404296875 72 c 1024
62.404296875 72 m 0
 69.078125 84.931640625 84.587890625 96 97.8955078125 96 c 0
 105.895507812 96 112.3046875 88 110.712890625 80 c 0
 110.177734375 77.3076171875 109.189453125 74.6162109375 107.838867188 72 c 1024
EndSplineSet
Fore
SplineSet
37.5405759601 68.7969089956 m 0
 36.2039071653 65.558814374 36.3930487662 65.0457138787 35.6943658899 60.1549337442 c 0
 32.8736338473 44.6409075103 37.2071153836 37.7340101134 41.9705627485 32.9705627485 c 0
 47.1328300788 27.8082954182 52.6926156504 24 63 24 c 0
 75.67862176 24 87.0514418548 28.0581257983 97.6253604842 34.5651526472 c 0
 111.089758275 42.4853866417 120.414920207 51.4576536555 128.857231501 66.4968238945 c 0
 129.83313266 69.3508750245 129.771482359 69.2085961771 130.533747416 70.733126292 c 0
 133.070931964 75.8074953887 134.864596363 80.7578020278 135.241212152 83.3941125497 c 0
 135.30285268 83.8255962448 135.444387118 84.6342755174 135.571510556 85.2063309876 c 0
 137.984878804 96.0664881045 135.814625559 100.842344233 131.182055277 107.460301779 c 0
 126.344121091 114.717203057 120.189134298 120 107 120 c 0
 94.32137824 120 82.9485581452 115.941874202 72.3746395158 109.434847353 c 0
 58.9461998597 101.535765202 47.2113457026 87.1713715063 37.5405759601 68.7969089956 c 0
-6.94598098421 87.7736694916 m 0
 7.00102983441 113.296349893 27.7860164351 138.894950265 47.6253604842 150.565152647 c 0
 63.0514418548 160.058125798 83.67862176 168 107 168 c 0
 137.810865702 168 159.655878909 151.282796943 170.817944723 134.539698221 c 0
 178.167314825 124.040598075 184.152877195 108.515425265 184.152877195 90.9481231298 c 0
 184.152877195 85.990970066 183.676271226 80.8712105559 182.619213554 75.6558905185 c 0
 180.692246867 64.2856817315 177.918802696 58.599821989 174.247488994 50.8267647031 c 0
 172.730290577 46.3395995436 173.14330218 47.5420888141 172.238037337 45.822085612 c 0
 160.205985879 22.9611878409 142.46356581 5.25186282031 122.374639516 -6.56515264716 c 0
 106.948558145 -16.0581257983 86.32137824 -24 63 -24 c 0
 37.3073843496 -24 18.8671699212 -11.8082954182 8.02943725152 -0.970562748477 c 0
 -4.64260054258 11.7014750456 -12.9593170969 30.1734844205 -12.9593170969 52.5050096319 c 0
 -12.9593170969 57.5479415342 -12.5352043397 62.7876902803 -11.6413601849 68.2019099679 c 0
 -10.0922602383 78.0994719457 -11.2858203341 79.0939907918 -6.94598098421 87.7736694916 c 0
EndSplineSet
EndChar

StartChar: slash
Encoding: 47 47 15
Width: 576
Flags: HW
LayerCount: 2
Back
SplineSet
48.34765625 48 m 1
 527.65234375 688 l 1025
EndSplineSet
Fore
SplineSet
39 -24 m 0
 2.44667171582 -24 -24.8048887374 4.95499040283 -24.8048887374 39.6752530501 c 0
 -24.8048887374 43.8898240435 -24.4033456818 48.1893444854 -23.5681547275 52.5323374476 c 0
 -23.4889849883 52.9440200916 -23.3587552029 53.5195142033 -23.2834200035 53.8208550009 c 0
 -20.3437784853 65.5794210737 -15.202657571 75.6074406824 -8.37440022161 85.1670009715 c 2
 470.715481008 725.287092803 l 2
 485.732185592 745.764417235 510.267828304 760 537 760 c 0
 573.553328284 760 600.804888737 731.045009597 600.804888737 696.32474695 c 0
 600.804888737 692.110175957 600.403345682 687.810655515 599.568154728 683.467662552 c 0
 599.488984988 683.055979908 599.358755203 682.480485797 599.283420003 682.179144999 c 0
 596.343778485 670.420578926 591.202657571 660.392559318 584.374400222 650.832999028 c 2
 105.284518992 10.7129071973 l 2
 90.2678144077 -9.76441723546 65.7321716965 -24 39 -24 c 0
39 24 m 0
 48.2678283035 24 59.7321855923 29.7644172355 66.7154810082 39.2870928027 c 2
 545.646331424 679.194700874 l 2
 548.574937871 683.40945524 551.107420545 688.189271776 552.545098152 693.156517503 c 0
 554.260791848 704.432251241 548.099317421 712 537 712 c 0
 527.732171696 712 516.267814408 706.235582765 509.284518992 696.712907197 c 2
 30.3536685756 56.8052991256 l 2
 27.4250621292 52.5905447603 24.8925794546 47.810728224 23.4549018484 42.8434824975 c 0
 21.739208152 31.5677487592 27.9006825788 24 39 24 c 0
EndSplineSet
EndChar

StartChar: zero
Encoding: 48 48 16
Width: 672
Flags: HW
LayerCount: 2
Back
SplineSet
584 368 m 0
 547.966796875 186.850585938 407.723632812 40 270.756835938 40 c 0
 133.790039062 40 51.966796875 186.850585938 88 368 c 0
 124.033203125 549.149414062 264.276367188 696 401.243164062 696 c 0
 538.209960938 696 620.033203125 549.149414062 584 368 c 0
EndSplineSet
Fore
SplineSet
655.520234552 363.225215542 m 0
 627.35181874 224.469685802 547.466403617 99.1735097736 440.358292417 27.061118074 c 0
 386.169246206 -9.06491273319 323.930642648 -32 261 -32 c 0
 197.960325298 -32 142.951380126 -8.5224864548 101.760993056 29.3281395019 c 0
 39.4529384743 86.5841896578 6.36468936091 174.87128051 6.36468936091 274.78586472 c 0
 6.36468936091 306.485012706 9.6952028322 339.354531573 16.479765448 372.774784458 c 0
 44.6481812599 511.530314198 124.533596383 636.826490226 231.641707583 708.938881926 c 0
 285.830753794 745.064912733 348.069357352 768 411 768 c 0
 474.039674702 768 529.048619874 744.522486455 570.239006944 706.671860498 c 0
 632.547061526 649.415810342 665.635310639 561.12871949 665.635310639 461.21413528 c 0
 665.635310639 429.514987294 662.304797168 396.645468427 655.520234552 363.225215542 c 0
608.479765448 372.774784458 m 0
 614.666677132 403.251053124 617.614769669 432.780395659 617.614769669 460.900441165 c 0
 617.614769669 550.18332025 587.894999554 625.25905245 537.760993056 671.328139502 c 0
 504.951380126 701.477513545 461.960325298 720 411 720 c 0
 359.930642648 720 306.169246206 700.935087267 258.358292417 669.061118074 c 0
 163.466403617 605.173509774 89.3518187401 490.469685802 63.520234552 363.225215542 c 0
 57.3333228679 332.748946876 54.3852303314 303.219604341 54.3852303314 275.099558835 c 0
 54.3852303314 185.81667975 84.1050004461 110.74094755 134.239006944 64.6718604981 c 0
 167.048619874 34.5224864548 210.039674702 16 261 16 c 0
 312.069357352 16 365.830753794 35.0649127332 413.641707583 66.938881926 c 0
 508.533596383 130.826490226 582.64818126 245.530314198 608.479765448 372.774784458 c 0
512.482962831 372.790507571 m 0
 517.436909548 397.109882366 519.693257605 420.282213692 519.693257605 441.993616742 c 0
 519.693257605 511.533184175 496.546280412 566.085669538 464.75064326 595.337655718 c 0
 443.856192619 614.560550308 420.136444748 624 392 624 c 0
 363.74147258 624 333.380722776 614.046664346 302.447424825 593.121198085 c 0
 240.5101488 551.222452538 180.301432942 465.241980767 159.517037169 363.209492429 c 0
 154.563090452 338.890117634 152.306742395 315.717786308 152.306742395 294.006383258 c 0
 152.306742395 224.466815825 175.453719588 169.914330462 207.24935674 140.662344282 c 0
 228.143807381 121.439449692 251.863555252 112 280 112 c 0
 308.25852742 112 338.619277224 121.953335654 369.552575175 142.878801915 c 0
 431.4898512 184.777547462 491.698567058 270.758019233 512.482962831 372.790507571 c 0
559.517037169 363.209492429 m 0
 536.301432942 249.241980767 470.5101488 153.222452538 396.447424825 103.121198085 c 0
 359.380722776 78.046664346 319.74147258 64 280 64 c 0
 240.136444748 64 203.856192619 78.5605503077 174.75064326 105.337655718 c 0
 130.536434171 146.01472808 104.228061598 213.419956338 104.228061598 293.274550599 c 0
 104.228061598 318.673569971 106.889571384 345.332040469 112.482962831 372.790507571 c 0
 135.698567058 486.758019233 201.4898512 582.777547462 275.552575175 632.878801915 c 0
 312.619277224 657.953335654 352.25852742 672 392 672 c 0
 431.863555252 672 468.143807381 657.439449692 497.24935674 630.662344282 c 0
 541.463565829 589.98527192 567.771938402 522.580043662 567.771938402 442.725449401 c 0
 567.771938402 417.326430029 565.110428616 390.667959531 559.517037169 363.209492429 c 0
EndSplineSet
Substitution2: "(ss01) Slashed Zero subtable" zero.ss01
Substitution2: "(ss02) Dotted Zero subtable" zero.ss02
EndChar

StartChar: one
Encoding: 49 49 17
Width: 352
Flags: HW
LayerCount: 2
Back
SplineSet
239.65234375 688 m 1
 112.34765625 48 l 1025
EndSplineSet
Fore
SplineSet
168.448631477 692.619625712 m 2
 175.63274578 729.977020087 210.468512814 760 249 760 c 0
 285.536442343 760 312.796464328 731.122790688 312.796464328 696.317384839 c 0
 312.796464328 692.079138414 312.392256047 687.752989415 311.551368523 683.380374288 c 2
 183.551368523 43.3803742878 l 2
 176.36725422 6.02297991268 141.531487186 -24 103 -24 c 0
 66.4635576574 -24 39.2035356725 4.87720931211 39.2035356725 39.6826151613 c 0
 39.2035356725 43.9208615857 39.6077439528 48.2470105852 40.4486314772 52.6196257122 c 2
 168.448631477 692.619625712 l 2
215.551368523 683.380374288 m 2
 87.5513685228 43.3803742878 l 2
 85.2978081625 31.6618604143 91.9854766906 24 103 24 c 0
 116.468512814 24 133.63274578 37.9770200873 136.448631477 52.6196257122 c 2
 264.448631477 692.619625712 l 2
 266.702191837 704.338139586 260.014523309 712 249 712 c 0
 235.531487186 712 218.36725422 698.022979913 215.551368523 683.380374288 c 2
EndSplineSet
Substitution2: "(ss03) Serifed One subtable" one.ss03
Substitution2: "Tabular Figures subtable" one.tnum
EndChar

StartChar: two
Encoding: 50 50 18
Width: 672
Flags: HW
LayerCount: 2
Back
SplineSet
161.416992188 536 m 0
 182.666992188 642.828125 279.486328125 696 387.243164062 696 c 0
 499.243164062 696 566.921875 624 547.826171875 528 c 0
 535.540039062 466.232421875 502.393554688 435.219726562 402.78515625 382 c 0
 196.904296875 272 108.948242188 232 72.34765625 48 c 1
 480.34765625 48 l 1025
EndSplineSet
Fore
SplineSet
232.551368523 531.380374288 m 0
 225.36725422 494.022979913 190.531487186 464 152 464 c 0
 115.458146145 464 88.2008362797 492.902137397 88.2008362797 527.680267857 c 0
 88.2008362797 531.910920709 88.6041892949 536.228526364 89.4432486111 540.591634808 c 0
 107.017977293 629.563698762 163.320976909 691.208251122 226.417485912 726.020118159 c 0
 279.465574195 755.250697416 338.54546567 768 397 768 c 0
 444.169730054 768 488.367600631 758.392064271 524.697260123 737.956630807 c 0
 586.192168179 703.897912499 624.204989329 641.873544219 624.204989329 568.507134995 c 0
 624.204989329 553.802539341 622.677979796 538.642323606 619.506969038 523.160329904 c 0
 611.856973843 486.003210385 596.102882379 448.585198788 566.903826506 416.017021083 c 0
 531.784076244 376.507302038 487.469651542 349.915508533 430.310554832 319.831773423 c 0
 371.720778468 288.054267598 304.257618853 251.708767396 267.052632322 227.859417055 c 0
 239.506268342 209.811799275 218.637757855 192.603974002 203.556080739 176.635139409 c 0
 188.685393894 160.47134936 175.823201634 141.997606541 166.144007697 120 c 1
 490 120 l 2
 526.970187716 120 552.81769503 90.6149575619 552.81769503 56.4874643852 c 0
 552.81769503 52.2059535683 552.410873451 47.8497999136 551.568154728 43.4676625524 c 0
 544.353044515 5.94908944691 509.536552101 -24 471 -24 c 2
 63 -24 l 2
 26.4687681072 -24 -0.793865599792 4.85320631434 -0.793865599792 39.6848645011 c 0
 -0.793865599792 43.9304278882 -0.388832824706 48.2648113423 0.453817304302 52.6465920132 c 0
 18.0678759544 139.680764167 48.707948076 209.323452277 101.405953714 266.323335926 c 0
 130.195604675 297.245553625 163.074548787 322.594324301 199.103150308 345.240873828 c 0
 248.178113677 376.935121004 312.82642412 411.240639451 374.684252291 444.164967349 c 0
 427.559604359 472.560989756 454.145088295 492.350045563 463.326704242 502.23793966 c 0
 470.49323321 510.121121524 472.813979122 513.538740351 476.444473471 532.598835679 c 0
 477.807250602 539.412721335 478.485972822 545.833914873 478.485972822 551.877293029 c 0
 478.485972822 577.770164701 466.026692288 596.727492349 441.527549851 609.919338277 c 0
 425.538549623 618.713288402 404.910018612 624 378 624 c 0
 340.348925315 624 307.41260471 615.663100018 284.418132943 602.888393481 c 0
 268.241369837 594.374307636 257.888628332 584.656576834 248.75486179 571.371098228 c 0
 241.657744977 561.119707276 235.981363334 548.530348345 232.551368523 531.380374288 c 0
185.448631477 540.619625712 m 0
 190.028985545 563.521396051 198.315653128 582.841867765 209.267387401 598.661039492 c 0
 222.090721775 617.313162219 239.770155043 633.63175809 261.581867057 645.111606519 c 0
 292.58739529 662.336899982 333.651074685 672 378 672 c 0
 411.089981388 672 440.461450377 665.286711598 464.472450149 652.080661723 c 0
 504.266506231 630.653093064 526.246720985 593.114375726 526.246720985 549.974514304 c 0
 526.246720985 541.314119915 525.360892218 532.427992764 523.555526529 523.401164321 c 0
 519.186020878 500.461259649 511.50676679 483.878878476 498.673295758 469.76206034 c 0
 481.873164126 451.66961089 452.390918066 431.412438954 397.355039311 401.856133697 c 0
 335.129939199 368.736322347 271.840662401 335.077005213 224.896849692 304.759126172 c 0
 190.90070364 283.390120082 161.842494904 260.795368145 136.565455386 233.64595533 c 0
 91.3217878441 184.708927172 63.9288818675 124.30321566 47.5461826957 43.3534079868 c 0
 45.3021441072 31.6844073265 51.9839530288 24 63 24 c 2
 471 24 l 2
 484.463447899 24 501.646955485 38.0509105531 504.431845272 52.5323374476 c 0
 506.871900152 65.2206228207 500.391667378 72 490 72 c 2
 132 72 l 2
 131.616326902 72 128.577721436 72.1923874902 127.02645624 72.5209910246 c 0
 115.774146681 74.904560708 108.025582801 85.1648938831 108.025582801 96.1783947385 c 0
 108.025582801 98.3745783949 108.333694188 100.600710767 108.983575007 102.800307384 c 0
 122.951878543 150.07764243 143.280490098 182.013307153 168.443919261 209.364860591 c 0
 187.362242145 229.396025998 210.493731658 248.188200725 240.947367678 268.140582945 c 0
 281.742381147 294.291232604 348.279221532 329.945732402 407.689445168 362.168226577 c 0
 464.530348458 392.084491467 502.215923756 415.492697962 531.096173494 447.982978917 c 0
 553.897117621 473.414801212 566.143026157 501.996789615 572.493030962 532.839670096 c 0
 575.088167483 545.510042522 576.336966712 557.748127631 576.336966712 569.485447755 c 0
 576.336966712 625.625161569 547.767961956 670.308784657 501.302739877 696.043369193 c 0
 473.632399369 711.607935729 437.830269946 720 397 720 c 0
 345.45453433 720 294.534425805 708.749302584 249.582514088 683.979881841 c 0
 196.679023091 654.791748878 150.982022707 604.436301238 136.556751389 531.408365192 c 0
 134.293307471 519.638456817 140.987058245 512 152 512 c 0
 165.468512814 512 182.63274578 525.977020087 185.448631477 540.619625712 c 0
EndSplineSet
EndChar

StartChar: three
Encoding: 51 51 19
Width: 672
Flags: HW
LayerCount: 2
Back
SplineSet
254.741210938 422 m 0
 487.875976562 512.845703125 547.65234375 688 547.65234375 688 c 1
 179.65234375 688 l 1025
92.830078125 153.767578125 m 0
 114.869140625 86.4765625 181.219726562 40 268.756835938 40 c 0
 390.259765625 40 508.568359375 129.54296875 530.5390625 240 c 0
 552.510742188 350.45703125 491.1171875 444 359.1171875 444 c 0
 326.880859375 444 284.58203125 433.32421875 254.741210938 422 c 1024
EndSplineSet
Fore
SplineSet
557 760 m 2
 596.069970027 760 620.732635438 729.919192458 620.732635438 696.075521604 c 0
 620.732635438 692.476352653 620.453709082 688.834626997 619.883521764 685.181998469 c 0
 618.980403954 677.54023238 616.976599915 673.583450213 616.025100698 671.402931175 c 0
 611.74752483 660.107754829 579.106987781 575.895645001 489.481736603 490.339202415 c 1
 526.104921078 472.575331839 555.075489118 446.670342751 575.408703776 413.628868932 c 0
 597.62310893 377.927146363 608.386386351 336.029466481 608.386386351 292.218756502 c 0
 608.386386351 273.474520581 606.416144974 254.380100334 602.529533376 235.270926644 c 0
 571.930574405 81.1833118245 413.486498077 -32 259 -32 c 0
 146.432985692 -32 55.034813143 28.000896727 23.0666903453 123.90526512 c 0
 21.1807862783 130.505929355 19.9209043455 136.878424145 19.9209043455 144.161613894 c 0
 19.9209043455 149.018364758 20.4811496827 154.280084208 21.7896005198 160.284482789 c 0
 29.4032866801 196.31403686 63.8827206552 226 102 226 c 0
 130.820289059 226 154.46500988 208.499634205 162.814117171 183.45231233 c 0
 175.281450897 144.491894438 215.598660494 112 278 112 c 0
 366.359020077 112 446.142259058 178.920859287 459.483523777 244.793353836 c 0
 461.441459053 254.338288308 462.349868326 263.406167445 462.349868326 271.996886835 c 0
 462.349868326 293.558463437 456.627398395 312.114200728 447.413622303 327.662447885 c 0
 432.409161673 352.419807923 403.659247834 372 350 372 c 0
 333.180258147 372 293.887934308 363.575964129 272.010958911 355.372098355 c 0
 265.203751419 353.103029192 256.90821983 350 245 350 c 0
 207.993435109 350 182.16527069 379.548184914 182.16527069 413.500879271 c 0
 182.16527069 417.732347662 182.566439589 422.032227891 183.397135752 426.351847943 c 0
 187.733587432 450.925074128 203.834082468 470.689018576 223.65210187 482.579830217 c 0
 227.564876438 484.927494958 235.726043055 488.202887023 236.810410434 488.568805233 c 0
 327.650199855 524.535288065 384.369869948 571.548319973 420.951007852 612.819347352 c 0
 421.675218317 613.654974811 423.674415346 616 423.674415346 616 c 1
 170 616 l 2
 133.029812284 616 107.18230497 645.385042438 107.18230497 679.512535615 c 0
 107.18230497 683.794046432 107.589126549 688.150200086 108.431845272 692.532337448 c 0
 115.646955485 730.050910553 150.463447899 760 189 760 c 2
 557 760 l 2
557 712 m 2
 189 712 l 2
 175.536552101 712 158.353044515 697.949089447 155.568154728 683.467662552 c 0
 153.128099848 670.779377179 159.608332622 664 170 664 c 2
 472 664 l 2
 475.918140034 664 480.415713074 662.870479569 484.070765955 660.743592005 c 0
 491.692428399 656.308520994 495.909392529 648.120646916 495.909392529 639.827354971 c 0
 495.909392529 635.146160651 494.5658255 630.431379143 491.732612599 626.338960508 c 0
 482.387754314 612.840831873 471.047371281 597.332628571 457.048992148 581.180652648 c 0
 415.600854108 534.418650757 351.44678127 482.106975596 253.790355947 443.667744352 c 0
 253.510613826 443.557633091 252.974496191 443.359944116 252.589466384 443.231600847 c 0
 250.21385697 442.439731042 249.443291661 442.09947124 249.304640932 442.025295953 c 0
 249.005639618 441.826994979 248.668984413 441.612821552 248.34789813 441.420169783 c 0
 238.165917532 435.310981424 232.266412568 427.074925872 230.602864248 417.648152057 c 0
 228.098947068 404.627782724 234.618632137 398 245 398 c 0
 247.500149082 398 249.364182978 398.426534643 255.976119645 400.62339408 c 0
 282.224289367 410.320041646 322.73988186 420 350 420 c 0
 416.340752166 420 463.590838327 393.580192077 488.586377697 352.337552115 c 0
 502.330418789 329.144482773 510.299649798 301.780163636 510.299649798 271.67566274 c 0
 510.299649798 259.90025317 509.080363772 247.705597964 506.510464815 235.177340551 c 0
 487.862645384 143.103732107 387.639305252 64 278 64 c 0
 198.401339506 64 136.718549103 107.508105562 117.185882829 168.54768767 c 0
 115.53499012 173.500365795 111.179710941 178 102 178 c 0
 88.5365521007 178 71.3530445149 163.949089447 68.5681547275 149.467662552 c 0
 68.5094958973 149.162636635 68.3850972457 148.585853968 68.2834200035 148.179144999 c 0
 67.6863733583 145.790958418 67.7374319484 142.545429773 68.9479846197 138.053200652 c 0
 93.297258295 66.0846699434 163.313063211 16 259 16 c 0
 392.513501923 16 530.069425595 116.816688176 555.470466624 244.729073356 c 0
 558.784009349 261.020658422 560.413632097 276.96603647 560.413632097 292.360953836 c 0
 560.413632097 328.208595482 551.577676334 361.071591606 534.591296224 388.371131068 c 0
 513.872179377 422.039695945 481.396748288 446.354838012 437.40669293 458.923425257 c 0
 434.062234908 459.878984692 429.725233791 462.259757657 426.81037458 465.251364893 c 0
 422.317961235 469.862063147 420.109725812 475.913145509 420.109725812 481.95282585 c 0
 420.109725812 488.856374386 422.994834844 495.745025926 428.651640606 500.450687356 c 0
 537.327736748 590.85381158 569.864754285 685.283863398 571.716559419 689.913376232 c 0
 571.794293788 690.107712155 572.034216238 690.676887996 572.189481224 691.015052245 c 0
 572.245272516 691.431004715 572.337277852 692.040586863 572.431845272 692.532337448 c 0
 574.911622642 705.427179769 569.717427096 712 557 712 c 2
EndSplineSet
EndChar

StartChar: four
Encoding: 52 52 20
Width: 672
Flags: HW
LayerCount: 2
Back
SplineSet
572.506835938 270 m 1
 92.5068359375 270 l 1
 104.838867188 332 l 1
 481.25390625 686 l 1
 543.25390625 686 l 1
 415.950195312 46 l 1025
EndSplineSet
Fore
SplineSet
406 -26 m 0
 369.044766962 -26 343.189303203 3.31795748317 343.189303203 37.5171867707 c 0
 343.189303203 41.8193435275 343.598462247 46.1987457178 344.446154762 50.6067467924 c 2
 373.75731307 198 l 1
 83 198 l 2
 46.0354686709 198 20.1849738615 227.359606974 20.1849738615 261.514294453 c 0
 20.1849738615 265.803629831 20.5926809271 270.168591932 21.4372835858 274.560525758 c 2
 33.3779118043 336.253771553 l 2
 36.4746394978 354.834137714 47.1322843425 369.073409839 58.2851000226 380.22622552 c 2
 433.912297028 733.875235466 l 2
 451.646148308 750.990926356 470.271230579 758 491 758 c 2
 553 758 l 2
 589.956357915 758 615.811223104 728.676996104 615.811223104 694.483160233 c 0
 615.811223104 690.182557931 615.402240159 685.804906796 614.554922404 681.398854472 c 2
 547.228519207 342 l 1
 582 342 l 2
 618.553328284 342 645.804888737 313.045009597 645.804888737 278.32474695 c 0
 645.804888737 274.110175957 645.403345682 269.810655515 644.568154728 265.467662552 c 0
 637.250023389 227.413379591 601.179323891 198 563 198 c 2
 518.697232384 198 l 1
 487.553845238 41.3932532076 l 2
 480.262124416 3.47630493161 444.175019447 -26 406 -26 c 0
406 22 m 0
 419.824980553 22 437.737875584 36.5236950684 440.446154762 50.6067467924 c 2
 475.460933811 226.681064299 l 2
 477.342974472 236.145040193 486.934596316 246 499 246 c 2
 563 246 l 2
 576.820676109 246 594.749976611 260.586620409 597.431845272 274.532337448 c 0
 599.716227025 286.41112256 593.009591309 294 582 294 c 2
 518 294 l 2
 507.330724919 294 491.068410809 305.579044467 494.458711465 322.669875171 c 2
 567.445077596 690.601145528 l 2
 569.860786227 703.162830411 563.395593866 710 553 710 c 2
 491 710 l 2
 483.574309169 710 474.676072868 706.734947371 467.714899977 699.77377448 c 2
 91.7068779827 345.766221858 l 2
 84.912853792 338.846030907 81.5347238347 333.222042281 80.6220881957 327.746228447 c 2
 68.5627164142 265.439474242 l 2
 66.1326360061 252.80305612 72.6067425065 246 83 246 c 2
 403 246 l 2
 413.691185031 246 429.936606921 234.403711954 426.539066189 217.318935701 c 2
 391.553845238 41.3932532076 l 2
 389.140118493 28.8418741324 395.604086501 22 406 22 c 0
402.312294444 342 m 1
 445.808961641 560.18489513 l 1
 213.592883544 342 l 1
 402.312294444 342 l 1
445.53684253 313.307767727 m 2
 443.653429721 303.860326053 434.066090544 294 422 294 c 2
 153 294 l 2
 147.643182955 294 141.298847027 296.200827254 136.852516759 300.244471707 c 0
 131.696458286 304.933567204 129.110933436 311.469451899 129.110933436 318.007392801 c 0
 129.110933436 324.410984794 131.591289564 330.816549355 136.566087738 335.490755494 c 2
 467.566087738 646.490755494 l 2
 471.958396574 650.617668026 479.634944859 653.687289282 486.831136364 652.832428892 c 0
 500.530401498 651.205045974 510.234013443 637.837125046 507.53684253 624.307767727 c 2
 445.53684253 313.307767727 l 2
EndSplineSet
EndChar

StartChar: five
Encoding: 53 53 21
Width: 672
Flags: HW
LayerCount: 2
Back
SplineSet
85.771484375 155.704101562 m 0
 109.884765625 86.712890625 173.079101562 40 256.756835938 40 c 0
 379.364257812 40 498.705078125 140.288085938 523.313476562 264 c 0
 547.920898438 387.711914062 468.4765625 488 345.869140625 488 c 0
 273.657226562 488 201.50390625 456 142.365234375 400 c 1
 231.65234375 688 l 1
 551.65234375 688 l 1025
EndSplineSet
Fore
SplineSet
133 328 m 0
 100.136219379 328 69.531699348 350.114949413 69.531699348 391.356151444 c 0
 69.531699348 396.844602043 70.0737282719 402.67179287 71.2245952424 408.830679637 c 1
 71.2245952424 408.830679637 72.5634733149 411.994833507 74.3610929746 416.264180199 c 2
 162.147991481 700.338638287 l 2
 173.312827511 733.833146376 204.829158384 760 241 760 c 2
 561 760 l 2
 597.553328284 760 624.804888737 731.045009597 624.804888737 696.32474695 c 0
 624.804888737 692.110175957 624.403345682 687.810655515 623.568154728 683.467662552 c 0
 616.250023389 645.413379591 580.179323891 616 542 616 c 2
 282.71599652 616 l 1
 261.261259478 546.402926182 l 1
 292.168813702 555.447369308 323.087757453 560 355 560 c 0
 373.755329013 560 391.870415954 558.222045116 409.184685454 554.787151393 c 0
 524.668085087 531.87696136 600.380822607 435.800993321 600.380822607 317.181806379 c 0
 600.380822607 298.38456104 598.479536465 279.021213997 594.533936217 259.293212757 c 0
 562.28683733 98.0577183245 408.403560726 -32 247 -32 c 0
 135.5539692 -32 48.696716703 31.3694554101 16.3139200248 125.167900961 c 0
 16.179265286 125.557935377 16.0074033138 126.11276973 15.9234252566 126.40669293 c 0
 14.2106410475 132.401437663 12.9796098565 138.841942779 12.9796098565 146.253687967 c 0
 12.9796098565 151.127504762 13.5119221513 156.421297131 14.7896005198 162.284482789 c 0
 22.4032866801 198.31403686 56.8827206552 228 95 228 c 0
 122.166434054 228 146.368862503 211.788076336 154.705507342 186.778141818 c 0
 170.1844643 142.785316779 210.601725733 112 266 112 c 0
 349.717719672 112 434.652691663 181.987373765 451.438731639 268.568001009 c 0
 453.473570703 279.063486706 454.422621678 288.947455727 454.422621678 298.770581327 c 0
 454.422621678 367.186587893 407.49632499 416 336 416 c 0
 285.078877492 416 235.162099043 394.437743397 189.242600853 351.329643055 c 0
 176.12105088 339.520248079 157.270386216 328 133 328 c 0
133 376 m 0
 140.729613784 376 149.87894912 380.479751921 156.757399147 386.670356945 c 0
 208.837900957 435.562256603 270.921122508 464 336 464 c 0
 433.16100679 464 502.422532349 392.438304081 502.422532349 298.733953655 c 0
 502.422532349 285.730591333 501.156101937 272.815877436 498.561268361 259.431998991 c 0
 477.347308337 150.012626235 374.282280328 64 266 64 c 0
 191.398274267 64 131.8155357 107.214683221 109.294492658 171.221858182 c 0
 107.631137497 176.211923664 103.833565946 180 95 180 c 0
 81.5365521007 180 64.3530445149 165.949089447 61.5681547275 151.467662552 c 0
 61.5094958973 151.162636635 61.3850972457 150.585853968 61.2834200035 150.179144999 c 0
 60.6985280135 147.839577039 60.7705147822 144.42266298 61.9183244148 140.163266442 c 0
 87.4284576316 67.2506962915 154.274730937 16 247 16 c 0
 383.596439274 16 519.71316267 129.942281676 547.466063783 268.706787243 c 0
 550.874732006 285.750128357 552.512326227 302.31184985 552.512326227 318.248838287 c 0
 552.512326227 415.521369678 491.506092006 489.520363168 399.844229723 507.704714256 c 0
 385.696007105 510.511511335 370.72400983 512 355 512 c 0
 313.579020627 512 273.036766674 502.841743617 233.892028877 485.133409852 c 0
 230.204285317 483.465144908 223.891225129 482.428937502 218.75102732 483.581027226 c 0
 207.621285862 486.075573396 200.027711523 496.27477754 200.027711523 507.184013751 c 0
 200.027711523 509.469676726 200.361047312 511.786508039 201.065035496 514.070177028 c 2
 242.065035496 647.070177028 l 2
 244.942841752 656.40549976 254.320187056 664 265 664 c 2
 542 664 l 2
 555.820676109 664 573.749976611 678.586620409 576.431845272 692.532337448 c 0
 578.716227025 704.41112256 572.009591309 712 561 712 c 2
 241 712 l 2
 229.134236285 712 213.224445771 700.944673067 207.853015045 685.664618785 c 2
 118.930071768 397.913970877 l 2
 118.562893464 396.725798389 118.287971648 395.910311837 117.266650406 393.867669353 c 0
 115.567626565 382.272468911 121.764670735 376 133 376 c 0
EndSplineSet
EndChar

StartChar: six
Encoding: 54 54 22
Width: 672
Flags: HW
LayerCount: 2
Back
SplineSet
568.921875 624 m 4
 568.921875 624 535.243164062 696 423.243164062 696 c 4
 343.243164062 696 169.026367188 624.52734375 118 368 c 4
 65.0458984375 101.782226562 206.752929688 40 292.756835938 40 c 4
 423.584960938 40 515.013671875 131.782226562 532.958984375 222 c 4
 552.0546875 318 477.161132812 404 357.161132812 404 c 4
 237.548828125 404 143.172851562 340.1796875 116.084960938 204 c 1028
EndSplineSet
Fore
SplineSet
640.551368523 619.380374288 m 0
 633.264218886 581.487196177 597.174274425 552 559 552 c 0
 535.096669626 552 513.536343691 565.21923971 503.356605812 584.587561151 c 0
 500.902198342 588.140822608 494.919960198 596.897446553 483.053506642 605.467663011 c 0
 470.202487808 614.538970422 449.456680817 624 414 624 c 0
 391.092392331 624 336.127412619 610.276142589 287.781330882 562.842251074 c 0
 260.246234476 535.995532078 232.618041976 496.815869943 211.788196984 441.312816494 c 1
 260.609053236 465.835318167 313.528326298 476 367 476 c 0
 469.50933504 476 553.154720725 426.911101143 589.715648853 349.219128872 c 0
 602.271791782 322.537325147 608.766727937 292.633694012 608.766727937 261.401995256 c 0
 608.766727937 246.945202403 607.375085741 232.20385018 604.548783578 217.365763824 c 0
 590.204260511 146.746573343 545.666325029 76.7628945039 477.883436389 29.4224643424 c 0
 424.012443526 -9.36465051859 355.882006199 -32 283 -32 c 0
 230.267234089 -32 164.933978194 -15.6316951765 112.363313685 34.7019197794 c 0
 63.4756457754 81.9323786069 33.8297694773 153.829231872 33.8297694773 252.46782154 c 0
 33.8297694773 288.839881025 37.8607098068 328.848005866 46.4442257914 372.596248626 c 0
 71.3146528422 500.057187261 126.640191704 593.637095112 192.209507069 658.148840874 c 0
 274.659271317 738.484508603 367.132636564 768 433 768 c 0
 580.364032189 768 630.883133087 670.899365286 635.466252584 661.733126292 c 0
 639.911354155 652.842923151 641.967958954 643.188808934 641.967958954 633.480056099 c 0
 641.967958954 628.765979689 641.483098023 624.039021791 640.551368523 619.380374288 c 0
593.448631477 628.619625712 m 0
 594.60645644 634.408750526 593.930330683 637.473707174 592.533747416 640.266873708 c 0
 591.116866913 643.100634714 555.635967811 720 433 720 c 0
 380.867363436 720 299.340728683 695.515491397 225.790492931 623.851159126 c 0
 167.359808296 566.362904888 116.685347158 481.942812739 93.5557742086 363.403751374 c 0
 85.3992086705 321.831578631 81.7304661267 284.834711435 81.7304661267 252.003258714 c 0
 81.7304661267 163.522277085 108.376765366 105.294953002 145.636686315 69.2980802206 c 0
 187.066021806 29.6316951765 239.732765911 16 283 16 c 0
 346.117993801 16 403.987556474 35.3646505186 450.116563611 68.5775356576 c 0
 508.333674971 109.237105496 545.795739489 169.253426657 557.451216422 226.634236176 c 0
 559.670237344 238.284096016 560.738865097 249.832051058 560.738865097 261.090214987 c 0
 560.738865097 285.690931294 555.636320394 308.907936479 546.284351147 328.780871128 c 0
 518.845279275 387.088898857 454.49066496 428 367 428 c 0
 309.676218181 428 255.494609937 414.879291912 208.22365824 383.971361956 c 0
 200.107099598 378.560322861 192.895489166 373.143115582 185.804110589 366.938159327 c 0
 180.786203249 362.547490405 173.426213287 360.216571406 166.43651251 361.266025261 c 0
 154.582045254 363.0458892 146.015890318 373.593155129 146.015890318 385.145002999 c 0
 146.015890318 386.887558765 146.210810305 388.652973458 146.618766272 390.414601495 c 0
 169.523019732 489.319332345 210.795074403 554.819744079 254.245596733 597.184003351 c 0
 311.846210912 653.697813489 376.918416581 672 414 672 c 0
 458.543319183 672 489.797512192 659.461029578 510.946493358 644.532336989 c 0
 529.714502853 630.977663466 539.431095785 616.818476321 542.926573198 611.758051222 c 0
 543.713451609 610.738134405 545.047189305 608.669040759 545.791025228 607.057396259 c 0
 547.58743998 603.165164297 551.169147338 600 559 600 c 0
 572.825725575 600 590.735781114 614.512803823 593.448631477 628.619625712 c 0
187.90632679 201.127485246 m 1
 196.050159911 174.24071639 208.814286007 155.368062666 221.565379203 143.367033776 c 0
 245.99405781 119.752644455 278.578005286 112 302 112 c 0
 345.29628482 112 379.108738367 124.469085787 403.948226708 142.456301482 c 0
 435.384673528 165.160401963 455.811399907 197.627456578 461.413299541 226.437226126 c 0
 462.298542622 231.306063071 462.729627065 236.102514811 462.729627065 240.838197624 c 0
 462.729627065 252.505156363 460.113176936 263.803280483 455.225302597 274.906266914 c 0
 440.153542881 306.040281277 404.920109669 332 348 332 c 0
 305.775500584 332 273.608705837 321.894727021 251.312804709 307.030792936 c 0
 223.804415701 288.69186693 199.991881077 259.111287923 187.90632679 201.127485246 c 1
139 201.72826689 m 0
 154.098856972 274.169225947 186.868557655 321.756781973 224.687195291 346.969207064 c 0
 256.391294163 368.105272979 298.224499416 380 348 380 c 0
 420.831159638 380 475.174931508 344.778897436 498.784697917 295.074126049 c 0
 506.581961395 277.746873876 510.734466682 259.735174974 510.734466682 241.027628037 c 0
 510.734466682 233.324264336 510.03036187 225.502911635 508.586700459 217.562773874 c 0
 500.188600093 174.372543422 472.615326472 132.839598037 432.051773292 103.543698518 c 0
 398.891261633 79.5309142132 354.70371518 64 302 64 c 0
 269.421994714 64 224.00594219 74.2473555448 188.434620797 108.632966224 c 0
 168.1010153 127.77047728 149.838684475 156.93116321 139.799074531 194.858578552 c 0
 139.384651694 196.424175938 139 199.474066348 139 201.72826689 c 0
EndSplineSet
EndChar

StartChar: seven
Encoding: 55 55 23
Width: 672
Flags: HW
LayerCount: 2
Back
SplineSet
167.65234375 688 m 1
 615.65234375 688 l 1
 604.115234375 630 l 1
 604.115234375 630 302.278320312 480 222.712890625 80 c 2
 216.34765625 48 l 1025
EndSplineSet
Fore
SplineSet
625 760 m 2
 663.839277509 760 688.858751677 729.231087784 688.858751677 696.324793827 c 0
 688.858751677 691.938994635 688.41430699 687.515227101 687.498901217 683.121279388 c 2
 675.705847022 626.121517448 l 2
 670.150109021 597.874003381 652.652348241 577.822240188 629.93203406 566.627123639 c 0
 627.887196646 565.624096784 609.484090352 556.613067764 572.350259401 528.762694551 c 0
 542.295979915 506.464358158 504.831068553 474.775356193 467.092427017 431.230769804 c 0
 398.103884471 352.525531126 326.690975931 239.001043372 294.500476158 75.1221354361 c 2
 287.510660276 43.1686914062 l 2
 280.401714193 6.2021717753 245.519204255 -24 207 -24 c 0
 170.50438098 -24 143.223886669 4.68911926539 143.223886669 39.6999561777 c 0
 143.223886669 43.9956751789 143.634581257 48.386564568 144.489339724 52.8313085938 c 2
 151.505272888 84.9041459181 l 1
 206.022278851 359.192832166 358.518123739 528.269687493 465.096201371 616 c 1
 158 616 l 2
 121.029812284 616 95.1823049702 645.385042438 95.1823049702 679.512535615 c 0
 95.1823049702 683.794046432 95.5891265492 688.150200086 96.4318452725 692.532337448 c 0
 103.646955485 730.050910553 138.463447899 760 177 760 c 2
 625 760 l 2
625 712 m 2
 177 712 l 2
 163.536552101 712 146.353044515 697.949089447 143.568154728 683.467662552 c 0
 141.128099848 670.779377179 147.608332622 664 158 664 c 2
 537 664 l 2
 544.028534618 664 551.176543067 660.683436095 555.72201419 655.016197411 c 0
 559.220213178 650.654685018 560.898771439 645.377535298 560.898771439 640.126705922 c 0
 560.898771439 632.421493792 557.284258311 624.772958411 550.501035195 620.157569487 c 0
 456.480744034 556.185000243 260.941505811 389.281209413 198.494727112 75.0958540819 c 1
 191.517278489 43.1989460944 l 2
 189.552423019 31.7894943127 195.805917727 24 207 24 c 0
 220.480795745 24 237.598285807 37.7978282247 240.489339724 52.8313085938 c 2
 247.499523842 84.8778645639 l 2
 281.309024069 256.998956628 357.896115529 379.474468874 430.907572983 462.769230196 c 0
 471.168931447 509.224643807 511.704020085 543.535641842 543.649740599 567.237305449 c 0
 584.746732161 598.06004912 607.139849507 608.92909004 608.699584833 609.677396479 c 0
 618.763838732 614.41351596 626.799791534 625.300230706 628.426397376 634.51766381 c 2
 640.497749932 692.862534497 l 2
 642.720324319 703.530891556 636.983147951 712 625 712 c 2
EndSplineSet
EndChar

StartChar: eight
Encoding: 56 56 24
Width: 672
Flags: HW
LayerCount: 2
Back
SplineSet
422.38671875 380 m 0
 422.38671875 380 556.66015625 451.756835938 575.008789062 544 c 0
 591.8359375 628.595703125 511.717773438 696 401.243164062 696 c 0
 282.768554688 696 183.783203125 628.333007812 167.008789062 544 c 0
 149.50390625 456 223.766601562 386 349.580078125 386 c 0
 492.649414062 386 541.907226562 297.151367188 525.765625 216 c 0
 507.698242188 125.171875 412.877929688 40 270.756835938 40 c 0
 138.756835938 40 69.8525390625 136 88.15234375 228 c 0
 112.817382812 352 250.365234375 400 250.365234375 400 c 1024
EndSplineSet
Fore
SplineSet
191.355555846 548.119635801 m 0
 194.09263852 563.173590512 200.412395576 578.011612934 209.182055277 590.539698221 c 0
 238.579334705 634.635617363 306.371376448 672 392 672 c 0
 459.10124015 672 514.976709274 644.002640683 538.668446931 603.200203607 c 0
 547.390243107 588.663876647 552.075451225 572.161369652 552.075451225 555.58706662 c 0
 552.075451225 550.258441273 551.59117995 544.922394962 550.601083287 539.641879429 c 0
 544.933925542 508.472511833 520.870421726 477.707637626 490.652989409 451.806981354 c 0
 467.433653452 431.753918482 445.369621269 417.047143817 431.578338216 408.560200399 c 0
 426.648895071 405.526696925 420.51291047 404.416798134 415.054424305 405.326545828 c 0
 398.192215393 408.13691398 379.544551986 410 359 410 c 0
 268.188712343 410 206.74027914 449.881902285 192.817477701 502.788547753 c 0
 190.565750839 511.044879581 189.616657078 519.507695842 189.616657078 527.859081725 c 0
 189.616657078 534.747895007 190.262431506 541.560889763 191.355555846 548.119635801 c 0
238.644444154 539.880364199 m 0
 237.053549858 530.334998421 237.291632609 522.14471444 239.182522299 515.211452247 c 0
 245.25972086 492.118097715 279.811287657 458 359 458 c 0
 378.939881311 458 395.842499271 456.628544016 413.787914442 454.091617764 c 1
 425.169273743 461.473231828 442.381756053 473.541207908 459.313123112 488.163752186 c 0
 485.16456568 510.322131531 501.063383451 535.51268763 503.398916713 548.358120571 c 0
 505.329196124 558.652944098 503.805706304 568.009541002 497.331553069 578.799796393 c 0
 485.023290726 599.997359317 446.89875985 624 392 624 c 0
 319.628623552 624 267.420665295 591.364382637 248.817944723 563.460301779 c 0
 243.587604424 555.988387066 239.90736148 546.826409488 238.644444154 539.880364199 c 0
501.555526529 211.401164321 m 0
 491.913944647 160.782859438 454.779529347 114.809503943 393.693811808 87.0432686976 c 0
 362.51697724 73.6817681686 324.674621902 64 280 64 c 0
 265.10856058 64 251.068141473 65.3183072981 237.917753313 67.8231328886 c 0
 154.506975928 83.7108349985 110.18877959 147.292171929 110.18877959 208.826367041 c 0
 110.18877959 216.847632185 110.941848595 224.834111639 112.459561485 232.675628235 c 0
 125.501719815 296.70076913 173.294787403 337.249967838 212.90101501 359.729178101 c 0
 223.962716631 366.366199074 234.168399451 370.689608766 235.65210187 371.579830217 c 0
 241.426295377 375.044346322 249.001610648 375.674202292 254.59330707 374.076574743 c 0
 280.639127717 366.634911701 309.428803924 362 340 362 c 0
 399.360825698 362 439.84463614 345.553448654 466.190724244 321.716511799 c 0
 492.289682869 297.625165376 503.904993832 265.857578876 503.904993832 235.178560992 c 0
 503.904993832 227.124890891 503.104541254 219.146237943 501.555526529 211.401164321 c 0
454.444473471 220.598835679 m 0
 455.39438542 225.348395428 455.879346172 230.208058109 455.879346172 235.084817426 c 0
 455.879346172 253.601611788 448.887762572 272.364884986 433.809275756 286.283488201 c 0
 418.15536386 300.446551346 390.639174302 314 340 314 c 0
 308.058167701 314 279.187335118 318.105087709 250.668192613 325.40749538 c 0
 246.936613515 323.613066068 242.37924697 321.438979087 237.09898499 318.270821899 c 0
 202.705212597 298.750032162 168.498280185 267.29923087 159.540438515 223.324371765 c 0
 158.623848697 218.588657704 158.15640962 213.667530515 158.15640962 208.647331992 c 0
 158.15640962 170.551959487 185.073473315 126.751652304 246.899099027 114.975390832 c 0
 256.921861833 113.066300966 267.938712147 112 280 112 c 0
 317.394049748 112 348.006248396 119.790169695 374.333060733 130.967676127 c 0
 423.17074461 153.462739843 448.048999099 187.022595226 454.444473471 220.598835679 c 0
173.661039492 381.267387401 m 0
 125.009642057 347.585650715 77.9309310597 295.278186972 63.5413601528 223.330332438 c 0
 61.2663956031 211.76592931 60.1513432765 200.240399454 60.1513432765 188.971907234 c 0
 60.1513432765 97.2337134519 133.848899106 16 261 16 c 0
 328.461581623 16 388.101783757 34.7315854103 437.214483946 65.3111911881 c 0
 498.156138235 104.092243918 538.915964811 162.068351015 550.459202592 220.672481287 c 0
 552.747506674 232.114001695 553.900667598 243.492178662 553.900667598 254.676966686 c 0
 553.900667598 295.337550716 538.660784802 333.442355442 507.315376772 362.743497731 c 0
 505.498396027 364.560478476 502.775965883 366.668025587 498.6 369.8 c 0
 492.305907333 374.5205695 489.155541649 381.764978376 489.155541649 389.008194211 c 0
 489.155541649 395.866939809 491.980340345 402.724615657 497.635574408 407.43731071 c 0
 505.518134704 414.006110957 512.709218062 418.650343559 516.029437252 421.970562748 c 0
 516.346232644 422.287358141 516.807024919 422.717163249 517.055267868 422.937823648 c 0
 551.559656275 453.608391122 589.117710441 496.965020533 599.466063783 548.706787243 c 0
 601.270584264 557.729389648 602.125677266 566.512908611 602.125677266 575.020918114 c 0
 602.125677266 598.629219838 595.541721365 620.116182566 584.389300231 638.703551124 c 0
 554.956338271 688.31911557 491.222279444 720 411 720 c 0
 312.564189218 720 218.335120948 676.339692622 169.9987669 604.730279216 c 0
 156.651709046 584.264790506 146.83463292 561.653349151 142.583740298 539.548707518 c 0
 140.703744708 529.396731333 139.816285784 519.397411275 139.816285784 509.769998396 c 0
 139.816285784 497.083204195 141.357393008 485.042241393 144.199150346 474.148838267 c 0
 149.917908146 452.907737868 161.522377635 434.289718705 177.422864414 417.50587155 c 0
 181.778997061 412.907731533 183.865127646 407.006200136 183.865127646 401.132358161 c 0
 183.865127646 393.484359583 180.328473672 385.883303371 173.661039492 381.267387401 c 0
125.359199628 405.078421581 m 1
 113.368629598 421.678488817 103.577235403 440.396014667 97.8008496543 461.851161733 c 0
 93.8296257182 477.074186822 91.7809176996 493.08532917 91.7809176996 509.652867684 c 0
 91.7809176996 522.295979468 92.9740045115 535.263114453 95.4162597021 548.451292482 c 0
 101.16536708 578.346650849 113.348290954 605.735209494 130.0012331 631.269720784 c 0
 189.664879052 719.660307378 299.435810782 768 411 768 c 0
 502.777720556 768 585.043661729 731.68088443 625.610699769 663.296448876 c 0
 640.991650245 637.661531418 650.076636171 607.318364578 650.076636171 574.699516171 c 0
 650.076636171 563.146847433 648.937038243 551.308722888 646.533936217 539.293212757 c 0
 633.010365857 471.675360957 587.825257114 421.864695584 549.956289619 387.963544337 c 1
 584.797393076 350.266420034 601.797746156 302.756104443 601.797746156 253.903096979 c 0
 601.797746156 239.743849216 600.369655773 225.47181054 597.533936217 211.293212757 c 0
 583.090394686 137.96446345 533.836121813 69.9028306583 462.785516054 24.6888088119 c 0
 405.898216243 -10.7315854103 337.538418377 -32 261 -32 c 0
 111.556461399 -32 12.1513429315 68.2757024155 12.1513429315 188.971299046 c 0
 12.1513429315 203.422401861 13.5685580537 217.978418445 16.4513330442 232.632524647 c 0
 31.8339174653 309.545446752 76.2606207276 365.433871229 125.359199628 405.078421581 c 1
EndSplineSet
EndChar

StartChar: nine
Encoding: 57 57 25
Width: 672
Flags: HW
LayerCount: 2
Back
SplineSet
103.078125 112 m 0
 103.078125 112 136.756835938 40 248.756835938 40 c 0
 328.756835938 40 502.973632812 111.47265625 554 368 c 0
 606.954101562 634.217773438 465.247070312 696 379.243164062 696 c 0
 248.415039062 696 156.986328125 604.217773438 139.041015625 514 c 0
 119.9453125 418 194.838867188 332 314.838867188 332 c 0
 434.451171875 332 528.827148438 395.8203125 555.915039062 532 c 1024
EndSplineSet
Fore
SplineSet
31.4486314772 116.619625712 m 0
 38.7357811139 154.512803823 74.8257255751 184 113 184 c 0
 136.903330374 184 158.463656309 170.78076029 168.643394188 151.412438849 c 0
 171.097801658 147.859177392 177.080039802 139.102553447 188.946493358 130.532336989 c 0
 201.797512192 121.461029578 222.543319183 112 258 112 c 0
 280.907607669 112 335.872587381 125.723857411 384.218669118 173.157748926 c 0
 411.753765524 200.004467922 439.381958024 239.184130057 460.211803016 294.687183506 c 1
 411.390946764 270.164681833 358.471673702 260 305 260 c 0
 202.49066496 260 118.845279275 309.088898857 82.2843511472 386.780871128 c 0
 69.728208218 413.462674853 63.2332720629 443.366305988 63.2332720629 474.598004744 c 0
 63.2332720629 489.054797597 64.6249142592 503.79614982 67.4512164223 518.634236176 c 0
 81.7957394887 589.253426657 126.333674971 659.237105496 194.116563611 706.577535658 c 0
 247.987556474 745.364650519 316.117993801 768 389 768 c 0
 441.732765911 768 507.066021806 751.631695176 559.636686315 701.298080221 c 0
 608.524354225 654.067621393 638.170230523 582.170768128 638.170230523 483.53217846 c 0
 638.170230523 447.160118975 634.139290193 407.151994134 625.555774209 363.403751374 c 0
 600.685347158 235.942812739 545.359808296 142.362904888 479.790492931 77.8511591263 c 0
 397.340728683 -2.4845086027 304.867363436 -32 239 -32 c 0
 91.6359678109 -32 41.116866913 65.100634714 36.533747416 74.266873708 c 0
 32.0886458454 83.1570768492 30.0320410464 92.8111910665 30.0320410464 102.519943901 c 0
 30.0320410464 107.234020311 30.5169019765 111.960978209 31.4486314772 116.619625712 c 0
78.5513685228 107.380374288 m 0
 77.3935435599 101.591249474 78.0696693172 98.5262928256 79.466252584 95.733126292 c 0
 80.883133087 92.899365286 116.364032189 16 239 16 c 0
 291.132636564 16 372.659271317 40.4845086027 446.209507069 112.148840874 c 0
 504.640191704 169.637095112 555.314652842 254.057187261 578.444225791 372.596248626 c 0
 586.600791329 414.168421369 590.269533873 451.165288565 590.269533873 483.996741286 c 0
 590.269533873 572.477722915 563.623234634 630.705046998 526.363313685 666.701919779 c 0
 484.933978194 706.368304824 432.267234089 720 389 720 c 0
 325.882006199 720 268.012443526 700.635349481 221.883436389 667.422464342 c 0
 163.666325029 626.762894504 126.204260511 566.746573343 114.548783578 509.365763824 c 0
 112.329762656 497.715903984 111.261134903 486.167948942 111.261134903 474.909785013 c 0
 111.261134903 450.309068706 116.363679606 427.092063521 125.715648853 407.219128872 c 0
 153.154720725 348.911101143 217.50933504 308 305 308 c 0
 362.323781819 308 416.505390063 321.120708088 463.77634176 352.028638044 c 0
 471.892900402 357.439677139 479.104510834 362.856884418 486.195889411 369.061840673 c 0
 491.213796751 373.452509595 498.573786713 375.783428594 505.56348749 374.733974739 c 0
 517.417954746 372.9541108 525.984109682 362.406844871 525.984109682 350.854997001 c 0
 525.984109682 349.112441235 525.789189695 347.347026542 525.381233728 345.585398505 c 0
 502.476980268 246.680667655 461.204925597 181.180255921 417.754403267 138.815996649 c 0
 360.153789088 82.3021865111 295.081583419 64 258 64 c 0
 213.456680817 64 182.202487808 76.5389704223 161.053506642 91.4676630105 c 0
 142.285497147 105.022336534 132.568904215 119.181523679 129.073426802 124.241948778 c 0
 128.286548391 125.261865595 126.952810695 127.330959241 126.208974772 128.942603741 c 0
 124.41256002 132.834835703 120.830852662 136 113 136 c 0
 99.1742744249 136 81.2642188861 121.487196177 78.5513685228 107.380374288 c 0
484.09367321 534.872514754 m 1
 475.949840089 561.75928361 463.185713993 580.631937334 450.434620797 592.632966224 c 0
 426.005942189 616.247355545 393.421994714 624 370 624 c 0
 326.70371518 624 292.891261633 611.530914213 268.051773292 593.543698518 c 0
 236.615326472 570.839598037 216.188600093 538.372543422 210.586700459 509.562773874 c 0
 209.701457378 504.693936929 209.270372935 499.897485189 209.270372935 495.161802376 c 0
 209.270372935 483.494843637 211.886823064 472.196719517 216.774697403 461.093733086 c 0
 231.846457119 429.959718723 267.079890331 404 324 404 c 0
 366.224499416 404 398.391294163 414.105272979 420.687195291 428.969207064 c 0
 448.195584299 447.30813307 472.008118923 476.888712077 484.09367321 534.872514754 c 1
533 534.27173311 m 0
 517.901143028 461.830774053 485.131442345 414.243218027 447.312804709 389.030792936 c 0
 415.608705837 367.894727021 373.775500584 356 324 356 c 0
 251.168840362 356 196.825068492 391.221102564 173.215302083 440.925873951 c 0
 165.418038605 458.253126124 161.265533318 476.264825026 161.265533318 494.972371963 c 0
 161.265533318 502.675735664 161.96963813 510.497088365 163.413299541 518.437226126 c 0
 171.811399907 561.627456578 199.384673528 603.160401963 239.948226708 632.456301482 c 0
 273.108738367 656.469085787 317.29628482 672 370 672 c 0
 402.578005286 672 447.99405781 661.752644455 483.565379203 627.367033776 c 0
 503.8989847 608.22952272 522.161315525 579.06883679 532.200925469 541.141421448 c 0
 532.615348306 539.575824062 533 536.525933652 533 534.27173311 c 0
EndSplineSet
EndChar

StartChar: colon
Encoding: 58 58 26
Width: 288
Flags: HW
LayerCount: 2
Back
SplineSet
184.221679688 456 m 0
 177.547851562 443.068359375 162.038085938 432 148.73046875 432 c 0
 140.73046875 432 134.321289062 440 135.913085938 448 c 0
 136.448242188 450.692382812 137.436523438 453.383789062 138.787109375 456 c 1024
138.787109375 456 m 0
 145.4609375 468.931640625 160.970703125 480 174.278320312 480 c 0
 182.278320312 480 188.686523438 472 187.095703125 464 c 0
 186.560546875 461.307617188 185.571289062 458.616210938 184.221679688 456 c 1024
107.838867188 72 m 0
 101.166015625 59.068359375 85.65625 48 72.34765625 48 c 0
 64.34765625 48 57.939453125 56 59.5302734375 64 c 0
 60.06640625 66.6923828125 61.0546875 69.3837890625 62.404296875 72 c 1024
62.404296875 72 m 0
 69.078125 84.931640625 84.587890625 96 97.8955078125 96 c 0
 105.895507812 96 112.3046875 88 110.712890625 80 c 0
 110.177734375 77.3076171875 109.189453125 74.6162109375 107.838867188 72 c 1024
EndSplineSet
Fore
SplineSet
37.5405759601 68.7969089956 m 0
 36.2039071653 65.558814374 36.3930487662 65.0457138787 35.6943658899 60.1549337442 c 0
 32.8736338473 44.6409075103 37.2071153836 37.7340101134 41.9705627485 32.9705627485 c 0
 47.1328300788 27.8082954182 52.6926156504 24 63 24 c 0
 75.67862176 24 87.0514418548 28.0581257983 97.6253604842 34.5651526472 c 0
 111.089758275 42.4853866417 120.414920207 51.4576536555 128.857231501 66.4968238945 c 0
 129.83313266 69.3508750245 129.771482359 69.2085961771 130.533747416 70.733126292 c 0
 133.070931964 75.8074953887 134.864596363 80.7578020278 135.241212152 83.3941125497 c 0
 135.30285268 83.8255962448 135.444387118 84.6342755174 135.571510556 85.2063309876 c 0
 137.984878804 96.0664881045 135.814625559 100.842344233 131.182055277 107.460301779 c 0
 126.344121091 114.717203057 120.189134298 120 107 120 c 0
 94.32137824 120 82.9485581452 115.941874202 72.3746395158 109.434847353 c 0
 58.9461998597 101.535765202 47.2113457026 87.1713715063 37.5405759601 68.7969089956 c 0
-6.94598098421 87.7736694916 m 0
 7.00102983441 113.296349893 27.7860164351 138.894950265 47.6253604842 150.565152647 c 0
 63.0514418548 160.058125798 83.67862176 168 107 168 c 0
 137.810865702 168 159.655878909 151.282796943 170.817944723 134.539698221 c 0
 178.167314825 124.040598075 184.152877195 108.515425265 184.152877195 90.9481231298 c 0
 184.152877195 85.990970066 183.676271226 80.8712105559 182.619213554 75.6558905185 c 0
 180.692246867 64.2856817315 177.918802696 58.599821989 174.247488994 50.8267647031 c 0
 172.730290577 46.3395995436 173.14330218 47.5420888141 172.238037337 45.822085612 c 0
 160.205985879 22.9611878409 142.46356581 5.25186282031 122.374639516 -6.56515264716 c 0
 106.948558145 -16.0581257983 86.32137824 -24 63 -24 c 0
 37.3073843496 -24 18.8671699212 -11.8082954182 8.02943725152 -0.970562748477 c 0
 -4.64260054258 11.7014750456 -12.9593170969 30.1734844205 -12.9593170969 52.5050096319 c 0
 -12.9593170969 57.5479415342 -12.5352043397 62.7876902803 -11.6413601849 68.2019099679 c 0
 -10.0922602383 78.0994719457 -11.2858203341 79.0939907918 -6.94598098421 87.7736694916 c 0
72.7525110059 477.173235297 m 0
 74.2697094231 481.660400456 73.8566978196 480.457911186 74.7619626628 482.177914388 c 0
 86.7940141213 505.038812159 104.53643419 522.74813718 124.625360484 534.565152647 c 0
 140.051441855 544.058125798 160.67862176 552 184 552 c 0
 214.810865702 552 236.655878909 535.282796943 247.817944723 518.539698221 c 0
 255.421235901 507.67785368 260.305103713 492.646861014 260.305103713 476.269550437 c 0
 260.305103713 470.845785025 259.769454434 465.274359144 258.619537986 459.657804854 c 0
 256.691845028 448.283310648 253.919278289 442.600828935 250.247488994 434.826764703 c 0
 248.730290577 430.339599544 249.14330218 431.542088814 248.238037337 429.822085612 c 0
 236.205985879 406.961187841 218.46356581 389.25186282 198.374639516 377.434847353 c 0
 182.948558145 367.941874202 162.32137824 360 139 360 c 0
 108.189134298 360 86.3441210915 376.717203057 75.1820552773 393.460301779 c 0
 67.5787640986 404.32214632 62.6948962867 419.353138986 62.6948962867 435.730449563 c 0
 62.6948962867 441.154214975 63.230545566 446.725640856 64.3804620139 452.342195146 c 0
 66.3081549723 463.716689352 69.0807217107 469.399171065 72.7525110059 477.173235297 c 0
118.142768499 461.503176106 m 0
 117.16686734 458.649124975 117.228517641 458.791403823 116.466252584 457.266873708 c 0
 113.929068036 452.192504611 112.135403637 447.242197972 111.758787848 444.60588745 c 0
 111.69714732 444.174403755 111.555612882 443.365724483 111.428489444 442.793669012 c 0
 108.776495439 430.859695988 110.91383324 426.11700034 114.817944723 420.539698221 c 0
 119.655878909 413.282796943 125.810865702 408 139 408 c 0
 151.67862176 408 163.051441855 412.058125798 173.625360484 418.565152647 c 0
 187.089758275 426.485386642 196.414920207 435.457653655 204.857231501 450.496823894 c 0
 205.83313266 453.350875025 205.771482359 453.208596177 206.533747416 454.733126292 c 0
 209.070931964 459.807495389 210.864596363 464.757802028 211.241212152 467.39411255 c 0
 211.30285268 467.825596245 211.444387118 468.634275517 211.571510556 469.206330988 c 0
 214.223504561 481.140304012 212.08616676 485.88299966 208.182055277 491.460301779 c 0
 203.344121091 498.717203057 197.189134298 504 184 504 c 0
 171.32137824 504 159.948558145 499.941874202 149.374639516 493.434847353 c 0
 135.910241725 485.514613358 126.585079793 476.542346345 118.142768499 461.503176106 c 0
EndSplineSet
EndChar

StartChar: semicolon
Encoding: 59 59 27
Width: 296
Flags: HW
LayerCount: 2
Back
SplineSet
97.8955078125 96 m 0
 105.895507812 96 112.3046875 88.0009765625 110.712890625 79.9990234375 c 0
 107.530273438 64 88.34765625 48 72.34765625 48 c 0
 64.3486328125 48 57.939453125 56 59.5302734375 64 c 0
 62.712890625 80 81.8955078125 96 97.8955078125 96 c 0
 105.895507812 96 120.3046875 88 115.530273438 64 c 0
 107.57421875 24 57.6611328125 -56 57.6611328125 -56 c 1024
184.221679688 456 m 0
 177.547851562 443.068359375 162.038085938 432 148.73046875 432 c 0
 140.73046875 432 134.321289062 440 135.913085938 448 c 0
 136.448242188 450.692382812 137.436523438 453.383789062 138.787109375 456 c 1024
138.787109375 456 m 0
 145.4609375 468.931640625 160.970703125 480 174.278320312 480 c 0
 182.278320312 480 188.686523438 472 187.095703125 464 c 0
 186.560546875 461.307617188 185.571289062 458.616210938 184.221679688 456 c 1024
EndSplineSet
Fore
SplineSet
72.7525110059 477.173235297 m 0
 74.2697094231 481.660400456 73.8566978196 480.457911186 74.7619626628 482.177914388 c 0
 86.7940141213 505.038812159 104.53643419 522.74813718 124.625360484 534.565152647 c 0
 140.051441855 544.058125798 160.67862176 552 184 552 c 0
 214.810865702 552 236.655878909 535.282796943 247.817944723 518.539698221 c 0
 255.421235901 507.67785368 260.305103713 492.646861014 260.305103713 476.269550437 c 0
 260.305103713 470.845785025 259.769454434 465.274359144 258.619537986 459.657804854 c 0
 256.691845028 448.283310648 253.919278289 442.600828935 250.247488994 434.826764703 c 0
 248.730290577 430.339599544 249.14330218 431.542088814 248.238037337 429.822085612 c 0
 236.205985879 406.961187841 218.46356581 389.25186282 198.374639516 377.434847353 c 0
 182.948558145 367.941874202 162.32137824 360 139 360 c 0
 108.189134298 360 86.3441210915 376.717203057 75.1820552773 393.460301779 c 0
 67.5787640986 404.32214632 62.6948962867 419.353138986 62.6948962867 435.730449563 c 0
 62.6948962867 441.154214975 63.230545566 446.725640856 64.3804620139 452.342195146 c 0
 66.3081549723 463.716689352 69.0807217107 469.399171065 72.7525110059 477.173235297 c 0
118.142768499 461.503176106 m 0
 117.16686734 458.649124975 117.228517641 458.791403823 116.466252584 457.266873708 c 0
 113.929068036 452.192504611 112.135403637 447.242197972 111.758787848 444.60588745 c 0
 111.69714732 444.174403755 111.555612882 443.365724483 111.428489444 442.793669012 c 0
 108.776495439 430.859695988 110.91383324 426.11700034 114.817944723 420.539698221 c 0
 119.655878909 413.282796943 125.810865702 408 139 408 c 0
 151.67862176 408 163.051441855 412.058125798 173.625360484 418.565152647 c 0
 187.089758275 426.485386642 196.414920207 435.457653655 204.857231501 450.496823894 c 0
 205.83313266 453.350875025 205.771482359 453.208596177 206.533747416 454.733126292 c 0
 209.070931964 459.807495389 210.864596363 464.757802028 211.241212152 467.39411255 c 0
 211.30285268 467.825596245 211.444387118 468.634275517 211.571510556 469.206330988 c 0
 214.223504561 481.140304012 212.08616676 485.88299966 208.182055277 491.460301779 c 0
 203.344121091 498.717203057 197.189134298 504 184 504 c 0
 171.32137824 504 159.948558145 499.941874202 149.374639516 493.434847353 c 0
 135.910241725 485.514613358 126.585079793 476.542346345 118.142768499 461.503176106 c 0
140.554977614 69.1343513684 m 0
 141.511422913 74.0830634206 141.952854926 78.6014612356 141.952854926 82.7208908683 c 0
 141.952854926 101.890155251 132.394117255 112.420190769 120.690979607 117.469548935 c 0
 116.477599575 118.786230195 110.824546082 120 107 120 c 0
 92.9486766287 120 78.6886562386 113.809960861 66.1224368934 104.594733341 c 0
 51.2873111046 93.8804758273 39.2430599193 79.309033474 35.5210628921 59.2102495267 c 0
 32.71016253 46.5611978977 35.068341145 41.896274761 38.5960290249 36.856720647 c 0
 42.4621314072 31.4441773118 46.7006289745 27.5685394845 49.9133762325 26.2834405812 c 0
 57.2927313569 23.3316985315 64.8179953293 13.7594619069 64.8179953293 3.16078826686 c 0
 64.8179953293 -0.4505289044 63.9443202141 -4.18101431759 61.8935081293 -7.80937416003 c 0
 48.5259128515 -31.4597350361 37.9000401227 -48.8247342284 37.2349064446 -49.9142556387 c 0
 34.786625359 -53.586677267 34.4267919701 -54.7180836943 33.7587878479 -59.3941125497 c 0
 33.7204202521 -59.6626857201 33.6373701367 -60.1724173201 33.5681547275 -60.5323374476 c 0
 31.1280998481 -73.2206228207 37.6083326218 -80 48 -80 c 0
 58.3530773032 -80 70.6453377881 -73.0969360046 77.8503162283 -61.9619693242 c 0
 77.9662760913 -61.7827586269 78.3307667511 -61.2314502947 78.8339761574 -60.5537856853 c 0
 81.3284139882 -56.7314707809 95.9959210321 -32.4921123728 109.602546681 -6.12927517865 c 0
 116.688666889 8.04296523715 124.338054434 22.4671137694 129.780223144 36.0725355453 c 0
 134.535679201 47.4856300827 137.539357508 56.3363221474 140.554977614 69.1343513684 c 0
187.451439221 58.8895907778 m 0
 183.999583598 43.9315497431 179.575776172 30.7818628121 174.219776856 17.9274644547 c 0
 167.661945566 1.53288623059 159.311333111 -14.0429652371 152.397453319 -27.8707248213 c 0
 136.007766934 -59.6257421921 121.410862892 -83.5998402806 117.592371993 -88.889583208 c 0
 102.38542195 -111.647570514 77.2419600554 -128 48 -128 c 0
 10.1907323241 -128 -14.7044842908 -97.7487893535 -14.7044842908 -63.9182296654 c 0
 -14.7044842908 -59.9982032351 -14.370231121 -56.0301190281 -13.6830850993 -52.0554717574 c 0
 -11.903930115 -40.9165898717 -8.83771965293 -32.9153017096 -3.00924439352 -23.7146645644 c 2
 -3.00924439352 -23.7146645644 2.74810808765 -14.2031752276 9.37477196532 -2.86855980145 c 1
 4.12523473739 2.56735152925 2.32085106921 5.0596472213 -0.596029024883 9.14327935303 c 0
 -8.49532943104 20.427994219 -13.3661197576 34.395139839 -13.3661197576 50.8105839489 c 0
 -13.3661197576 56.6710536827 -12.7453093114 62.8435732434 -11.4198592682 69.3174889267 c 0
 -4.50562779321 104.209206409 16.7444602168 128.142470127 37.8775631066 143.405266659 c 0
 55.3113437614 156.190039139 79.0513233713 168 107 168 c 0
 118.941896199 168 129.100451935 165.264737303 136.589466384 162.768399153 c 0
 137.014492004 162.626723947 137.60499395 162.406793494 137.913376232 162.283440581 c 0
 168.258792472 150.145274086 189.792980263 119.972414955 189.792980263 81.3660705882 c 0
 189.792980263 74.14781087 189.040186271 66.6347326486 187.451439221 58.8895907778 c 0
EndSplineSet
EndChar

StartChar: less
Encoding: 60 60 28
Width: 640
Flags: HW
LayerCount: 2
Back
SplineSet
493.03515625 152 m 1
 104 368 l 1025
578.96484375 584 m 1
 104 368 l 1025
EndSplineSet
Fore
SplineSet
564.528477771 147.26134238 m 0
 557.283576782 109.587857234 521.167388647 80 483 80 c 0
 470.576224519 80 460.728640532 83.3028640038 451.802780439 87.7657940505 c 2
 65.8004140628 302.101298259 l 2
 63.4210760247 302.896454631 62.5944199311 303.304019188 61.0926654794 304.162164589 c 0
 41.5368068032 315.336940975 30.9521234097 336.039116454 30.9521234097 358.173068183 c 0
 30.9521234097 363.016971253 31.4590567362 367.92944653 32.4898348298 372.825642475 c 0
 38.2068843819 401.410890236 59.7714017756 424.487259086 84.8069971092 434.185091079 c 2
 556.297387259 648.952959474 l 2
 566.331239443 653.253181839 576.874267376 656 589 656 c 0
 625.928782166 656 651.798325333 626.800722416 651.798325333 592.474787313 c 0
 651.798325333 588.136008762 651.38501242 583.715322551 650.528477771 579.26134238 c 0
 644.680955114 551.485609757 625.606644731 530.290240963 602.071344442 519.214805533 c 2
 264.34445831 365.86375225 l 1
 534.773299748 215.914426709 l 2
 554.1159547 204.861481023 566.0303279 184.490460896 566.0303279 161.493946947 c 0
 566.0303279 156.838825179 565.542114968 152.076119067 564.528477771 147.26134238 c 0
517.471522229 156.73865762 m 0
 519.469812215 166.230535055 515.968564271 171.375936708 511.226700252 174.085573291 c 2
 199.361709206 347.010712556 l 2
 195.527716496 349.13661236 192.164920331 352.462718192 189.993139342 356.393458514 c 0
 188.005327885 359.991229505 187.070928085 363.909068047 187.070928085 367.787720695 c 0
 187.070928085 376.92686497 192.25871378 385.84844925 201.077372833 389.852722258 c 2
 581.928655558 562.785194467 l 2
 592.302424292 567.666967989 600.937773324 577.67861093 603.470931865 588.731226932 c 0
 605.605921942 601.080614418 599.577976174 608 589 608 c 0
 584.988936246 608 580.77563347 607.132241878 575.719849311 605.05489193 c 2
 103.948699119 390.159134957 l 2
 103.564361199 389.984065777 102.829987538 389.676155327 102.296928612 389.479765196 c 0
 91.0223255982 385.325964086 81.8299140511 374.773101929 79.5101651702 363.174357525 c 0
 77.5784065473 353.998504066 80.0208134277 349.884900262 82.8457746256 347.311197632 c 0
 83.1500497845 347.187719614 84.8102525864 346.449077072 85.6508503338 345.982318425 c 2
 474.157287555 130.256378991 l 2
 477.359507317 128.7084782 479.370973284 128 483 128 c 0
 496.832611353 128 514.716423218 142.412142766 517.471522229 156.73865762 c 0
EndSplineSet
EndChar

StartChar: equal
Encoding: 61 61 29
Width: 640
Flags: HW
AnchorPoint: "middle" 320 368 basechar 0
LayerCount: 2
Back
SplineSet
80.130859375 248 m 1
 512.130859375 248 l 1025
127.869140625 488 m 1
 559.869140625 488 l 1025
EndSplineSet
Fore
SplineSet
118 416 m 2
 81.0298122836 416 55.1823049702 445.385042438 55.1823049702 479.512535615 c 0
 55.1823049702 483.794046432 55.5891265492 488.150200086 56.4318452725 492.532337448 c 0
 63.6469554851 530.050910553 98.4634478993 560 137 560 c 2
 569 560 l 2
 605.553328284 560 632.804888737 531.045009597 632.804888737 496.32474695 c 0
 632.804888737 492.110175957 632.403345682 487.810655515 631.568154728 483.467662552 c 0
 624.250023389 445.413379591 588.179323891 416 550 416 c 2
 118 416 l 2
118 464 m 2
 550 464 l 2
 563.820676109 464 581.749976611 478.586620409 584.431845272 492.532337448 c 0
 586.716227025 504.41112256 580.009591309 512 569 512 c 2
 137 512 l 2
 123.536552101 512 106.353044515 497.949089447 103.568154728 483.467662552 c 0
 101.128099848 470.779377179 107.608332622 464 118 464 c 2
71 176 m 2
 34.4466717158 176 7.19511126261 204.954990403 7.19511126261 239.67525305 c 0
 7.19511126261 243.889824043 7.5966543182 248.189344485 8.43184527246 252.532337448 c 0
 15.7499766112 290.586620409 51.820676109 320 90 320 c 2
 522 320 l 2
 558.970187716 320 584.81769503 290.614957562 584.81769503 256.487464385 c 0
 584.81769503 252.205953568 584.410873451 247.849799914 583.568154728 243.467662552 c 0
 576.353044515 205.949089447 541.536552101 176 503 176 c 2
 71 176 l 2
71 224 m 2
 503 224 l 2
 516.463447899 224 533.646955485 238.050910553 536.431845272 252.532337448 c 0
 538.871900152 265.220622821 532.391667378 272 522 272 c 2
 90 272 l 2
 76.179323891 272 58.2500233888 257.413379591 55.5681547275 243.467662552 c 0
 53.2837729752 231.58887744 59.9904086906 224 71 224 c 2
EndSplineSet
EndChar

StartChar: greater
Encoding: 62 62 30
Width: 640
Flags: HW
LayerCount: 2
Back
SplineSet
61.03515625 152 m 1
 536 368 l 1025
146.96484375 584 m 1
 536 368 l 1025
EndSplineSet
Fore
SplineSet
51 80 m 0
 14.0712178339 80 -11.7983253329 109.199277584 -11.7983253329 143.525212687 c 0
 -11.7983253329 147.863991238 -11.3850124195 152.284677449 -10.5284777713 156.73865762 c 0
 -4.68095511386 184.514390243 14.3933552693 205.709759037 37.9286555584 216.785194467 c 2
 375.65554169 370.13624775 l 1
 105.226700252 520.085573291 l 2
 85.8727602246 531.144967592 73.9985958913 551.822019008 73.9985958913 574.726513897 c 0
 73.9985958913 579.327319949 74.47769953 584.017999801 75.4715222287 588.73865762 c 0
 82.7164232183 626.412142766 118.832611353 656 157 656 c 0
 169.423775481 656 179.271359468 652.697135996 188.197219561 648.234205949 c 2
 574.199585937 433.898701741 l 2
 576.578923975 433.103545369 577.405580069 432.695980812 578.907334521 431.837835411 c 0
 598.463193197 420.663059025 609.04787659 399.960883546 609.04787659 377.826931817 c 0
 609.04787659 372.983028747 608.540943264 368.07055347 607.51016517 363.174357525 c 0
 601.793115618 334.589109764 580.228598224 311.512740914 555.193002891 301.814908921 c 2
 83.7026127408 87.0470405259 l 2
 73.6687605565 82.7468181613 63.1257326238 80 51 80 c 0
51 128 m 0
 55.0110637545 128 59.2243665301 128.867758122 64.2801506887 130.94510807 c 2
 536.051300881 345.840865043 l 2
 536.435638801 346.015934223 537.170012462 346.323844673 537.703071388 346.520234804 c 0
 548.977674402 350.674035914 558.170085949 361.226898071 560.48983483 372.825642475 c 0
 562.421593453 382.001495934 559.979186572 386.115099738 557.154225374 388.688802368 c 0
 556.849950216 388.812280386 555.189747414 389.550922928 554.349149666 390.017681575 c 2
 165.842712445 605.743621009 l 2
 162.640492683 607.2915218 160.629026716 608 157 608 c 0
 143.167388647 608 125.283576782 593.587857234 122.528477771 579.26134238 c 0
 120.469913272 569.483161008 124.014848947 564.633541453 128.773299748 561.914426709 c 2
 440.638290794 388.989287444 l 2
 444.472283504 386.86338764 447.835079669 383.537281808 450.006860658 379.606541486 c 0
 451.994672115 376.008770495 452.929071915 372.090931953 452.929071915 368.212279305 c 0
 452.929071915 359.07313503 447.74128622 350.15155075 438.922627167 346.147277742 c 2
 58.0713444416 173.214805533 l 2
 47.6975757077 168.333032011 39.0622266755 158.32138907 36.5290681348 147.268773068 c 0
 34.394078058 134.919385582 40.4220238259 128 51 128 c 0
EndSplineSet
EndChar

StartChar: question
Encoding: 63 63 31
Width: 640
Flags: HW
LayerCount: 2
Back
SplineSet
267.838867188 72 m 0
 261.166015625 59.068359375 245.65625 48 232.34765625 48 c 0
 224.34765625 48 217.939453125 56 219.530273438 64 c 0
 220.06640625 66.6923828125 221.0546875 69.3837890625 222.404296875 72 c 1024
222.404296875 72 m 0
 229.078125 84.931640625 244.587890625 96 257.895507812 96 c 0
 265.895507812 96 272.3046875 88 270.712890625 80 c 0
 270.177734375 77.3076171875 269.189453125 74.6162109375 267.838867188 72 c 1024
145.416992188 536 m 0
 166.666992188 642.828125 261.486328125 696 369.243164062 696 c 0
 481.243164062 696 551.6953125 648 534.19140625 560 c 0
 520.313476562 490.232421875 479.068359375 459.178710938 411.138671875 424 c 0
 326.973632812 380.413085938 299.2265625 344 278.5390625 240 c 1024
EndSplineSet
Fore
SplineSet
197.54057596 68.7969089956 m 0
 196.203907165 65.558814374 196.393048766 65.0457138787 195.69436589 60.1549337442 c 0
 192.873633847 44.6409075103 197.207115384 37.7340101134 201.970562748 32.9705627485 c 0
 207.132830079 27.8082954182 212.69261565 24 223 24 c 0
 235.67862176 24 247.051441855 28.0581257983 257.625360484 34.5651526472 c 0
 271.089758275 42.4853866417 280.414920207 51.4576536555 288.857231501 66.4968238945 c 0
 289.83313266 69.3508750245 289.771482359 69.2085961771 290.533747416 70.733126292 c 0
 293.183178782 76.0319890245 294.786079257 80.2081822845 295.30563411 83.8450662558 c 0
 298.126366153 99.3590924897 293.792884616 106.265989887 289.029437252 111.029437252 c 0
 284.451129887 115.607744616 277.513772684 120 267 120 c 0
 254.32137824 120 242.948558145 115.941874202 232.374639516 109.434847353 c 0
 218.94619986 101.535765202 207.211345703 87.1713715063 197.54057596 68.7969089956 c 0
153.054019016 87.7736694916 m 0
 167.001029834 113.296349893 187.786016435 138.894950265 207.625360484 150.565152647 c 0
 223.051441855 160.058125798 243.67862176 168 267 168 c 0
 292.486227316 168 311.548870113 156.392255384 322.970562748 144.970562748 c 0
 335.640244345 132.300881152 343.950286539 114.240531823 343.950286539 91.7001466278 c 0
 343.950286539 86.4868600803 343.505753796 81.0339210035 342.567812704 75.3525960171 c 0
 340.755911624 64.6613403181 337.843452866 58.4402882104 334.247488994 50.8267647031 c 0
 332.730290577 46.3395995436 333.14330218 47.5420888141 332.238037337 45.822085612 c 0
 320.205985879 22.9611878409 302.46356581 5.25186282031 282.374639516 -6.56515264716 c 0
 266.948558145 -16.0581257983 246.32137824 -24 223 -24 c 0
 197.30738435 -24 178.867169921 -11.8082954182 168.029437252 -0.970562748477 c 0
 155.357399457 11.7014750456 147.040682903 30.1734844205 147.040682903 52.5050096319 c 0
 147.040682903 57.5479415342 147.46479566 62.7876902803 148.358639815 68.2019099679 c 0
 149.907739762 78.0994719457 148.714179666 79.0939907918 153.054019016 87.7736694916 c 0
216.551368523 531.380374288 m 0
 209.36725422 494.022979913 174.531487186 464 136 464 c 0
 99.4581461454 464 72.2008362797 492.902137397 72.2008362797 527.680267857 c 0
 72.2008362797 531.910920709 72.6041892949 536.228526364 73.4432486111 540.591634808 c 0
 91.0137141835 629.542116769 147.278653159 691.136015227 209.233730249 725.917812891 c 0
 261.440578299 755.284164919 320.560266031 768 379 768 c 0
 468.101304822 768 540.872500188 741.961722275 581.327041935 687.229106971 c 0
 600.497295843 661.087851642 609.784702263 629.793344209 609.784702263 596.018914542 c 0
 609.784702263 582.717193481 608.344133228 569.030811836 605.499369756 555.123079309 c 0
 596.75955133 513.608941783 579.261201225 474.926556933 552.222158457 443.381007037 c 0
 518.869842873 404.46997219 477.584659652 380.969039139 437.931419304 360.634044089 c 0
 396.197994236 339.28205917 384.302766424 327.45163673 375.321959523 313.232025803 c 0
 368.157049093 301.768169114 359.236541062 277.838139027 350.541472421 235.328914558 c 0
 343.272587668 197.530713843 307.171297574 168 269 168 c 0
 232.04735285 168 206.190513031 197.306356483 206.190513031 231.51798271 c 0
 206.190513031 235.823713793 206.600077066 240.207142773 207.448631477 244.619625712 c 0
 219.697995251 305.866444581 235.705722451 358.848871137 274.723075215 404.554912946 c 0
 305.376634256 440.682321816 342.527824585 465.558564702 383.820876555 487.237416987 c 0
 419.13371283 505.874747243 439.041633495 519.763881704 446.616014638 528.430757915 c 0
 453.925552135 537.476492336 458.180110302 544.137975904 462.462436653 564.693142387 c 0
 465.59248877 581.125916 463.098893401 587.868142132 458.710562456 593.719250058 c 0
 447.286180793 609.35261444 412.346158727 624 360 624 c 0
 322.348368627 624 289.368364062 615.54329123 267.825158516 603.1145188 c 0
 252.586738074 594.648729665 241.881435001 584.646113807 232.75486179 571.371098228 c 0
 225.657744977 561.119707276 219.981363334 548.530348345 216.551368523 531.380374288 c 0
169.448631477 540.619625712 m 0
 174.028985545 563.521396051 182.315653128 582.841867765 193.267387401 598.661039492 c 0
 206.096853812 617.322081545 223.425802329 633.358237225 244.174841484 644.8854812 c 0
 274.631635938 662.45670877 315.651631373 672 360 672 c 0
 417.653841273 672 470.713819207 658.64738556 497.289437544 622.280749942 c 0
 507.056323913 609.258234783 511.620409589 593.605358594 511.620409589 576.356319535 c 0
 511.620409589 569.566150773 510.91313979 562.528633939 509.537563347 555.306857613 c 0
 503.841473387 527.965625807 494.675322282 511.369383936 483.400978445 497.589630357 c 0
 466.841401703 478.270124157 442.897715197 464.141839771 406.202206869 444.774765932 c 0
 367.461370179 424.435826669 336.604131942 403.295009775 311.300219249 373.472541243 c 0
 280.267973977 337.120482496 266.305125659 294.149159968 254.551368523 235.380374288 c 0
 252.142198704 222.852691231 258.603351574 216 269 216 c 0
 282.828702426 216 300.727412332 230.469286157 303.458527579 244.671085442 c 0
 312.763458938 290.161860973 321.842950907 318.231830886 334.678040477 338.767974197 c 0
 349.697233576 362.54836327 371.802005764 380.71794083 416.068580696 403.365955911 c 0
 454.415340348 423.030960861 489.130157127 443.53002781 515.777841543 474.618992963 c 0
 536.738798775 499.073443067 551.24044867 530.391058217 558.500630244 564.876920691 c 0
 560.76704861 575.957188262 561.859298089 586.442944053 561.859298089 596.320605946 c 0
 561.859298089 621.023627904 555.027835379 641.923333056 542.646280099 658.807272073 c 0
 515.152540679 696.00468423 459.88880644 720 379 720 c 0
 327.439733969 720 276.559421701 708.715835081 232.766269751 684.082187109 c 0
 180.721346841 654.863984773 134.986285816 604.457883231 120.556751389 531.408365192 c 0
 118.293307471 519.638456817 124.987058245 512 136 512 c 0
 149.468512814 512 166.63274578 525.977020087 169.448631477 540.619625712 c 0
EndSplineSet
EndChar

StartChar: at
Encoding: 64 64 32
Width: 880
Flags: HW
LayerCount: 2
Back
SplineSet
571.811523438 444.380859375 m 0
 561.30859375 504.428710938 521.4609375 545.881835938 465.735351562 545.881835938 c 0
 388.545898438 545.881835938 310.129882812 466.2421875 290.587890625 368 c 0
 271.045898438 269.7578125 317.780273438 190.118164062 394.969726562 190.118164062 c 0
 450.678710938 190.118164062 507.026367188 231.599609375 541.419921875 291.619140625 c 1024
519.063476562 70.470703125 m 0
 473.1640625 50.9169921875 424.149414062 40 374.756835938 40 c 0
 193.607421875 40 75.966796875 186.850585938 112 368 c 0
 148.033203125 549.149414062 324.09375 696 505.243164062 696 c 0
 686.392578125 696 804.033203125 549.149414062 768 368 c 0
 759.448242188 325.0078125 748.743164062 282.721679688 720.48828125 246.32421875 c 0
 698.065429688 217.439453125 654.583007812 200 622.583007812 200 c 0
 574.080078125 200 530.265625 231.52734375 538.31640625 272 c 2
 591.53125 539.529296875 l 1025
EndSplineSet
Fore
SplineSet
497.450366479 432.628300721 m 1
 488.801436681 464.7129026 470.954798432 474 456 474 c 0
 447.566342329 474 436.054112949 470.858331762 424.162668782 462.930702318 c 0
 399.308969399 446.896057555 371.355593656 409.162344982 362.568154728 363.467662552 c 0
 360.614663026 353.309505704 359.753623663 343.757362257 359.753623663 334.901306491 c 0
 359.753623663 303.467897597 370.601014409 280.803814923 381.948160314 270.936731527 c 0
 388.743772634 264.758902145 396.597516244 262 405 262 c 0
 421.715890528 262 449.886938335 276.637489164 473.357267688 312.162806766 c 1
 497.450366479 432.628300721 l 1
545.490975006 437.916715699 m 0
 546.075729641 435.122887998 546.163823548 431.442649414 545.533936217 428.293212757 c 2
 519.533936217 298.293212757 l 2
 519.048065993 295.86386164 517.854988338 292.673640006 516.325359732 290.237564819 c 0
 486.751939073 243.139154139 445.966167282 214 405 214 c 0
 385.402483756 214 365.256227366 221.241097855 350.051839686 235.063268473 c 0
 325.742427894 256.201887422 311.692882131 292.257228866 311.692882131 334.220405176 c 0
 311.692882131 346.556763842 312.907108195 359.403704644 315.431845272 372.532337448 c 0
 326.644406344 430.837655018 360.691030601 479.103942445 397.837331218 503.069297682 c 0
 415.945887051 515.141668238 436.433657671 522 456 522 c 0
 498.460926426 522 534.766163376 489.157482375 545.490975006 437.916715699 c 0
529 95 m 0
 526.649214735 95 522.670195802 94.1760046952 517.522147334 91.9696982089 c 0
 475.606457495 73.6987564841 429.373733161 64 384 64 c 0
 235.44085942 64 130.365238838 171.288560446 130.365238838 312.48527862 c 0
 130.365238838 332.15538901 132.362056124 352.186748948 136.466063783 372.706787243 c 0
 169.738806109 539.07049887 328.77721249 672 496 672 c 0
 558.692357051 672 614.291562221 653.007865185 657.322594743 619.667621707 c 0
 715.527423448 574.570791655 749.634761725 504.028329116 749.634761725 423.515453666 c 0
 749.619585654 403.912711578 747.610808402 383.677573682 743.555526529 363.401164321 c 0
 735.37677816 320.462735381 724.828670174 284.438226898 703.2 255.6 c 0
 702.704631846 254.939509127 701.740945536 253.799820039 700.970562748 253.029437252 c 0
 696.157422385 248.216296888 688.772138717 242.196174467 677.574114614 235.975049965 c 0
 661.594884676 227.259106363 644.974565765 224 632 224 c 0
 617.319237918 224 603.725714684 227.969394891 592.252676815 233.068522833 c 0
 591.725133832 233.302986381 590.762735951 233.779267177 590.092665479 234.162164589 c 0
 579.860288867 240.009236939 572.934172557 246.332125859 568.030792936 253.687195291 c 0
 564.465393699 259.035294146 562.442560781 266.455994483 562.306813727 267.745591497 c 0
 561.718744068 273.592506037 561.80617846 273.43192588 562.472840921 276.740546979 c 2
 616.451882847 544.636532835 l 2
 617.961583339 552.486975393 615.132227884 557.885012162 611.109795236 560.907528263 c 0
 608.707409294 562.71271702 605.506265396 564 601 564 c 0
 592.925675432 564 582.661540271 559.386071722 575.691699365 551.782608916 c 0
 571.340938936 547.036324812 564.587199859 544.193179565 557.684115309 544.193179565 c 0
 552.906540071 544.193179565 548.057429477 545.555024725 543.883879256 548.590333977 c 0
 525.909970493 561.662267622 503.078585234 570 475 570 c 0
 443.640394125 570 410.952527966 558.824857664 382.167754596 539.93485014 c 0
 324.085189932 501.81816708 281.330906003 436.352893202 266.522414554 363.235966673 c 0
 262.979817596 345.74439419 261.276597277 328.941144605 261.276597277 313.021966293 c 0
 261.276597277 262.267237428 278.590005094 220.499182981 308.804110589 194.061840673 c 0
 328.722419494 176.633320381 353.789963377 166 385 166 c 0
 423.975037756 166 464.067418342 183.222677437 497.884752998 210.642137969 c 0
 502.024272315 213.998504984 507.471026429 215.784860136 513.001382732 215.784860136 c 0
 519.491300329 215.784860136 526.096348266 213.324832719 530.83905951 208.055153559 c 0
 537.594777543 200.548800189 546.438301209 194.008120983 555.492451136 189.06949375 c 0
 559.851792224 186.671856152 564.074168609 184.761716452 568.712130799 183.063476489 c 0
 581.490296401 178.384613102 596.109414864 176 613 176 c 0
 635.965796248 176 661.086163688 181.931029454 685.109042148 194.387336804 c 0
 704.828503067 204.247067264 723.682368772 218.134186716 738.009159967 236.674740026 c 0
 772.321785186 280.919967282 783.568700522 329.209708719 792.469666828 372.725543993 c 0
 797.182119999 396.632623496 799.450572483 419.894546176 799.450572483 442.310558343 c 0
 799.450572483 581.305222681 712.231947111 687.775885428 579.646648053 713.861425655 c 0
 559.23042002 717.878223455 537.642934891 720 515 720 c 0
 319.199864902 720 126.287344562 559.895391837 87.5469078545 363.358542202 c 0
 82.8275187706 339.41627563 80.5558289509 316.124194377 80.5558289509 293.682625937 c 0
 80.5558289509 154.623824164 167.780549084 48.2216560038 300.353351947 22.1385743454 c 0
 320.76957998 18.121776545 342.357065109 16 365 16 c 0
 418.356330242 16 469.889789659 27.7347229787 521.512086732 49.0467837189 c 0
 531.805236986 53.821133118 540.845187981 64.2264061356 543.47132645 75.7335093244 c 0
 545.247039718 86.004737957 540.968616641 91.7947248829 535.160243731 93.9684092936 c 0
 533.516345093 94.5836102969 531.520218193 95 529 95 c 0
579.739112322 608.914405623 m 1
 554.915368855 618.528211131 526.631682839 624 496 624 c 0
 353.22278751 624 212.261193891 506.92950113 183.533936217 363.293212757 c 0
 180.026586008 345.756461712 178.365231505 328.874518669 178.365231505 312.475812765 c 0
 178.365231505 197.130966552 260.592250119 112 384 112 c 0
 422.626266839 112 462.393542505 120.301243516 498.477852666 136.030301791 c 0
 507.329804198 139.823995305 517.350785265 143 529 143 c 0
 533.706941747 143 538.976900595 142.390269943 543.770305709 141.381289101 c 1
 539.940087916 143.06414477 536.071769632 144.970017397 532.470714197 146.950597886 c 0
 525.661808021 150.66454671 517.069145672 156.370811925 511.413094378 160.79672827 c 1
 473.367512414 134.487694253 430.957318067 118 385 118 c 0
 342.210036623 118 305.277580506 133.366679619 277.195889411 157.938159327 c 0
 234.319040339 195.455402265 213.322844008 251.262292639 213.322844008 313.165307071 c 0
 213.322844008 332.558221648 215.383489095 352.549432597 219.477585446 372.764033327 c 0
 236.669093997 457.647106798 285.914810068 534.18183292 355.832245404 580.06514986 c 0
 391.047472034 603.175142336 432.359605875 618 475 618 c 0
 505.670340018 618 533.750111985 609.962137103 555.971337095 597.702150836 c 1
 564.397788506 603.261343328 571.018999039 606.262338112 579.739112322 608.914405623 c 1
664.668744169 543.679772967 m 1
 664.412072287 540.893482334 664.030832645 537.873587722 663.548117153 535.363467165 c 2
 611.555831711 277.327680154 l 1
 612.929343051 276.420901312 l 2
 619.442936427 273.699634164 626.99263569 272 632 272 c 0
 635.025434235 272 648.405115324 274.740893637 654.425885386 278.024950035 c 0
 659.897690188 281.064841592 664.248039614 284.476243244 665.940500016 285.952337969 c 0
 679.792369255 305.251566781 688.835835596 332.653486837 696.444473471 372.598835679 c 0
 699.945320288 390.103069767 701.61355855 407.072125572 701.61355855 423.375741841 c 0
 701.61355855 469.906862426 688.02488045 511.017627978 664.668744169 543.679772967 c 1
559.517704416 135.525867133 m 1
 579.859497047 124.117686524 591.777847407 102.555469202 591.777847407 79.3040581508 c 0
 591.777847407 74.9965203941 591.368798058 70.6310078695 590.528477771 66.2613423802 c 0
 584.746059829 38.7948571538 566.092993884 16.3332653658 540.475647464 4.9477780681 c 0
 484.454923203 -18.3061074743 425.823747753 -32 365 -32 c 0
 339.357220605 -32 314.652932775 -29.5949908307 291.087212979 -24.9585451909 c 0
 134.716731413 5.80661894191 32.6914868976 134.35774992 32.6914868976 294.802719973 c 0
 32.6914868976 320.045066111 35.2167978758 346.076842967 40.4530921455 372.641457798 c 0
 83.7126554385 592.104608163 294.800135098 768 515 768 c 0
 540.642779395 768 565.347067225 765.594990831 588.912787021 760.958545191 c 0
 745.27048705 730.195895766 847.301942374 601.714497316 847.301942374 441.203278929 c 0
 847.301942374 415.935333352 844.773441174 389.873638065 839.530333172 363.274456007 c 0
 830.429315045 318.78058961 817.692967064 261.098996062 775.978071998 207.308736634 c 0
 756.333635762 181.886525035 731.159526521 163.74694753 706.890957852 151.612663196 c 0
 676.913836312 136.068970546 644.034203752 128 613 128 c 0
 594.433024132 128 576.426684242 130.340988155 559.517704416 135.525867133 c 1
EndSplineSet
EndChar

StartChar: A
Encoding: 65 65 33
Width: 688
Flags: HW
HStem: -0 21G<82.7602 106.528 581.472 605.24> 144 96<212.766 475.234> 716 20G<315.947 382.204>
LayerCount: 2
Back
SplineSet
112.991210938 192 m 5
 504.991210938 192 l 1029
32.34765625 48 m 1
 379.65234375 688 l 1
 435.65234375 688 l 1
 528.34765625 48 l 1025
EndSplineSet
Fore
SplineSet
227.302417747 264 m 1
 422.225158577 264 l 1
 380.720696651 547.119722422 l 1
 227.302417747 264 l 1
187 216 m 2
 184.559232204 216 180.287929386 216.720141823 177.256421268 218.066859014 c 0
 168.341595448 222.02718131 163.069184927 231.005819527 163.069184927 240.213968362 c 0
 163.069184927 244.028166526 163.973815087 247.881743684 165.898920887 251.434354388 c 2
 372.898920887 633.434354388 l 2
 375.844371133 638.869919576 381.856811965 643.847761075 388.666555531 645.399879703 c 0
 390.402254006 645.795490772 392.140906191 645.984609067 393.857146874 645.984609067 c 0
 405.440748775 645.984609067 416.003406941 637.369428074 417.746195893 625.481117723 c 2
 473.746195893 243.481117723 l 2
 475.368460497 232.414955602 466.292439108 216 450 216 c 2
 187 216 l 2
23 -24 m 0
 -13.5364423426 -24 -40.7964643275 4.87720931211 -40.7964643275 39.6826151613 c 0
 -40.7964643275 43.9208615857 -40.3922560472 48.2470105852 -39.5513685228 52.6196257122 c 0
 -38.024597737 60.2534796414 -35.3295272422 67.9718215701 -30.6104701641 76.3392252969 c 2
 315.830972748 715.309033549 l 2
 330.041901651 742.309798465 359.459149082 760 389 760 c 2
 445 760 l 2
 475.729158699 760 502.758201071 739.081132379 507.729330418 707.597313178 c 2
 600.756110231 67.5045441794 l 2
 602.575998631 55.2156070468 600.65678221 48.9074427219 599.551368523 43.3803742878 c 0
 592.36725422 6.02297991268 557.531487186 -24 519 -24 c 0
 487.18392345 -24 461.154508135 -2.52829068459 456.266167513 28.4311999249 c 2
 443.184910359 120 l 1
 149.369794584 120 l 1
 96.1970631283 20.7442346151 l 2
 82.1336002729 -5.97634481001 53.5383730514 -24 23 -24 c 0
23 24 m 0
 34.4616269486 24 47.8663997271 31.97634481 53.8029368717 43.2557653849 c 2
 113.844480719 155.3333139 l 2
 117.602052446 162.347447791 125.979344713 168 135 168 c 2
 464 168 l 2
 475.548502708 168 486.074216864 159.186109433 487.758787848 147.39411255 c 2
 503.733832487 35.5688000751 l 2
 504.845491865 28.5282906846 508.81607655 24 519 24 c 0
 532.468512814 24 549.63274578 37.9770200873 552.448631477 52.6196257122 c 0
 553.147638341 56.1146600325 553.43197171 58.7086844166 553.411880466 59.5726079371 c 0
 553.362057111 59.8401701339 553.295574609 60.2312973865 553.24944514 60.5487474969 c 2
 460.270669582 700.402686822 l 2
 459.241798929 706.918867621 454.270841301 712 445 712 c 2
 389 712 l 2
 378.540850918 712 363.958098349 703.690201535 358.169027252 692.690966451 c 2
 10.8490209129 52.1007530294 l 2
 9.18456530687 49.3266603527 8.09870507498 46.1170570487 7.5513685228 43.3803742878 c 0
 5.29780816252 31.6618604143 11.9854766906 24 23 24 c 0
EndSplineSet
EndChar

StartChar: B
Encoding: 66 66 34
Width: 696
Flags: HW
AnchorPoint: "above" 431 784 basechar 0
LayerCount: 2
Back
SplineSet
163.978515625 388 m 1
 403.978515625 388 l 2
 499.978515625 388 577.90234375 458 593.815429688 538 c 0
 609.728515625 618 559.65234375 688 463.65234375 688 c 2
 207.65234375 688 l 1
 80.34765625 48 l 1
 352.34765625 48 l 2
 456.34765625 48 530.25 138 546.163085938 218 c 0
 562.076171875 298 523.978515625 388 419.978515625 388 c 1024
EndSplineSet
Fore
SplineSet
246 664 m 2
 454 664 l 2
 490.926966453 664 521.56149232 652.379633177 541.970562748 631.970562748 c 0
 561.668782559 612.272342938 571.931369433 585.560270145 571.931369433 557.206639747 c 0
 571.931369433 549.323896664 571.138148361 541.314273478 569.533936217 533.293212757 c 0
 562.196957705 496.608320198 539.390881509 463.594933176 507.880951293 441.421278579 c 0
 483.199753898 423.791851869 451.056688723 412 414 412 c 2
 206 412 l 2
 190.205279984 412 179.881774835 427.527801679 182.448470008 440.617947057 c 2
 222.448470008 644.617947057 l 2
 224.769241977 656.453884098 236.260402155 664 246 664 c 2
265.751127454 616 m 1
 235.16289216 460 l 1
 414 460 l 2
 440.943311277 460 462.800246102 468.208148131 480.119048707 480.578721421 c 0
 502.609118491 496.405066824 517.803042295 519.391679802 522.466063783 542.706787243 c 0
 523.496040143 547.856669041 523.98743581 552.820205611 523.98743581 557.566640214 c 0
 523.98743581 574.136140782 517.998975761 588.059898742 508.029437252 598.029437252 c 0
 498.43850768 607.620366823 481.073033547 616 454 616 c 2
 265.751127454 616 l 1
114.451333044 100.632524647 m 2
 162.451333044 344.632524647 l 2
 164.779619149 356.467979014 176.281283907 364 186 364 c 2
 394 364 l 1
 406 364 l 1
 410 364 l 2
 443.393553142 364 469.554385394 353.022310433 488.656400768 335.284724729 c 0
 503.079660751 320.861464746 512.817336822 304.87727151 519.122050693 283.441244349 c 0
 522.651195349 270.030494653 524.539051166 256.358988049 524.539051166 242.672618472 c 0
 524.539051166 232.777118632 523.552163393 222.873849085 521.48519484 213.055748455 c 0
 516.927774637 191.408002494 507.682689925 167.188431984 492.981839952 145.702574331 c 0
 480.298635673 126.101258626 463.355570294 110.432222819 445.574569846 98.2077850108 c 0
 423.306946929 82.9720430152 395.359991019 72 362 72 c 2
 138 72 l 2
 122.212372004 72 111.871046571 87.5160684095 114.451333044 100.632524647 c 2
167.181294755 120 m 1
 362 120 l 2
 384.652670456 120 402.668207897 127.010957656 418.447586026 137.80737427 c 0
 432.621024626 147.551613307 443.707641875 157.908443039 453.018160048 172.297425669 c 0
 464.317310075 188.811568016 471.072225363 206.591997506 474.51480516 222.944251545 c 0
 475.834166822 229.211219436 476.492797972 235.7863481 476.492797972 242.535123425 c 0
 476.492797972 251.672694533 475.285390481 261.128595984 472.8757863 270.568951743 c 0
 469.039941722 283.16863567 463.779125436 292.116498805 455.355166332 300.702508846 c 0
 446.304056523 308.929034708 432.708264892 316 410 316 c 2
 406 316 l 1
 394 316 l 1
 205.738671804 316 l 1
 167.181294755 120 l 1
570.479359686 222.773266759 m 0
 573.411196624 237.432451449 574.768766745 251.407934888 574.768766745 264.620946006 c 0
 574.768766745 312.575612153 556.886588735 350.486844396 531.481749634 374.588871236 c 0
 526.462233126 379.350976641 524.36365986 385.43215279 524.36365986 391.39475189 c 0
 524.36365986 399.31157399 528.063259151 407.019355228 533.537536008 411.152992854 c 0
 578.097948016 444.800650901 608.676293249 492.868690636 618.465510586 542.704706168 c 0
 620.906768577 554.707557956 622.093458658 566.362624892 622.093458658 577.57002602 c 0
 622.093458658 615.399607085 608.573027423 648.128753872 584.142569309 671.916305194 c 0
 559.302179963 696.75669454 521.038264479 712 473 712 c 2
 217 712 l 2
 203.058148161 712 187.127845969 700.054046015 183.50169946 683.132028974 c 2
 55.5513685228 43.3803742878 l 2
 53.2977176679 31.661389842 59.9872400894 24 71 24 c 2
 343 24 l 2
 386.750383642 24 428.025754453 38.255594773 462.493542563 61.8388182167 c 0
 490.667730174 80.9245582111 513.531499622 105.52580824 531.181603969 131.536488331 c 0
 551.464145489 161.038366905 564.109209787 191.832538676 570.479359686 222.773266759 c 0
617.520640314 213.226733241 m 0
 609.886507074 176.146657508 594.535854511 138.961633095 570.818396031 104.463511669 c 0
 550.468500378 74.4741917598 523.332269826 45.0754417889 489.506457437 22.1611817833 c 0
 447.974245547 -6.25559477305 397.249616358 -24 343 -24 c 2
 71 -24 l 2
 34.4621446613 -24 7.20350352024 4.87733196472 7.20350352024 39.6822826122 c 0
 7.20350352024 43.9206434909 7.60772372922 48.2469054227 8.4486314772 52.6196257122 c 2
 136.49830054 692.867971026 l 2
 144.872154031 731.945953985 178.941851839 760 217 760 c 2
 473 760 l 2
 530.961735521 760 582.697820037 741.24330546 617.857430691 706.083694806 c 0
 652.256960531 672.589415751 669.997356395 626.465593018 669.997356395 576.88524101 c 0
 669.997356395 562.569816359 668.518409549 547.966234493 665.534489414 533.295293832 c 0
 654.906416478 479.188740701 625.420841197 428.618416518 582.494116219 389.470379307 c 1
 607.527782435 356.684653991 622.70343776 313.619985554 622.70343776 264.224279334 c 0
 622.70343776 247.871241718 621.040155607 230.824309708 617.520640314 213.226733241 c 0
EndSplineSet
EndChar

StartChar: C
Encoding: 67 67 35
Width: 684
Flags: HW
AnchorPoint: "bottom" 303 40 basechar 0
AnchorPoint: "above" 451 784 basechar 0
LayerCount: 2
Back
SplineSet
530.583007812 200 m 0
 525.80859375 176 438.756835938 40 302.756835938 40 c 0
 166.756835938 40 83.966796875 186.850585938 120 368 c 0
 156.033203125 549.149414062 296.276367188 696 433.243164062 696 c 0
 569.243164062 696 589.374023438 576 589.374023438 576 c 1024
EndSplineSet
Fore
SplineSet
540 272 m 0
 576.576481849 272 603.816446249 242.938376604 603.816446249 208.335021847 c 0
 603.816446249 204.152821281 603.418540844 199.889670357 602.591122064 195.587092702 c 0
 599.805065782 180.26378315 593.785597283 170.905563106 590.233033916 163.800436373 c 0
 584.934561969 154.263186867 580.372670864 144.882523436 572.110816622 131.899609627 c 0
 554.384484788 105.310111876 528.342910905 75.2314489533 494.498696168 46.6753927689 c 0
 445.598461202 5.21649790597 376.364873728 -32 293 -32 c 0
 229.960325298 -32 174.951380126 -8.5224864548 133.760993056 29.3281395019 c 0
 71.4529384743 86.5841896578 38.3646893609 174.87128051 38.3646893609 274.78586472 c 0
 38.3646893609 306.485012706 41.6952028322 339.354531573 48.479765448 372.774784458 c 0
 76.6481812599 511.530314198 156.533596383 636.826490226 263.641707583 708.938881926 c 0
 317.830753794 745.064912733 380.069357352 768 443 768 c 0
 502.615424778 768 550.39764072 750.385466502 583.774077513 723.91449939 c 0
 613.020919653 701.416928513 631.475429532 673.714772396 642.381074407 651.903482646 c 0
 656.199579499 625.329434393 661.026914127 604.338583331 661.860394208 595.867824774 c 0
 663.514772441 584.902932271 661.676537818 578.072926182 660.62444837 571.760389496 c 0
 653.305391334 533.701292904 618.553537626 504 580 504 c 0
 548.43035937 504 522.314138947 525.128865592 517.326545828 555.054424305 c 0
 517.287794258 555.286933725 517.261055813 555.469674816 517.261055813 555.469674816 c 2
 516.489618157 558.794257627 512.516933512 572.037694741 505.651167994 583.27258377 c 0
 492.909394555 603.181604769 473.221042452 624 424 624 c 0
 395.74147258 624 365.380722776 614.046664346 334.447424825 593.121198085 c 0
 272.5101488 551.222452538 212.301432942 465.241980767 191.517037169 363.209492429 c 0
 186.657182406 339.352023594 184.44606514 316.588168934 184.44606514 295.218608918 c 0
 184.44606514 225.212577098 208.175726313 170.170084275 240.24935674 140.662344282 c 0
 261.174957981 121.41079114 285.016812995 112 312 112 c 0
 360.627190267 112 399.932369641 138.937040996 429.684747105 169.619180256 c 0
 446.312256156 187.121821362 459.039504539 207.83891591 461.424608408 212.516877938 c 0
 472.706166978 247.221474534 504.14997636 272 540 272 c 0
540 224 m 0
 526.536552101 224 509.353044515 209.949089447 506.568154728 195.467662552 c 0
 505.656911615 190.729198368 503.313081554 186.317036471 499.806007746 182.866422916 c 0
 492.925023619 171.448832024 481.022453057 153.967346231 464.315252895 136.380819744 c 0
 430.067630359 101.062959004 379.372809733 64 312 64 c 0
 272.983187005 64 236.825042019 78.5892088599 207.75064326 105.337655718 c 0
 163.392158435 146.147461757 136.373968972 214.027334022 136.373968972 294.543478208 c 0
 136.373968972 319.551000159 138.980312291 345.777495829 144.482962831 372.790507571 c 0
 167.698567058 486.758019233 233.4898512 582.777547462 307.552575175 632.878801915 c 0
 344.619277224 657.953335654 384.25852742 672 424 672 c 0
 490.778957548 672 527.090605445 638.818395231 546.348832006 608.72741623 c 0
 559.596443731 587.049506134 563.555366903 570.327804284 564.763485309 562.449093449 c 0
 565.949878353 556.905845479 569.617071598 552 580 552 c 0
 593.276520637 552 610.264278679 565.522305398 613.382014842 580.27608449 c 0
 614.018766785 584.121001275 614.42732217 588.061460433 614.411404752 588.569843249 c 0
 614.241472366 589.522573947 614.12921833 590.296429477 614.049685128 591.453280142 c 0
 613.508072581 594.612737035 609.674056395 610.75972735 599.618925593 630.096517354 c 0
 590.524570468 648.285227604 576.979080347 668.583071487 554.225922487 686.08550061 c 0
 529.60235928 705.614533498 493.384575222 720 443 720 c 0
 391.930642648 720 338.169246206 700.935087267 290.358292417 669.061118074 c 0
 195.466403617 605.173509774 121.35181874 490.469685802 95.520234552 363.225215542 c 0
 89.3333228679 332.748946876 86.3852303314 303.219604341 86.3852303314 275.099558835 c 0
 86.3852303314 185.81667975 116.105000446 110.74094755 166.239006944 64.6718604981 c 0
 199.048619874 34.5224864548 242.039674702 16 293 16 c 0
 361.625668479 16 420.423816071 46.8023893475 463.479553961 83.3061671232 c 0
 493.680924046 108.788573132 517.608082548 136.678739127 531.889183378 158.100390373 c 0
 537.784058888 167.363766175 542.175530718 176.072462217 547.761812184 186.189988939 c 0
 552.270842284 195.057954452 554.199012079 197.758645083 555.408877936 204.412907298 c 0
 557.735430345 216.510979826 551.002843215 224 540 224 c 0
EndSplineSet
EndChar

StartChar: D
Encoding: 68 68 36
Width: 696
Flags: HW
AnchorPoint: "above" 431 784 basechar 0
LayerCount: 2
Back
SplineSet
80.34765625 48 m 1
 207.65234375 688 l 1
 415.65234375 688 l 2
 479.65234375 688 626.921875 624 576 368 c 0
 525.07421875 111.98046875 352.34765625 48 288.34765625 48 c 2
 80.34765625 48 l 1
EndSplineSet
Fore
SplineSet
136.49830054 692.867971026 m 2
 144.872323956 731.946746967 178.941603927 760 217 760 c 2
 425 760 l 2
 458.26899503 760 496.496013964 750.802075981 532.815980445 729.890580129 c 0
 563.175499533 713.024180635 592.558030719 685.684324629 614.42985045 649.595822074 c 0
 642.296798886 605.15933673 659.085288186 547.283210651 659.085288186 474.68698631 c 0
 659.085288186 440.836337445 655.435080748 403.785197386 647.555774209 363.403751374 c 0
 622.684000544 235.935911345 567.170449387 144.174804053 503.899259122 81.9581336248 c 0
 469.208737372 47.2676118746 431.722930886 21.4201410058 396.011301807 5.18758233362 c 0
 352.541764091 -14.9568375834 312.282667902 -24 279 -24 c 2
 71 -24 l 2
 34.4635576574 -24 7.20353567246 4.87720931211 7.20353567246 39.6826151613 c 0
 7.20353567246 43.9208615857 7.60774395276 48.2470105852 8.4486314772 52.6196257122 c 2
 136.49830054 692.867971026 l 2
183.50169946 683.132028974 m 2
 55.5513685228 43.3803742878 l 2
 53.2978081625 31.6618604143 59.9854766906 24 71 24 c 2
 279 24 l 2
 303.717332098 24 337.458235909 30.9568375834 375.988698193 48.8124176664 c 0
 406.277069114 62.5798589942 438.791262628 84.7323881254 470.100740878 116.041866375 c 0
 526.829550613 171.825195947 577.315999456 254.064088655 600.444225791 372.596248626 c 0
 607.862896742 410.616937249 611.181027291 444.650594679 611.181027291 475.087245993 c 0
 611.181027291 539.926601828 596.122686762 588.442023995 573.57014955 624.404177926 c 0
 555.441969281 654.315675371 532.824500467 674.975819365 509.184019555 688.109419871 c 0
 479.503986036 705.197924019 449.73100497 712 425 712 c 2
 217 712 l 2
 203.058396073 712 187.127676044 700.053253033 183.50169946 683.132028974 c 2
265.703690513 616 m 1
 167.233102277 120 l 1
 298 120 l 2
 303.033934007 120 324.648814055 123.157222758 347.473260903 134.569446181 c 0
 366.687662147 143.71916106 387.129336514 156.987359371 408.434731137 177.366432489 c 0
 445.658223937 212.774145152 484.280170856 271.777322608 504.466063783 372.706787243 c 0
 511.020030962 405.476623134 513.761224114 433.593712923 513.761224114 457.739589937 c 0
 513.761224114 508.02524626 501.872317508 541.087242972 487.773457037 563.081465306 c 0
 475.773889467 581.93792863 462.04354776 593.95356072 447.597921873 602.450987712 c 0
 430.865541051 612.809128221 411.101031448 616 406 616 c 2
 265.703690513 616 l 1
222.459429923 644.67349553 m 2
 224.340533211 654.148682462 233.935067978 664 246 664 c 2
 406 664 l 2
 420.898968552 664 447.134458949 659.190871779 472.402078127 643.549012288 c 0
 491.97351348 632.036403256 512.201221065 614.10118339 528.247875706 588.885011813 c 0
 547.960207649 558.133773981 561.658229919 515.505773213 561.658229919 457.306921855 c 0
 561.658229919 429.624390188 558.559093796 398.419000653 551.533936217 363.293212757 c 0
 529.717331435 254.210188846 486.367546665 185.250368348 441.541130384 142.610606519 c 0
 416.900368631 119.041182234 391.295586623 102.272862164 368.526739097 91.4305538185 c 0
 339.351185945 76.8427772423 312.966065993 72 298 72 c 2
 138 72 l 2
 127.323636194 72 111.066785991 83.5846223902 114.459429923 100.67349553 c 2
 222.459429923 644.67349553 l 2
EndSplineSet
EndChar

StartChar: E
Encoding: 69 69 37
Width: 696
Flags: HW
AnchorPoint: "above" 431 784 basechar 0
AnchorPoint: "bottom" 284 48 basechar 0
LayerCount: 2
Back
SplineSet
149.978515625 388 m 1
 435.978515625 388 l 1025
623.65234375 688 m 1
 207.65234375 688 l 1
 80.34765625 48 l 1
 512.34765625 48 l 1025
EndSplineSet
Fore
SplineSet
136.49830054 692.867971026 m 2
 144.872323956 731.946746967 178.941603927 760 217 760 c 2
 633 760 l 2
 669.553328284 760 696.804888737 731.045009597 696.804888737 696.32474695 c 0
 696.804888737 692.110175957 696.403345682 687.810655515 695.568154728 683.467662552 c 0
 688.250023389 645.413379591 652.179323891 616 614 616 c 2
 265.751127454 616 l 1
 235.16289216 460 l 1
 446 460 l 2
 482.970187716 460 508.81769503 430.614957562 508.81769503 396.487464385 c 0
 508.81769503 392.205953568 508.410873451 387.849799914 507.568154728 383.467662552 c 0
 500.250023389 345.413379591 464.179323891 316 426 316 c 2
 205.738671804 316 l 1
 167.181294755 120 l 1
 522 120 l 2
 558.970187716 120 584.81769503 90.6149575619 584.81769503 56.4874643852 c 0
 584.81769503 52.2059535683 584.410873451 47.8497999136 583.568154728 43.4676625524 c 0
 576.353044515 5.94908944691 541.536552101 -24 503 -24 c 2
 71 -24 l 2
 34.4635576574 -24 7.20353567246 4.87720931211 7.20353567246 39.6826151613 c 0
 7.20353567246 43.9208615857 7.60774395276 48.2470105852 8.4486314772 52.6196257122 c 2
 136.49830054 692.867971026 l 2
183.50169946 683.132028974 m 2
 55.5513685228 43.3803742878 l 2
 53.2978081625 31.6618604143 59.9854766906 24 71 24 c 2
 503 24 l 2
 516.463447899 24 533.646955485 38.0509105531 536.431845272 52.5323374476 c 0
 538.871900152 65.2206228207 532.391667378 72 522 72 c 2
 138 72 l 2
 127.403831898 72 111.085245027 83.5215772254 114.451333044 100.632524647 c 2
 162.451333044 344.632524647 l 2
 164.327257704 354.168475001 173.937707669 364 186 364 c 2
 426 364 l 2
 439.820676109 364 457.749976611 378.586620409 460.431845272 392.532337448 c 0
 462.871900152 405.220622821 456.391667378 412 446 412 c 2
 206 412 l 2
 195.43235212 412 179.091850463 423.499187379 182.448470008 440.617947057 c 2
 222.448470008 644.617947057 l 2
 224.322509475 654.175548339 233.938682154 664 246 664 c 2
 614 664 l 2
 627.820676109 664 645.749976611 678.586620409 648.431845272 692.532337448 c 0
 650.716227025 704.41112256 644.009591309 712 633 712 c 2
 217 712 l 2
 203.058396073 712 187.127676044 700.053253033 183.50169946 683.132028974 c 2
EndSplineSet
EndChar

StartChar: F
Encoding: 70 70 38
Width: 664
Flags: HW
AnchorPoint: "above" 415 784 basechar 0
LayerCount: 2
Back
SplineSet
80.34765625 48 m 1
 207.65234375 688 l 1
 607.65234375 688 l 1025
149.978515625 388 m 1
 443.978515625 388 l 1025
EndSplineSet
Fore
SplineSet
136.49830054 692.867971026 m 2
 144.872323956 731.946746967 178.941603927 760 217 760 c 2
 617 760 l 2
 653.553328284 760 680.804888737 731.045009597 680.804888737 696.32474695 c 0
 680.804888737 692.110175957 680.403345682 687.810655515 679.568154728 683.467662552 c 0
 672.250023389 645.413379591 636.179323891 616 598 616 c 2
 265.751127454 616 l 1
 235.16289216 460 l 1
 454 460 l 2
 490.970187716 460 516.81769503 430.614957562 516.81769503 396.487464385 c 0
 516.81769503 392.205953568 516.410873451 387.849799914 515.568154728 383.467662552 c 0
 508.250023389 345.413379591 472.179323891 316 434 316 c 2
 205.701743961 316 l 1
 151.554354285 43.3959002498 l 2
 144.36472674 6.00983701693 109.532388082 -24 71 -24 c 0
 34.4635576574 -24 7.20353567246 4.87720931211 7.20353567246 39.6826151613 c 0
 7.20353567246 43.9208615857 7.60774395276 48.2470105852 8.4486314772 52.6196257122 c 2
 136.49830054 692.867971026 l 2
183.50169946 683.132028974 m 2
 55.5513685228 43.3803742878 l 2
 53.2978081625 31.6618604143 59.9854766906 24 71 24 c 0
 84.4676119177 24 101.63527326 37.9901629831 104.445645715 52.6040997502 c 2
 162.459882914 344.675776681 l 2
 164.34126935 354.147584255 173.934925299 364 186 364 c 2
 434 364 l 2
 447.820676109 364 465.749976611 378.586620409 468.431845272 392.532337448 c 0
 470.871900152 405.220622821 464.391667378 412 454 412 c 2
 206 412 l 2
 195.43235212 412 179.091850463 423.499187379 182.448470008 440.617947057 c 2
 222.448470008 644.617947057 l 2
 224.322509475 654.175548339 233.938682154 664 246 664 c 2
 598 664 l 2
 611.820676109 664 629.749976611 678.586620409 632.431845272 692.532337448 c 0
 634.716227025 704.41112256 628.009591309 712 617 712 c 2
 217 712 l 2
 203.058396073 712 187.127676044 700.053253033 183.50169946 683.132028974 c 2
EndSplineSet
EndChar

StartChar: G
Encoding: 71 71 39
Width: 672
Flags: HW
AnchorPoint: "above" 451 784 basechar 0
LayerCount: 2
Back
SplineSet
589.374023438 576 m 0
 589.374023438 576 569.243164062 696 433.243164062 696 c 0
 296.276367188 696 156.033203125 549.149414062 120 368 c 0
 83.966796875 186.850585938 166.756835938 40 302.756835938 40 c 0
 430.756835938 40 509.03515625 152 509.03515625 152 c 1
 547.2265625 344 l 1
 379.2265625 344 l 1025
EndSplineSet
Fore
SplineSet
557 416 m 2
 597.12979708 416 619.896490715 384.535386975 619.896490715 352.659969729 c 0
 619.896490715 348.159915425 619.44273332 343.651673482 618.520014174 339.222621581 c 2
 580.685734853 148.059947116 l 2
 578.503948767 135.050037493 574.306454069 126.537874415 567.471735987 116.9692691 c 0
 562.638083963 110.393319186 520.794067794 50.2820447669 441.345724914 6.85028399232 c 0
 400.503812324 -14.6454594762 350.05944502 -32 293 -32 c 0
 229.960325298 -32 174.951380126 -8.5224864548 133.760993056 29.3281395019 c 0
 71.4529384743 86.5841896578 38.3646893609 174.87128051 38.3646893609 274.78586472 c 0
 38.3646893609 306.485012706 41.6952028322 339.354531573 48.479765448 372.774784458 c 0
 76.6481812599 511.530314198 156.533596383 636.826490226 263.641707583 708.938881926 c 0
 317.830753794 745.064912733 380.069357352 768 443 768 c 0
 502.615424778 768 550.39764072 750.385466502 583.774077513 723.91449939 c 0
 613.020919653 701.416928513 631.475429532 673.714772396 642.381074407 651.903482646 c 0
 656.199579499 625.329434393 661.026914127 604.338583331 661.860394208 595.867824774 c 0
 663.514772441 584.902932271 661.676537818 578.072926182 660.62444837 571.760389496 c 0
 653.305391334 533.701292904 618.553537626 504 580 504 c 0
 548.43035937 504 522.314138947 525.128865592 517.326545828 555.054424305 c 0
 517.287794258 555.286933725 517.261055813 555.469674816 517.261055813 555.469674816 c 2
 516.489618157 558.794257627 512.516933512 572.037694741 505.651167994 583.27258377 c 0
 492.909394555 603.181604769 473.221042452 624 424 624 c 0
 395.74147258 624 365.380722776 614.046664346 334.447424825 593.121198085 c 0
 272.5101488 551.222452538 212.301432942 465.241980767 191.517037169 363.209492429 c 0
 186.657182406 339.352023594 184.44606514 316.588168934 184.44606514 295.218608918 c 0
 184.44606514 225.212577098 208.175726313 170.170084275 240.24935674 140.662344282 c 0
 261.174957981 121.41079114 285.016812995 112 312 112 c 0
 358.322365453 112 394.689465448 133.212335956 421.481427067 156.308854593 c 0
 430.198413259 163.573009752 436.801256275 170.543558344 441.720519101 176.02744503 c 2
 460.768507111 272 l 1
 370 272 l 2
 333.446671716 272 306.195111263 300.954990403 306.195111263 335.67525305 c 0
 306.195111263 339.889824043 306.596654318 344.189344485 307.431845272 348.532337448 c 0
 314.749976611 386.586620409 350.820676109 416 389 416 c 2
 557 416 l 2
557 368 m 2
 389 368 l 2
 375.179323891 368 357.250023389 353.413379591 354.568154728 339.467662552 c 0
 352.283772975 327.58887744 358.990408691 320 370 320 c 2
 490 320 l 2
 500.673874658 320 516.932643618 308.417336366 513.540822418 291.327775703 c 2
 487.540822418 160.327775703 l 2
 486.737188709 156.27869817 484.821371558 152.349638994 482.061840673 149.195889411 c 0
 475.048024952 141.180100015 465.568397429 130.565999154 452.518572933 119.691145407 c 0
 421.310534552 92.787664044 373.677634547 64 312 64 c 0
 272.983187005 64 236.825042019 78.5892088599 207.75064326 105.337655718 c 0
 163.392158435 146.147461757 136.373968972 214.027334022 136.373968972 294.543478208 c 0
 136.373968972 319.551000159 138.980312291 345.777495829 144.482962831 372.790507571 c 0
 167.698567058 486.758019233 233.4898512 582.777547462 307.552575175 632.878801915 c 0
 344.619277224 657.953335654 384.25852742 672 424 672 c 0
 490.778957548 672 527.090605445 638.818395231 546.348832006 608.72741623 c 0
 559.596443731 587.049506134 563.555366903 570.327804284 564.763485309 562.449093449 c 0
 565.949878353 556.905845479 569.617071598 552 580 552 c 0
 593.276520637 552 610.264278679 565.522305398 613.382014842 580.27608449 c 0
 614.018766785 584.121001275 614.42732217 588.061460433 614.411404752 588.569843249 c 0
 614.241472366 589.522573947 614.12921833 590.296429477 614.049685128 591.453280142 c 0
 613.508072581 594.612737035 609.674056395 610.75972735 599.618925593 630.096517354 c 0
 590.524570468 648.285227604 576.979080347 668.583071487 554.225922487 686.08550061 c 0
 529.60235928 705.614533498 493.384575222 720 443 720 c 0
 391.930642648 720 338.169246206 700.935087267 290.358292417 669.061118074 c 0
 195.466403617 605.173509774 121.35181874 490.469685802 95.520234552 363.225215542 c 0
 89.3333228679 332.748946876 86.3852303314 303.219604341 86.3852303314 275.099558835 c 0
 86.3852303314 185.81667975 116.105000446 110.74094755 166.239006944 64.6718604981 c 0
 199.048619874 34.5224864548 242.039674702 16 293 16 c 0
 339.94055498 16 383.496187676 30.6454594762 418.654275086 49.1497160077 c 0
 488.0084575 87.0633357271 525.437631277 140.863628678 528.640769234 145.186239713 c 0
 531.489940755 149.31882183 532.895845127 152.976543373 533.241212152 155.39411255 c 0
 533.283932424 155.693154452 533.377505342 156.259582287 533.45667862 156.65961569 c 2
 571.479985826 348.777378419 l 2
 574.021332712 360.975843468 569.204825595 368 557 368 c 2
EndSplineSet
EndChar

StartChar: H
Encoding: 72 72 40
Width: 712
Flags: HW
AnchorPoint: "above" 439 784 basechar 0
LayerCount: 2
Back
SplineSet
149.978515625 388 m 1
 569.978515625 388 l 1025
631.65234375 688 m 1
 504.34765625 48 l 1025
80.34765625 48 m 1
 207.65234375 688 l 1025
EndSplineSet
Fore
SplineSet
560.445171642 692.601634569 m 2
 567.635674568 729.992249786 602.467468875 760 641 760 c 0
 677.536442343 760 704.796464328 731.122790688 704.796464328 696.317384839 c 0
 704.796464328 692.079138414 704.392256047 687.752989415 703.551368523 683.380374288 c 2
 575.551368523 43.3803742878 l 2
 568.36725422 6.02297991268 533.531487186 -24 495 -24 c 0
 458.460556395 -24 431.202038619 4.89103474702 431.202038619 39.6813147353 c 0
 431.202038619 43.9153489887 431.605772431 48.2367586743 432.445645715 52.6040997502 c 2
 484.764009464 316 l 1
 205.701743961 316 l 1
 151.554354285 43.3959002498 l 2
 144.36472674 6.00983701693 109.532388082 -24 71 -24 c 0
 34.4635576574 -24 7.20353567246 4.87720931211 7.20353567246 39.6826151613 c 0
 7.20353567246 43.9208615857 7.60774395276 48.2470105852 8.4486314772 52.6196257122 c 2
 136.448631477 692.619625712 l 2
 143.63274578 729.977020087 178.468512814 760 217 760 c 0
 253.539920229 760 280.798199136 731.106769701 280.798199136 696.318892104 c 0
 280.798199136 692.085526611 280.394540642 687.764869309 279.554828358 683.398365431 c 2
 235.229755852 460 l 1
 514.294053672 460 l 1
 560.445171642 692.601634569 l 2
607.554828358 683.398365431 m 2
 557.541094716 431.329147874 l 2
 555.660320223 421.850044433 546.06476612 412 534 412 c 2
 206 412 l 2
 195.328812069 412 179.067972231 423.580549538 182.458905284 440.670852126 c 2
 232.445171642 692.601634569 l 2
 234.705084656 704.353182239 228.013506766 712 217 712 c 0
 203.531487186 712 186.36725422 698.022979913 183.551368523 683.380374288 c 2
 55.5513685228 43.3803742878 l 2
 53.2978081625 31.6618604143 59.9854766906 24 71 24 c 0
 84.4676119177 24 101.63527326 37.9901629831 104.445645715 52.6040997502 c 2
 162.459882914 344.675776681 l 2
 164.34126935 354.147584255 173.934925299 364 186 364 c 2
 514 364 l 2
 524.68083057 364 540.934237162 352.411862321 537.540117086 335.324223319 c 2
 479.554354285 43.3959002498 l 2
 477.295311724 31.6488789341 483.986353945 24 495 24 c 0
 508.468512814 24 525.63274578 37.9770200873 528.448631477 52.6196257122 c 2
 656.448631477 692.619625712 l 2
 658.702191837 704.338139586 652.014523309 712 641 712 c 0
 627.532531125 712 610.364325432 698.007750214 607.554828358 683.398365431 c 2
EndSplineSet
EndChar

StartChar: I
Encoding: 73 73 41
Width: 336
Flags: HW
HStem: 0 21G<154.754 181.246> 716 20G<154.754 181.246>
VStem: 120 96<7.56638 728.434>
AnchorPoint: "above" 251 784 basechar 0
LayerCount: 2
Back
SplineSet
231.65234375 688 m 1
 104.34765625 48 l 1025
EndSplineSet
Fore
SplineSet
160.448631477 692.619625712 m 2
 167.63274578 729.977020087 202.468512814 760 241 760 c 0
 277.536442343 760 304.796464328 731.122790688 304.796464328 696.317384839 c 0
 304.796464328 692.079138414 304.392256047 687.752989415 303.551368523 683.380374288 c 2
 175.551368523 43.3803742878 l 2
 168.36725422 6.02297991268 133.531487186 -24 95 -24 c 0
 58.4635576574 -24 31.2035356725 4.87720931211 31.2035356725 39.6826151613 c 0
 31.2035356725 43.9208615857 31.6077439528 48.2470105852 32.4486314772 52.6196257122 c 2
 160.448631477 692.619625712 l 2
207.551368523 683.380374288 m 2
 79.5513685228 43.3803742878 l 2
 77.2978081625 31.6618604143 83.9854766906 24 95 24 c 0
 108.468512814 24 125.63274578 37.9770200873 128.448631477 52.6196257122 c 2
 256.448631477 692.619625712 l 2
 258.702191837 704.338139586 252.014523309 712 241 712 c 0
 227.531487186 712 210.36725422 698.022979913 207.551368523 683.380374288 c 2
EndSplineSet
EndChar

StartChar: J
Encoding: 74 74 42
Width: 544
Flags: HW
AnchorPoint: "above" 355 784 basechar 0
LayerCount: 2
Back
SplineSet
78.49609375 280 m 1
 65.765625 216 l 1
 65.765625 216 l 1
 46.4306640625 118.797851562 98.8095703125 40 182.756835938 40 c 0
 266.704101562 40 352.568359375 129.54296875 374.5390625 240 c 2
 463.65234375 688 l 1025
EndSplineSet
Fore
SplineSet
6.42132946493 284.477655248 m 2
 13.7588694562 322.632863203 49.8175128441 352 88 352 c 0
 124.981193384 352 150.822846977 322.565593743 150.822846977 288.490939719 c 0
 150.822846977 284.224595643 150.417740538 279.885508766 149.578670535 275.522344752 c 2
 137.562289328 211.434978312 l 2
 135.79602047 202.603634021 135.000225768 194.279213922 135.000225768 186.501209542 c 0
 135.000225768 156.221621346 147.060706118 134.223108702 160.875737227 122.835635985 c 0
 170.898440226 115.293123293 179.650280456 112 192 112 c 0
 202.790031278 112 215.079619479 115.230823189 229.556683172 124.882198985 c 0
 258.581876961 144.785189012 292.741914969 190.192982763 303.455656252 244.654500951 c 2
 392.445712379 692.6044464 l 2
 399.635216829 729.98986954 434.467632032 760 473 760 c 0
 509.539376585 760 536.79792795 731.10927398 536.79792795 696.318656187 c 0
 536.79792795 692.084527893 536.394183546 687.763012406 535.554287621 683.3955536 c 2
 446.544407025 235.34587303 l 2
 428.395384226 143.53316946 375.258769711 58.9947696038 300.380267477 9.07576811417 c 0
 263.103358695 -16.1409642974 218.576528097 -32 173 -32 c 0
 129.874720169 -32 91.5119952721 -18.2114784558 61.3669417396 4.97702426149 c 0
 13.5071071947 41.7922816038 -11.1009440631 100.562389851 -11.1009440631 165.877252927 c 0
 -11.1009440631 183.722710122 -9.26394667366 202.056734958 -5.56228932771 220.565021688 c 2
 6.42132946493 284.477655248 l 2
53.5786705351 275.522344752 m 2
 41.5622893277 211.434978312 l 2
 38.3701746733 195.47440504 36.8410147221 180.08594617 36.8410147221 165.433729059 c 0
 36.8410147221 112.380743636 56.888775911 68.9801160073 90.6330582604 43.0229757385 c 0
 112.488004728 26.2114784558 140.125279831 16 173 16 c 0
 207.423471903 16 242.896641305 28.1409642974 273.619732523 48.9242318858 c 0
 336.741230289 91.0052303962 383.604615774 164.46683054 399.455592975 244.65412697 c 2
 488.445712379 692.6044464 l 2
 490.704632538 704.350831227 484.013665641 712 473 712 c 0
 459.532367968 712 442.364783171 698.01013046 439.554287621 683.3955536 c 2
 350.539979531 235.323530852 l 2
 337.262293293 167.828625808 297.412820744 113.211175129 256.443316828 85.1178010147 c 0
 234.920380521 70.7691768105 213.209968722 64 192 64 c 0
 168.327818665 64 148.062696781 72.1341357685 131.14133599 85.1505671459 c 0
 103.679434621 107.331333636 86.9750889421 143.77818198 86.9750889421 186.378665299 c 0
 86.9750889421 197.408534118 88.0948906113 208.850921383 90.4377106723 220.565021688 c 2
 102.421329465 284.477655248 l 2
 104.880732456 297.2665508 98.3885469742 304 88 304 c 0
 74.1824871559 304 56.2411305438 289.367136797 53.5786705351 275.522344752 c 2
EndSplineSet
EndChar

StartChar: K
Encoding: 75 75 43
Width: 672
Flags: HW
AnchorPoint: "above" 419 784 basechar 0
LayerCount: 2
Back
SplineSet
512.34765625 48 m 1
 315.127929688 434 l 1025
623.65234375 688 m 1
 128.893554688 282 l 1025
207.65234375 688 m 1
 80.34765625 48 l 1025
EndSplineSet
Fore
SplineSet
583.551368523 43.3803742878 m 0
 576.36725422 6.02297991268 541.531487186 -24 503 -24 c 0
 478.971902336 -24 456.925307574 -11.5162466071 446.577632129 9.17910428274 c 2
 286.124105942 323.63112974 l 1
 191.861861052 246.853010918 l 1
 151.555481391 43.4017612019 l 2
 144.363772632 6.00487565714 109.532728165 -24 71 -24 c 0
 34.4635576574 -24 7.20353567246 4.87720931211 7.20353567246 39.6826151613 c 0
 7.20353567246 43.9208615857 7.60774395276 48.2470105852 8.4486314772 52.6196257122 c 2
 136.448631477 692.619625712 l 2
 143.63274578 729.977020087 178.468512814 760 217 760 c 0
 253.534952861 760 280.795721407 731.129652179 280.795721407 696.316740756 c 0
 280.795721407 692.076403226 280.391277534 687.747901144 279.549886376 683.372667125 c 2
 233.755430816 455.176566537 l 1
 581.894153592 740.650319214 l 2
 595.235619137 751.32349165 612.609839693 760 633 760 c 0
 669.46970484 760 696.763206411 731.430312917 696.763206411 696.289371637 c 0
 696.763206411 691.956997587 696.348362837 687.524744722 695.484726367 683.033835076 c 0
 690.907187933 663.197835196 679.8872725 647.443760256 665.230955622 635.452228265 c 2
 407.134503439 422.73537207 l 1
 578.423853763 86.8179239349 l 2
 583.025075694 77.6154800715 585.047992387 67.8701205519 585.047992387 58.1401907666 c 0
 585.047992387 53.1917788612 584.524765236 48.2473578547 583.551368523 43.3803742878 c 0
536.448631477 52.6196257122 m 0
 537.568896858 58.2209526184 536.634851778 63.0646649837 535.576146237 65.1820760651 c 2
 355.619213674 418.097616038 l 2
 353.939660315 421.391406791 353.109366159 425.081160294 353.109366159 428.796553066 c 0
 353.109366159 435.760691718 356.026506583 442.814910915 361.735893322 447.520449436 c 2
 634.735893322 672.520449436 l 2
 642.107568996 678.551820442 646.745122308 685.897391657 648.509614161 692.957213174 c 0
 650.425132989 704.080178728 644.201952677 712 633 712 c 0
 627.390160307 712 618.764380863 708.67650835 612.105846408 703.349680786 c 2
 212.217910117 375.441573028 l 2
 207.686784288 371.726049848 200.692803526 369.384130414 194.138540332 370.171192884 c 0
 180.441357053 371.816006127 170.754762988 385.196263603 173.46914716 398.722177951 c 2
 232.450113624 692.627332875 l 2
 234.700952593 704.331695516 228.014958783 712 217 712 c 0
 203.531487186 712 186.36725422 698.022979913 183.551368523 683.380374288 c 2
 55.5513685228 43.3803742878 l 2
 53.2978081625 31.6618604143 59.9854766906 24 71 24 c 0
 84.4672718351 24 101.636227368 37.9951243429 104.444518609 52.598238798 c 2
 146.457560292 264.664068244 l 2
 147.462795959 269.738114946 150.503740935 275.073810055 154.843189747 278.608361103 c 2
 278.843189747 379.608361103 l 2
 282.532430912 382.613307537 288.137992813 384.447844213 293.988401742 384.447844213 c 0
 302.157769396 384.447844213 310.804555582 380.870746239 315.377766909 371.90830335 c 2
 489.422367871 30.8208957173 l 2
 491.074692426 27.5162466071 495.028097664 24 503 24 c 0
 516.468512814 24 533.63274578 37.9770200873 536.448631477 52.6196257122 c 0
EndSplineSet
EndChar

StartChar: L
Encoding: 76 76 44
Width: 656
Flags: HW
AnchorPoint: "above" 411 784 basechar 0
LayerCount: 2
Back
SplineSet
207.65234375 688 m 1
 80.34765625 48 l 1
 496.34765625 48 l 1025
EndSplineSet
Fore
SplineSet
136.448631477 692.619625712 m 2
 143.63274578 729.977020087 178.468512814 760 217 760 c 0
 253.537922379 760 280.797202566 731.115972798 280.797202566 696.318025691 c 0
 280.797202566 692.081856672 280.393228305 687.758045155 279.552841035 683.388031353 c 2
 167.255902353 120 l 1
 506 120 l 2
 542.970187716 120 568.81769503 90.6149575619 568.81769503 56.4874643852 c 0
 568.81769503 52.2059535683 568.410873451 47.8497999136 567.568154728 43.4676625524 c 0
 560.353044515 5.94908944691 525.536552101 -24 487 -24 c 2
 71 -24 l 2
 34.4635576574 -24 7.20353567246 4.87720931211 7.20353567246 39.6826151613 c 0
 7.20353567246 43.9208615857 7.60774395276 48.2470105852 8.4486314772 52.6196257122 c 2
 136.448631477 692.619625712 l 2
183.551368523 683.380374288 m 2
 55.5513685228 43.3803742878 l 2
 53.2978081625 31.6618604143 59.9854766906 24 71 24 c 2
 487 24 l 2
 500.463447899 24 517.646955485 38.0509105531 520.431845272 52.5323374476 c 0
 522.871900152 65.2206228207 516.391667378 72 506 72 c 2
 138 72 l 2
 127.288387167 72 111.058726201 83.6123737674 114.463010411 100.691494546 c 2
 232.447158965 692.611968647 l 2
 234.703423026 704.344541768 228.014090666 712 217 712 c 0
 203.531487186 712 186.36725422 698.022979913 183.551368523 683.380374288 c 2
EndSplineSet
EndChar

StartChar: M
Encoding: 77 77 45
Width: 830
Flags: HW
AnchorPoint: "above" 498 784 basechar 0
LayerCount: 2
Back
SplineSet
80.34765625 48 m 1
 207.65234375 688 l 1
 247.65234375 688 l 1
 352.34765625 48 l 1
 711.65234375 688 l 1
 751.65234375 688 l 1
 624.34765625 48 l 1025
EndSplineSet
Fore
SplineSet
136.49830054 692.867971026 m 2
 144.872323956 731.946746967 178.941603927 760 217 760 c 2
 257 760 l 2
 287.719882622 760 314.785016907 738.911298751 319.696801506 707.803329624 c 2
 392.669307778 260.412368547 l 1
 649.157946858 715.90081381 l 2
 663.95554419 741.460300111 690.666428043 760 721 760 c 2
 761 760 l 2
 779.809289884 760 797.538384769 751.894100872 809.937823648 737.944732132 c 0
 820.877818828 725.637237555 824.750082722 711.039697377 824.750082722 697.096756319 c 0
 824.750082722 692.516642042 824.332243897 688.007162654 823.609832401 683.672693678 c 2
 695.551368523 43.3803742878 l 2
 688.36725422 6.02297991269 653.531487186 -24 615 -24 c 0
 578.461720707 -24 551.202619401 4.88567133979 551.202619401 39.6818196391 c 0
 551.202619401 43.9174877517 551.60653724 48.2407356806 552.4468039 52.6101223094 c 2
 617.975274686 381.632022996 l 1
 414.951747303 20.2941204682 l 2
 401.583534786 -3.76866206256 375.528068407 -24 343 -24 c 0
 311.195103657 -24 285.122187727 -2.32359476444 280.305373739 28.1828938241 c 2
 220.734805269 390.754378464 l 1
 151.5531961 43.3898776906 l 2
 144.365707156 6.01493517879 109.532038622 -24 71 -24 c 0
 34.4635576574 -24 7.20353567246 4.87720931211 7.20353567246 39.6826151613 c 0
 7.20353567246 43.9208615857 7.60774395276 48.2470105852 8.4486314772 52.6196257122 c 2
 136.49830054 692.867971026 l 2
183.50169946 683.132028974 m 2
 55.5513685228 43.3803742878 l 2
 53.2978081625 31.6618604143 59.9854766906 24 71 24 c 0
 84.4679613776 24 101.634292844 37.9850648212 104.4468039 52.6101223094 c 2
 199.462275641 529.687806738 l 2
 201.196871396 538.397303319 208.184095873 546.069150512 217.262899637 548.304198751 c 0
 219.127290607 548.763180337 220.999268921 548.982048252 222.846637803 548.982048252 c 0
 234.272595304 548.982048252 244.757141172 540.609453692 246.682479544 528.891036193 c 2
 327.694626261 35.8171061759 l 2
 328.877812273 28.3235947644 332.804896343 24 343 24 c 0
 354.471931593 24 366.416465214 31.7686620625 373.048252697 43.7058795318 c 2
 650.076522322 536.75619334 l 2
 654.768403596 545.106725717 664.272481937 549.966112259 673.826655285 548.832960788 c 0
 687.526226162 547.208153666 697.232351402 533.84205747 694.537724359 520.312193262 c 2
 599.5531961 43.3898776906 l 2
 597.296280099 31.6539144825 603.986013656 24 615 24 c 0
 628.468512814 24 645.63274578 37.9770200873 648.448631477 52.6196257122 c 2
 776.38215179 692.287227275 l 2
 777.359323132 698.893946793 775.59505741 704.330776677 774.062176352 706.055267868 c 0
 770.461615231 710.105899128 766.190710116 712 761 712 c 2
 721 712 l 2
 711.333571957 712 698.04445581 704.539699889 690.842053142 692.09918619 c 2
 400.912388426 177.224091954 l 2
 398.140391975 172.301408601 392.267862919 167.295499895 385.710010971 165.689148992 c 0
 383.854234388 165.234575084 381.991221052 165.017773902 380.152671976 165.017773902 c 0
 368.716156842 165.017773902 358.226247235 173.406550118 356.313014059 185.136491614 c 2
 272.303198494 700.196670376 l 2
 271.214983093 707.088701249 266.280117378 712 257 712 c 2
 217 712 l 2
 203.058396073 712 187.127676044 700.053253033 183.50169946 683.132028974 c 2
EndSplineSet
EndChar

StartChar: N
Encoding: 78 78 46
Width: 720
Flags: HW
AnchorPoint: "above" 443 784 basechar 0
LayerCount: 2
Back
SplineSet
80.34765625 48 m 1
 207.65234375 688 l 1
 247.65234375 688 l 1
 480.34765625 48 l 1
 512.34765625 48 l 1
 639.65234375 688 l 1025
EndSplineSet
Fore
SplineSet
136.49830054 692.867971026 m 2
 144.872323956 731.946746967 178.941603927 760 217 760 c 2
 257 760 l 2
 283.115864809 760 308.203160799 744.285181448 316.667560262 718.891983058 c 2
 482.306803254 262.746990819 l 1
 568.449479289 692.624034334 l 2
 575.632028098 729.973288141 610.468768625 760 649 760 c 0
 685.536442343 760 712.796464328 731.122790688 712.796464328 696.317384839 c 0
 712.796464328 692.079138414 712.392256047 687.752989415 711.551368523 683.380374288 c 2
 583.551368523 43.3803742878 l 2
 576.36725422 6.02297991268 541.531487186 -24 503 -24 c 2
 471 -24 l 2
 444.885776124 -24 419.792176015 -8.2711918885 411.33801257 17.0912984472 c 2
 239.823423461 487.263132272 l 1
 151.553845238 43.3932532076 l 2
 144.365157653 6.01207776691 109.532234487 -24 71 -24 c 0
 34.4635576574 -24 7.20353567246 4.87720931211 7.20353567246 39.6826151613 c 0
 7.20353567246 43.9208615857 7.60774395276 48.2470105852 8.4486314772 52.6196257122 c 2
 136.49830054 692.867971026 l 2
183.50169946 683.132028974 m 2
 55.5513685228 43.3803742878 l 2
 53.2978081625 31.6618604143 59.9854766906 24 71 24 c 0
 84.4677655127 24 101.634842347 37.9879222331 104.446154762 52.6067467924 c 2
 209.460933811 580.681064299 l 2
 210.850598779 587.669093851 215.955054304 594.600733444 223.031579469 597.831871017 c 0
 226.18166051 599.270196322 229.501154227 599.945677875 232.781301854 599.945677875 c 0
 242.568626438 599.945677875 252.005648894 593.931798734 255.54666732 584.224827825 c 2
 456.66198743 32.9087015528 l 2
 458.207823985 28.2711918885 463.114223876 24 471 24 c 2
 503 24 l 2
 516.468512814 24 533.63274578 37.9770200873 536.448631477 52.6196257122 c 2
 664.448631477 692.619625712 l 2
 666.702191837 704.338139586 660.014523309 712 649 712 c 0
 635.531231375 712 618.367971902 698.026711859 615.550520711 683.375965666 c 2
 512.532173707 169.284408771 l 2
 511.132233367 162.298298726 506.01759927 155.374252002 498.936354143 152.153515927 c 0
 495.795400641 150.724927865 492.48735235 150.05400107 489.218616482 150.05400107 c 0
 479.418759163 150.05400107 469.972255552 156.084524163 466.441280504 165.808286217 c 2
 271.332439738 703.108016942 l 2
 269.796839201 707.714818552 264.884135191 712 257 712 c 2
 217 712 l 2
 203.058396073 712 187.127676044 700.053253033 183.50169946 683.132028974 c 2
EndSplineSet
EndChar

StartChar: O
Encoding: 79 79 47
Width: 736
Flags: HW
HStem: -8 96<290.543 445.457> 648 96<290.543 445.457>
VStem: 72 96<242.362 493.638> 568 96<242.362 493.638>
AnchorPoint: "above" 451 784 basechar 0
AnchorPoint: "middle" 368 368 basechar 0
LayerCount: 2
Back
SplineSet
616 368 m 0
 579.966796875 186.850585938 439.723632812 40 302.756835938 40 c 0
 165.790039062 40 83.966796875 186.850585938 120 368 c 0
 156.033203125 549.149414062 296.276367188 696 433.243164062 696 c 0
 570.209960938 696 652.033203125 549.149414062 616 368 c 0
EndSplineSet
Fore
SplineSet
687.520234552 363.225215542 m 0
 659.35181874 224.469685802 579.466403617 99.1735097736 472.358292417 27.061118074 c 0
 418.169246206 -9.0649127332 355.930642648 -32 293 -32 c 0
 229.960325298 -32 174.951380126 -8.5224864548 133.760993056 29.3281395019 c 0
 71.4529384743 86.5841896578 38.3646893609 174.87128051 38.3646893609 274.78586472 c 0
 38.3646893609 306.485012706 41.6952028322 339.354531573 48.479765448 372.774784458 c 0
 76.6481812599 511.530314198 156.533596383 636.826490226 263.641707583 708.938881926 c 0
 317.830753794 745.064912733 380.069357352 768 443 768 c 0
 506.039674702 768 561.048619874 744.522486455 602.239006944 706.671860498 c 0
 664.547061526 649.415810342 697.635310639 561.12871949 697.635310639 461.21413528 c 0
 697.635310639 429.514987294 694.304797168 396.645468427 687.520234552 363.225215542 c 0
640.479765448 372.774784458 m 0
 646.666677132 403.251053124 649.614769669 432.780395659 649.614769669 460.900441165 c 0
 649.614769669 550.18332025 619.894999554 625.25905245 569.760993056 671.328139502 c 0
 536.951380126 701.477513545 493.960325298 720 443 720 c 0
 391.930642648 720 338.169246206 700.935087267 290.358292417 669.061118074 c 0
 195.466403617 605.173509774 121.35181874 490.469685802 95.520234552 363.225215542 c 0
 89.3333228679 332.748946876 86.3852303314 303.219604341 86.3852303314 275.099558835 c 0
 86.3852303314 185.81667975 116.105000446 110.74094755 166.239006944 64.6718604981 c 0
 199.048619874 34.5224864548 242.039674702 16 293 16 c 0
 344.069357352 16 397.830753794 35.0649127332 445.641707583 66.938881926 c 0
 540.533596383 130.826490226 614.64818126 245.530314198 640.479765448 372.774784458 c 0
544.482962831 372.790507571 m 0
 549.436909548 397.109882366 551.693257605 420.282213692 551.693257605 441.993616742 c 0
 551.693257605 511.533184175 528.546280412 566.085669538 496.75064326 595.337655718 c 0
 475.856192619 614.560550308 452.136444748 624 424 624 c 0
 395.74147258 624 365.380722776 614.046664346 334.447424825 593.121198085 c 0
 272.5101488 551.222452538 212.301432942 465.241980767 191.517037169 363.209492429 c 0
 186.563090452 338.890117634 184.306742395 315.717786308 184.306742395 294.006383258 c 0
 184.306742395 224.466815825 207.453719588 169.914330462 239.24935674 140.662344282 c 0
 260.143807381 121.439449692 283.863555252 112 312 112 c 0
 340.25852742 112 370.619277224 121.953335654 401.552575175 142.878801915 c 0
 463.4898512 184.777547462 523.698567058 270.758019233 544.482962831 372.790507571 c 0
591.517037169 363.209492429 m 0
 568.301432942 249.241980767 502.5101488 153.222452538 428.447424825 103.121198085 c 0
 391.380722776 78.046664346 351.74147258 64 312 64 c 0
 272.136444748 64 235.856192619 78.5605503077 206.75064326 105.337655718 c 0
 162.536434171 146.01472808 136.228061598 213.419956338 136.228061598 293.274550599 c 0
 136.228061598 318.673569971 138.889571384 345.332040469 144.482962831 372.790507571 c 0
 167.698567058 486.758019233 233.4898512 582.777547462 307.552575175 632.878801915 c 0
 344.619277224 657.953335654 384.25852742 672 424 672 c 0
 463.863555252 672 500.143807381 657.439449692 529.24935674 630.662344282 c 0
 573.463565829 589.98527192 599.771938402 522.580043662 599.771938402 442.725449401 c 0
 599.771938402 417.326430029 597.110428616 390.667959531 591.517037169 363.209492429 c 0
EndSplineSet
EndChar

StartChar: P
Encoding: 80 80 48
Width: 680
Flags: HW
AnchorPoint: "above" 423 784 basechar 0
LayerCount: 2
Back
SplineSet
80.34765625 48 m 1
 207.65234375 688 l 1
 447.65234375 688 l 2
 543.65234375 688 612.512695312 632 590.234375 520 c 0
 567.956054688 408 476.817382812 352 380.817382812 352 c 2
 141.817382812 352 l 1025
EndSplineSet
Fore
SplineSet
246 664 m 2
 438 664 l 2
 476.005446988 664 509.67784528 654.176127637 533.32486073 634.470281429 c 0
 557.082682676 614.844254603 569.127577287 586.252844884 569.127577287 550.78136558 c 0
 569.127577287 539.670061123 567.945694252 527.883662546 565.571724605 515.486265501 c 0
 555.441537045 462.584174909 528.197921344 426.116900737 492.780726136 403.686010439 c 0
 464.260667459 385.860973766 428.197802389 376 390 376 c 2
 198 376 l 2
 182.248761677 376 171.815981158 391.456374117 174.466063783 404.706787243 c 2
 222.466063783 644.706787243 l 2
 224.832591196 656.539424306 236.387422852 664 246 664 c 2
265.675293665 616 m 1
 227.275293665 424 l 1
 390 424 l 2
 419.802197611 424 447.739332541 432.139026234 467.219273864 444.313989561 c 0
 491.802078656 459.883099263 510.558462955 483.415825091 518.428275395 524.513734499 c 0
 520.504355119 535.355484171 521.445831581 544.649115531 521.445831581 552.681755217 c 0
 521.445831581 575.785707967 513.657122749 588.457645263 502.67513927 597.529718571 c 0
 490.32215472 607.823872363 467.994553012 616 438 616 c 2
 265.675293665 616 l 1
217 712 m 2
 203.058148161 712 187.127845969 700.054046015 183.50169946 683.132028974 c 2
 55.5513685228 43.3803742878 l 2
 53.2977176679 31.661389842 59.9872400894 24 71 24 c 0
 84.4672706705 24 101.634228936 37.9847324967 104.44692885 52.6107720526 c 2
 155.462534148 308.689104525 l 2
 157.819961767 320.522466695 169.362186237 328 179 328 c 2
 371 328 l 2
 417.969534524 328 466.561318237 340.0512508 508.157825532 366.275135834 c 0
 558.042076474 398.019659161 599.778695754 450.352335969 614.454950187 524.650874037 c 0
 617.701134264 541.084680926 619.198277014 556.237050812 619.198277014 570.180479473 c 0
 619.198277014 619.250219837 600.656490617 653.347486808 574.551803344 675.631975943 c 0
 545.363462127 699.816601523 504.049143303 712 457 712 c 2
 217 712 l 2
217 760 m 2
 457 760 l 2
 511.950856697 760 564.636537873 746.183398477 605.448196656 712.368024057 c 0
 643.492524635 679.891158709 667.046111266 631.080999847 667.046111266 569.171594401 c 0
 667.046111266 552.193685969 665.274729556 534.230629662 661.545049813 515.349125963 c 0
 644.221304246 427.647664031 593.957923526 363.980340839 533.842174468 325.724864166 c 0
 483.438681763 293.9487492 426.030465476 280 371 280 c 2
 198.690373395 280 l 1
 151.55307115 43.3892279474 l 2
 144.365771064 6.01526750331 109.53272933 -24 71 -24 c 0
 34.4621446613 -24 7.20350352024 4.87733196472 7.20350352024 39.6822826122 c 0
 7.20350352024 43.9206434909 7.60772372922 48.2469054227 8.4486314772 52.6196257122 c 2
 136.49830054 692.867971026 l 2
 144.872154031 731.945953985 178.941851839 760 217 760 c 2
EndSplineSet
EndChar

